<svg
  xml:space="preserve" width="571" height="662"
  viewBox="0 0 571 662"
  xmlns="http://www.w3.org/2000/svg"
>
  <style id="style240">
      .south-holland{fill:#dd8473}.zeeland{fill:#d1c6dd}.stroke-ffffff-1-5{stroke:#fff;stroke-width:.25;stroke-miterlimit:10}
  </style>
  <path class="south-holland" d="m-13507.778-26282.768-6.7 14.5-2.2 3.3-1.1 2.2-3.3 5.6-1.1 1.1v1.1l-2.2 3.3-1.1 2.2-3.3 4.5-6.7 8.9-3.3 2.2v1.1l-2.2 2.2h-1.1v2.2h1.1l-1.1 1.1v-1.1h-1.1l-1.1 1.1-1.1 2.2-1.1 1.1-3.3 3.3-2.2 2.2-3.3 4.5-1.1 1.1-2.2 2.2-1.1 1.1v1.1l-2.2 3.3-2.2 1.1-2.2 2.2h-1.1l-1.1-1.1-5.6-1.1-1.1 1.1h-2.2l-1.1 1.1v1.1l-1.1 1.1-1.1 2.2 1.1 1.1 1.1 1.1v1.1l-2.2 2.2-1.1 2.2-2.2 3.3h2.2l1.1 1.1 1.1-1.1 4.4-1.1h1.1l1.1 2.2h-1.6v1.1l-2.2 2.2v1.1l-1.1 1.1v1.1l1.1 1.1 4.4 6.7v2.2l-1.1 1.1 2.2-1.1 1.1 1.1 1.1 1.1 1.1 1.1v1.1h4.4l-1.1 1.1 1.1 1.1h1.1v-1.1h3.3l1.1 1.1 2.2 3.3h3.3v1.1h2.2l1.1 2.2 1.1 1.1h2.2l-1.1 1.1h-1.1l1.1 2.2 1.1 1.1 3.3 1.1v1.1h2.2l2.2 1.1h2.2v1.1l4.4 1.1 2.2 2.2h1.1l2.2 1.1 3.3 2.2h1.1l1.1 1.1h2.2v1.1h5.5l2.2 1.1h2.2l1.1 1.1h1.1l1.1 1.1h1.1l2.2-1.1h1.1l3.3-1.1h1.1l1.1-1.1h2.2l1.1-2.2 1.1 1.1h1.1l2.2-1.1v1.1l4.4-1.1 1.1-1.1 1.1-1.1 2.2-1.1 3.3-2.2 1.1-2.2 1.1-1.1 1.1-3.3 1.1-1.1 1.1-1.1v-1.1l1.1-1.1h1.1l2.2-1.1h7.7l2.2-1.1h1.1l2.2-3.3h1.1l2.2-1.1 1.1-1.1h4.4l2.2 1.1h3.3l1.1 1.1h5.5v-1.1l1.1-4.5h-4.4l-1.1-1.1h1.1l-1.1-1.1v-2.2l1.1 1.1 2.2-1.1 1.1 1.1 3.3-1.1 1.1 1.1h1.1v-1.1l-1.1-1.1v-2.2h3.3l1.1-1.1v-1.6h4.4v-1.1l1.1-1.1 1.1-3.3v-1.1h1.1l1.1-2.2 1.1-1.1h-1.1l1.1-1.1h-3.3l-4.5-2.2-2.2-1.1-4.5-1.1 1.1-2.2-1.1-3.3h.8-1.1v1.1l-1.1 1.1h-1.1l-2.2-2.2h-2.2l-1.1 1.1-1.1 1.1v1.1l-1.1 1.1h-1.1l-1.1-1.1h-2.2l-1.1 1.1-1.1 2.2h-1.1v1.1h-1.1l-1.1 1.1h-4.4v-3.3l-1.1-1.1v-1.1l-1.1-1.1-1.5-1.3-1.1-1.1-1.1-2.2-1.1-2.2-1.1-1.1 4.4-1.1h1.1l-1.1-3.3h-4.4l-1.1 1.1h-1.1l-1.1-2.2 1.1-1.1v-1.1h1.1l1.1-1.1 1.1-3.3 3.3-2.2h1.1l1.1-1.1 1.1-1.1h-6.6l1.1-1.1h-1.1v-1.1l-1.1-3.3v-3.3h1.1l-1.1-1.1-4.4-2.2v-1.1h2.2v-1.1l1.1-1.1h-1.1l1.1-1.1 1.1-1.1h2.2v1.1h5.5v-4.5l3.3-1.1-4.4-3.3-1.1-1.1h-2.2l-1.1-1.1-1.1-1.1v-1.1h-1.1l-1.1-1.1v-1.1h-1.1v-3.9l-1.1-1.1v-1.1h-3.4v1.1l-1.1 1.1h-3.3l-1.1 2.2-1.1-1.1-1.1-1.1 1.1-3.3-3.3-1.1-1.1 1.1-1.1 1.1h-2.2l-1.1-1.1v1.1h-1.1l-2.2 1.1-1.1 1.1h-5.5l-2.2-1.1-1.4 1.1h-1.1l-1.1-1.1h-1.1v-3.3h1.1v-1.1l1.1-1.1v-5.6l1.1-1.1 1.1-1.1 1.1-1.1v-2.2h1.1v-2.2l1.1-1.1 1.1-2.2-2.2-1.1h-2.2l-1.1 1.1-1.1-1.1v2.2l-3.3-1.1zm-65.7 115.7-1.1 1.1h1.1zm-7.8-2.2-2.2 1.1h2.2zm0 1.1-3.3 1.1h-2.2l2.2-1.1-3.3 1.1-6.7 2.2-2.2 1.1h-1.1l-3.3 1.1h-1.1l-1.1 2.2v2.2l1.1 3.3v1.1h1.1v1.1h1.1l2.2-1.1v-1.1h-1.1v-1.1h3.3l1.1-1.1h3.3l1.1-1.1 1.1-1.1 2.2 1.1h2.2l2.2 1.1v1.1l1.1 1.1 1.1 2.2h1.1v3.3h-1.1v1.1h1.1l-1.1 1.1v1.1l1.1 2.2h1.1v1.1l1.1 1.1v1.1l1.1 2.2v2.2h2.2l1.1 1.1 1.1-1.1v1.1h6.6l1.1 1.1 3.3 1.1 1.1 2.2 1.1 1.1h3.3v1.1h2.2l1.1 1.1h1.1v2.2l2.2 1.1 1.1 1.1h5.5l2.2-1.1h3.3l3.3-1.1 2.2-1.1 1.1-1.1 1.1-2.2v-1.1h-1.1v-1.1h4.4l2.2-1.1h-1.1v-2.2h-1.1l-1.1 1.1h-9.9l-2.2-3.3h-2.2l-1.1-1.1h-1.1l-1.1-1.1v-1.1l-2.2-1.1v-2.2h-1.1l-3.3-3.3-3.3-3.3h-.7v-1.1h-2.2l-1.1-1.1h-1.1l-2.2-2.2-2.2-1.1h-1.2l-4.4-2.2-1.1-1.1-3.3-1.1v-1.1l-1.1-1.1h-1.1v1.1l-1.1-1.1h1.1v-2.2h-1.1v1.1h-1.1v-1.1l-2.2-1.1v-1.1zm-21.1 15.6-1.1 2.2-1.1 1.1-2.2 1.1h1.1l2.2 1.1 1.1 1.1h1.1v-1.1l-1.1-1.1-1.1-1.1z" id="path242"/>
  <path class="south-holland" d="m-13537.878-26144.768 2.2 1.1 3.3 1.1 2.2 1.1 1.1 1.1h-1.1l-2.2 1.1h-4.4l-1.1-1.1-1.1-1.1h-1.1l-2.2-2.2h-1.1l-1.1-1.1 1.1-1.1h2.2zm-51.2-7.8 1.1 1.1-1.1-1.1h-2.2l-2.2 1.1-2.2 1.1h-1.1v-1.1l2.2-1.1v-1.1l1.1-1.1 1.1-1.1v1.1h1.1zm3.4 5.5h1.1l1.1-1.1v2.2l1.1 3.3 2.2 2.2-1.1 1.1h-1.1v-1.1l-1.1-1.1v-1.1l-1.1-2.2-1.1-1.1z" id="path244"/>
  <path class="stroke-ffffff-1-5" d="m-13263.078-26543.168-5.6 2.2h-1.1l-2.2-1.1h-3.3v1.1h-2.3l-1.1-1.1-4.5 1.1h-3.3l-1.1 1.1-4.4 1.1h-2.2l-4.5 2.2h-5.5v-1.1l-1.1-1.1v2.2l-2.2 1.1-2.2 1.1-1.1 1.1-2.2 1.1-1.1 1.1-2.2 1.1h-2.2l-3.3 2.2-4.4 2.2-2.2 1.1-5.6 3.3h-3.6l-1.1 1.1-2.2 1.1h-1.1l-1.1 1.1-2.2 1.1-2.2 1.1-1.1 1.1-2.2 2.2-1.1 2.2-1.1 1.1v1.1h-1.1v1.1l-2.2 1.1-1.1 1.1h-1.1l-2.2 2.2-1.1 1.1h-1.1l-1.1 1.1-1.1 2.2h-1.5l-1.1 1.1-1.1 2.2-1.1 3.3-1.1 1.1v1.1h1.1l-1.1 1.1-1.1 1.1-1.1 1.1v1.1h1.1v2.2l-1.1 2.2v6.6l-1.1 1.1v1.1l-2.2 1.1h-1.1l1.1 1.1-1.1 1.1v1.1l-1.1 1.1h1.1l1.1 1.1 1.1 2.2v3.3l1.1 2.2h-1.1l1.1 1.1h-1.1v-1.1h-2.2v2.2h2.2v3.3l1.1-1.1v1.1h-1.1v1.1h1.1l1.1 1.1v3.3l-1.1 1.1v2.2l1.1 3.3v2.2l1.1 1.1v.4l2.2-1.5-2.2 2.2v-.7l-1.1.7v3.3h-1.1l-1.1 1.1 1.1 1.1 1.1 2.2v4.4l-1.1 1.1h-2.3l-2.2 2.2-1.1 1.1-1.1 1.1 1.1 1.1v2.2h2.2v1.1h1.1l2.2 2.2 2.2 2.2h5.5v-1.1l3.3 1.1h2.2l1.1 1.1 4.4 2.2h2.2v1.1h2.2l1.1-1.1h1.1v-1.1l1.1-1.1v-1.1l2.2-1.1 2.2 1.1 1.1-1.1 2.2-1.1h1.1l1.1 1.1v2.2h6.6v1.1h1.1l1.1-1.1v1.1l2.2 1.1-1.1-2.2 3.3 1.1h1.1l4.4 5.6 1.1 2.2v1.1l1.1-1.1 2.2-2.2h1.1v1.1h2.2v1.1h2.2l1.1 1.1h3.3l1.1-1.1h1.1v-1.1h1.1l1.1-1.1v-1.1l1.1-1.1v-1.1l1.1-1.1h2.2v-1.1l2.2 1.1v-1.1l2.2-1.1v2.2l1.1 2.2 1.1 1.1h1.1v1.1l1.1-1.1 3.3-1.1v2.2l2.2-1.1 1.1-1.1h1.1v-1.1l-1.1-2.2h4.4l1.1-1.1 1.1-1.1 3.3-2.2 3.3-2.2 2.2-2.2 4.5-2.2 1.1-1.1 1.1-1.1 3.3-4.5 2.2-1.1v-2.2l2.2-1.1 3.3 1.1h3.3l4.4 4.5 4.5-3.3 3.3-3.3 1.1-1.1 1.1-1.1v-1.1l3.3-5.6-1.1-1.1-1.1-2.2.4-1.1-4.4-6.7-2.2-3.3v-4.4l1.1-3.3-2.2-1.1h-3.3l-3.3-2.2 1.1-2.2-3.3-1.1v-1.1l-1.1-1.1-2.2-1.1-1.1-1.1h-8.8l-1.1-2.2-1.1-1.1-1.1-1.1v-10l1.1-1.1 1.1-2.2v-1.1l1.1-1.1h1.1l1.1-1.1 1.1-2.2v-4.4h-2.2v-1.1l1.1-1.1 1.1-1.1 1.1-1.1v-2.2l1.1-1.1v-1.1h1.1l1.1-1.1h-1.1v-3.9l1.1-1.1h1.1l1.1-1.1v-1.1l1.1-1.1h1.1v-1.1h-1.1v-7.8h-1.1v-1.1h-3.3l-1.1 1.1h-2.2l1.1 1.1v1.1h-1.1v-1.1l-1.1-1.1v-1.1h-1.5l1.1-1.1h-1.1l-1.1-1.1v1.1l-1.1 2.2v-2.2l-2.2-1.1-1.1 1.1v1.1l2.2 2.2v1.1h-1.1v-1.1l-1.1 1.1v-1.1l-1.1-1.1v-4.4l-1.1-1.1v-1.1l1.1-1.1h-1.1v-2.2l-1.1-1.1 1.1-2.2v-2.4zm6.7 14.4v1.1l1.1 1.1zm-122.4 63.5-3.3 3.3h-2.2l1.1 1.1h1.1l1.1-1.1zm7.8-22.3v-1.1l-1.1 1.1zm107.9-34.5h1.1v1.1zm-2.2 1.1h1.1l-1.1 1.1zm-109.1 66.8h1.1l-1.1 1.1zm94.6-99.1v1.2l-1.1 1.1h-1.1v-2.2l1.1-1.1h1.1zm-46.7-1.1h6.6l14.5-1.1 6.7-1.1h3.3l2.2 1.1h1.1v2.2h-9.9l-2.2 1.1-2.2 1.1h-1.2l-4.4 1.1-4.5 1.1h-4.4l-3.3-1.1h-4.5v1.1l-1.1 1.1-1.1 1.1h-2.2l-1.1 1.1h-2.2 1.1l-1.1 1.1-1.1-1.1h-2.2l-1.1-1.1-2.2-1.1-1.1-2.2v-1.1l1.1-1.1 1.1-2.2 1.1-1.1 2.2-2.2h2.2l1.1 1.1h1.1l1.1 1.1h-1.1l-1.1-1.1h-3.3l-1.1 1.1h3.3l4.4 1.1zm87.9-12.2v2.2h-4.4l-2.2 1.1-3.3 1.1-1.1 1.1v1.1l-2.2 1.1h-4.4l-3.3 1.1h-5.5l-1.1 2.2v1.1h-1.5v1.1h-2.2v1.3l-1.1-2.2v-1.1h1.1l1.1-1.1-1.1-1.1v-3.5l1.1-1.1 2.2-1.1v-1.1h-4.4 1.1l1.1-1.1 2.2 1.1h3.3l11.1-1.1h3.3l6.7-1.1 2.2-1.1zm-158 63.4-1.1-1.1h4.4-1.1v1.1h-2.2v-1.1zm26.7-37.8h-4.4l-2.2 1.1h-1.1l-1.1 1.1-2.2 2.2-1.1 1.1h-2.2v1.1h-1.1l-1.1-1.1v1.1h-1.1l-1.1 1.1h-1.1v1.2l-1.1-1.1h-3.3l-1.1 1.1-1.1 1.1-1.1-1.1-1.1 1.1h-1.1l-1.1 1.1v1.1h-1.1l-2.2 1.1h1.1l-1.1 1.1h-3.3l-1.1-2.2h-1.1v-1.1l1.1-1.1 2.2-3.3 2.2-3.3 2.2-1.1 2.2-1.1 4.5-1.1 6.7-1.1h2.2l6.7-2.2 5.6-2.2 12.2-4.5h3.3l3.3-1.1 1.1 1.1h1.1l1.1 1.1v3.3-2.2l-1.1-1.1v1.1l-1.1 1.1-1.1 1.1h-3.3l-2.2 1.1-1.1-1.1v1.1h1.1l-1.1 1.1h-2.2v-1.1h-1.1l1.1 1.1v1.1h-2.7l-1.1-1.1 1.1 1.1 1.1 1.1h2.2l-1.1 1.1h-4.4zm-38.9 25.6-1.1 1.1-1.1 1.1h-3.3v1.1h-1.1v-1.1h1.1-1.1l1.1-1.1 1.1-1.1h2.2zm-14.5 1.1v1.1l-1.1 1.1-2.2 1.1-6.7 2.2-2.2 1.1v3.3h1.1v-1.1h1.1l-1.1 1.1-1.1 2.2-3.3 2.2-1.1 1.1h-1.1v1.1l-1.1 1.1-2.2 1.1h-6.8l-1.1 1.1v1.1h1.1-2.2v-4.4l6.7-3.3 3.3-3.3 2.2-1.1 2.2-2.2 1.1-1.1 4.5-3.3 2.2-1.1 1.1-1.1 3.3-1.1 2.2-1.1 2.2-1.1h1.1l3.3 1.1v1.1l-1.1 1.1h-2.2z" id="path246" style="fill:#d0e7c7"/>
  <path class="stroke-ffffff-1-5" d="m-13220.778-26493.168-2.2 1.1-1.1 1.1v1.1l-2.2 1.1-2.2 1.1-1.1 1.1v1.1l-1.1 1.1-1.1 2.2-1.1 1.1v1.1l-2.2 5.6v4.4h-1.1l-1.1 4.5h-1.3l-3.3-1.1-1.1 2.2 3.3 2.2h3.3l2.2 1.1-1.1 3.3v4.4l2.2 3.3 4.4 6.7 1.1 2.2 1.1 2.2 1.1 1.1-3.3 5.6v1.1l-1.1 1.1-1.1 1.1-3.3 3.3-4.5 3.3-4.4-4.5h-3.3l-3.3-1.1-2.2 1.1v2.2l-2.2 1.1-3.3 4.5-1.1 1.1-1.1 1.1-4.5 2.2-2.2 2.2-3.3 2.2 1.1 2.2v1.1l3.3 3.3 1.1 1.1 2.2 2.2 1.1 1.1 1.1 1.1 1.1 2.2h1.1l-1.1 2.2-1.1 1.1-2.2 2.2v1.1h-1.1l-1.1 1.1-3.3 1.1-1.1 1.1h-1.1v1.1l1.1 2.2 1.1 2.2 1.1 2.2v2.2l2.2 3.3v1.1l2.2 1.1v1.1l-1.1 1.1 3.3 1.1-1.1-1.1 1.1-1.1v1.1l1.1 1.1v-1.1l1.1-1.1h3.3v1.1h3.3v1.1l1.1 1.1h1.1v1.1h2.2v-1.1h1.1v1.1h3.3l1.1-1.1h2.2v1.1h-1.1v1.1h1.1v1.1l1.1 1.1h1.1l1.1 1.1h1.1v2.2h1.1v1.1l1.1 1.1v2.2l1.1 1.1h1.1v-1.1h2.2v.1h1.1v1.1h1.1v-1.1l1.1-1.1h1.1v2.2h1.1l1.1 1.1 1.1-1.1 1.1-1.1v-1.1l1.1 1.1 1.1 1.1h3.3l1.1 1.1h1.1v-1.1l-1.1-6.7 2.2-2.2 2.2-2.2 1.1-1.1h4.5l3.3-1.1h1.1v-1.1l2.2 1.1 2.2 1.1 2.2 1.1 4.5 2.2h2.2l1.1 1.1-1.1 1.1v3.3h1.1l1.1-1.1h1.1l1.1-1.1 1.1-2.2h3.3l1.1-1.1h5.5l1.1 1.1 1.1-1.1h5.5l1.1-1.1 1.1 1.1h3.3l2.2 1.1v1.1h7.7l1.1-1.1h1.1l1.1 1.1 1.1-1.1v1.1h1.1l3.3 1.1h1.1l2.2-2.2v-7.8l1.1-11.1v-21.1l3.3-6.7h-3.3v-2.2l-1.1-1.1-2.2-3.3h-1.1v-1.1h-2.2v-1.1l2.2-6.7 1.1-1.1v-2.2h-2.2l-1.1-1.1-1.1-1.1-1.1-2.2-2.2-3.3h-1.1v-1.1h-1.1l-1.1-2.2-1.1-2.2-1.1-1.1-1.1-1.1v-1.4l-1.1-1.1-2.2-2.2-2.2-2.2-1.1-1.1-5.6-5.6-3.3-3.3-3.3-3.3v-1.2l-4.5-3.3-1.1-2.2-4.4-3.3v-1.2h-1.1l-1.1-1.1h-5.5l-2.2 1.1h-1.1l-5.6 2.2v-1.1l-1.1-1.1 1.1-1.1h-1.1v-1.1l-1.1-1.1-1.1-1.1-1.1-1.1v-1.1h-2.2v-1.1l-1.1-1.1v-2.3l-2.2 1.1-1.1-1.1v-1.1l-1.1-3.3-1.1 1.1-1.1-1.1-1.1-3.3h-2.2l-1.1-1.1-1.1 1.1-1.1-1.1h-1.7zm89 83.5h1.1v-1.1z" id="path248" style="fill:#dff"/>
  <path class="stroke-ffffff-1-5" d="m-13269.778-26409.668-3.3 2.2-1.1 1.1-1.1 1.1h-4.4l1.1 2.2v1.1h-1.1l-1.1 1.1-2.2 1.1v-2.2l-3.3 1.1-1.1 1.1v-1.1h-1.1l-1.1-1.1-1.1-2.2v-2.2l-2.2 1.1v1.1l-2.2-1.1v1.1h-2.5l-1.1 1.1v1.1l-1.1 1.1v1.1l-1.1 1.1h-1.1v1.1h-1.1l-1.1 1.1h-3.4l-1.1-1.1h-2.2v-1.1h-2.2v-1.1h-1.1l-2.2 2.2 1.1 2.2 1.1 1.1 1.1 1.1v1.1h4.4l1.1 1.1 3.3 1.1 1.1 2.2 1.1 1.1h1.1l2.2 2.2 1.1 3.3 2.2 4.5v1.1h1.1l1.1 1.1v1.1l1.1 1.1v2.2l-2.2 1.1-1.1 1.1-1.1 1.1v2.2h1.1v-1.1l2.2 1.1h1.1l2.2 1.1 1.1 1.1 1.1 1.1h2.2l1.1 2.2-1.1 1.1-3.3 2.2h-1.1l-3.3 1.1v1.1l-2.2 1.1h-1.1l-2.2 1.1-1.1-1.1-1.1-1.1-8.9 2.2-1.1 1.1v4.4l1.1 1.1v1.1l-4.5-1.1 1.1 1.1h2.2v1.1l1.1 1.1v2.2l1.1 1.1 1.1 1.1v2.2l1.1 1.1v4.4l2.2-1.1 1.1 1.1 2.2 3.3 1.1 2.2 2.2 3.3v2.2l2.2-1.1 1.1-1.1 1.1-1.1v1.1l1.1 1.1 1.1-1.1 2.2-2.2 2.2-2.2 1.1-1.1h2.2l1.1-1.1 1.1 1.1h1.1l1.1 1.1 1.1 1.1v2.2l1.1 1.1 3.3 1.1 1.1 1.1v1.1l1.1 3.3v2.2l1.1 1.1 1.1 1.1v2.2l-1.1 1.1v3.3l1.1 1.1h1.1v4.4h-1.1v1.1h-1.1l-2.2 1.1h-2.2v1.1h-1.1v1.1l1.1 1.1h1.1l1.1 1.1h-1.1l-1.1 1.1h-1.1v6.6h-1.1v1.1h2.2v4.4h3.3v2.2h1.1v3.3l1.1 1.1 1.1 1.1v3.3l1.1 1.1h3.3v1.1h-1.1l-1.1 1.1v1.1l1.1 2.2h2.2v-1.1l2.2-1.1h1.1v1.1h3.3l1.1 1.1v-1.1h6.6l1.1 1.1 1.1-1.1h3.3v1.1h3.3v-1.1h2.2v-2.2h1.1l1.1-1.1h3.3l1.1-1.1v1.1h5.5v2.2l1.1 2.2 3.3 2.2v2.2h1.1v1.1h2.2v2.2l1.1 1.1v1.1h1.1l1.1 1.1 2.2-1.1h1.1l5.6 1.1 4.4-1.1h1.1l2.2 1.1-1.1 1.1 1.1 1.1 1.1 1.1v-1.1l1.1-1.1 1.1-1.1 1.1 1.1v1.1l1.1-2.2h1.1l3.3 2.2v5.5l-.8 5.2h3.3l2.2 1.1 2.2 1.1h20l1.1-1.1 1.1-1.1 1.1-1.1v-1.1l1.1-5.6h1.1v-1.1l3.3-2.2v-1.1l3.3-1.1h3.3l1.1-2.2v-1.1l1.1-1.1v-1.1l1.1-1.1v-3.3l1.1-1.1 2.2-1.1 1.1 1.1h4.4l3.3-2.2v-1.1l-3.3-4.5-1.1-1.1v-2.2h-1.1v-4.4l1.1-3.3v-1.1h1.1v-1.1h1.1v-2.2l1.1-2.2v-1.1l2.2-3.3v-5.6l-2.2-4.5v-2.2h-3.3l-1.1-2.2-1.1-2.2-2.2-2.2v-1.1l-1.1-2.2v-2.7l-1.1-2.2v-1.1h-2.2l-1.1 2.2-1.1 3.3-2.2 1.1v1.1h-1.1l-5.6-1.1-2.2-1.1-3.3-1.1h-2.2l1.1-2.2h-14.4l-1.1-1.1-4.4-2.2-1.1-1.1-2.2-1.1 1.1-8.9-2.2-3.3-2.2-4.5h1.1l2.2 1.1h2.2l1.1-3.3h2.2l2.2 1.1 1.1-1.1-6.7-5.6v-2.2l1.1-4.5v-1.2l-1.1-1.1-1.1-1.1h-1.1v-3.3l1.1-1.1-1.1-1.1h-2.2l-4.4-2.2-2.2-1.1-2.2-1.1-2.2-1.1v1.1h-1.1l-3.3 1.1h-4.5l-1.1 1.1-2.2 2.2-2.2 2.2 1.1 6.7v1.1h-1.1l-1.1-1.1h-3.3l-1.1-1.1-1.1-1.1v1.1l-1.1 1.1-1.1 1.1-1.1-1.1h-1.1v-2.3h-1.1l-1.1 1.1v1.1h-1.1v-1.1h-1.1v1.1h-2.4v1.1h-1.1l-1.1-1.1v-2.2l-1.1-1.1v-1.1h-1.1v-2.2h-1.1l-1.1-1.1h-1.1l-1.1-1.1v-1.1h-1.1v-1.2h1.1v-1.1h-2.2l-1.1 1.1h-3.3v-1.1h-1.1v1.1h-2.4v-1.1h-1.1l-1.1-1.1v-1.1h-3.3v-1.1h-3.3l-1.1 1.1v1.1l-1.1-1.1v-1.1l-1.1 1.1 1.1 1.1-3.3-1.1 1.1-1.1v-1.1l-2.2-1.1v-1.1l-2.2-3.3v-2.2l-1.1-2.2-1.1-2.2-1.1-2.2v-1.1h1.1l1.1-1.1 3.3-1.1 1.1-1.1h1.1v-1.1l2.2-2.2 1.1-1.1 1.1-2.2h-1.2l-1.1-2.2-1.1-1.1-1.1-1.1-2.2-2.2-1.1-1.1-3.3-3.3v-1.1zm7.8 151.4v2.2l1.1-1.1z" id="path250" style="fill:#d8adc5"/>
  <path class="stroke-ffffff-1-5" d="m-13304.278-26329.568-2.2 1.1v1.1l-1.1 3.3-1.1 2.2v2.2l-1.1 2.2v2.2l-1.1-1.1v2.2h-1.1v-2l-1.1 2.2v1.1h1.1v1.1h-1.1l1.1 1.1-1.1 1.1-1.1 1.1-3.4 3.4-2.2 2.2-2.2 1.1v1.1h-1.1l-1.1 1.1h-1.1l-1.1 1.1v1.1h-1.2v1.1h-2.2l-2.2 1.1-1.1 1.1h-1.1l-1.1 1.1-2.2 1.1h-1.1l-1.1 1.1-1.1 1.1v1.1h-2.2v2.2h-1.1v1.1h-1.1v1.1h-1.1v1.1l-2.2 1.1-1.1 1.1-1.1 1.1v1.1l-1.1 2.2v2.2l-1.1 2.2v1.1l-1.1 2.2-1.1 1.1h-5.5l-2.2 2.2-1.1-1.1-1.1 1.1-3.3 1.1h-2.2l-1.1 1.1h-2.2l-1.1 5.6v1.1l2.2 1.1v-.6l4.5 3.3v7.7l1.1 1.1h5.6v1.1h-1.1l1.1 1.1v2.2h2.2v2.2h2.2v2.2h-2.2v2.2h1.1v1.1h-2.2v1.1l-1.1 1.1v3.3l-1.1 1.1-1.1 1.1h-1.1v1.1l1.1 1.1 2.2 1.1h2.2l1.1-1.1 1.1-1.1h1.1l1.1-1.1v-1.1h1.1v-1.9l-1.1-1.1 3.3-1.1 1.1 2.2v3.3l1.1 1.1-1.1 1.1v6.7h2.2v1.1h-1.1l3.3 2.2v6.6l1.1 1.1 1.1 1.1h1.1v1.1l1.1 2.2v1.1l1.1 1.1-1.1 1.1 1.1 1.1v2.2l-1.1 1.1-2.2 1.1-2.2-1.1-3.3-1.1-2.2-1.1-1.1-2.2h-2.2l-1.1-1.1h-1.1l-2.2-1.1-1.1-1.1h-6.2l-1.1-1.1h-1.1l-1.1 1.1-1.1 1.1h-1.1l-2.2 1.1h-1.1l-1.1 1.1h-1.1l-2.2-1.1-1.1 1.1h-1.1l-1.1 1.1v1.1h-1.1l-1.1 1.1h-1.3l-1.1-1.1-1.1-1.1h-4.4l-2.2-2.2-2.2-1.1h-2.2v2.2l-1.1 1.1-1.1 1.1h-2.2l-1.1-1.1-1.1-1.1-1.1 2.2-1.1 3.3-2.2 2.2-1.1 1.1h1.1l-1.1 1.1-1.1 2.2h-1.1v1.1l-1.1 3.3-1.1 1.1v1.1h-4.4v2.2l-1.1 1.1h-3.3v2.2l1.1 1.1v1.1h-1.1l-1.1-1.1-3.3 1.1-1.1-1.1-2.2 1.1-1.1-1.1v2.2l1.1 1.1h-1.1l1.1 1.1h4.4l-1.1 4.5v1.1h-2.2v2.2h1.1l1.1 1.1 2.2 1.1 1.1 1.1h1.1v1.1l1.1 1.1v1.1h1.1v1.1h1.1l1.1-1.1 1.1-1.1h1.1l1.1 1.1 1.1 1.1 3.3 1.1v3.3l1.1 1.1-1.1 1.1-1.1 1.1h-1.1v1.1l1.1 1.1 2.2-1.1h9.9l1.1-1.1 1.1 1.1 2.2 1.1 1.1 1.1 1.1-1.1 1.1-1.1h2.2l2.2 1.1h1.1v-1.1l2.2-1.1 5.6-2.2v-1.1h1.1v-4.4l1.1-2.2v-1.1l2.2-3.3 1.1-1.1 1.1-1.1v-1.1l1.1-1.1h1.1v1.1l1.1 1.1 1.1 1.1h5.5l1.1-1.1 1.1-2.2v-1.1h3.3l1.1 1.1v1.1h2.2l1.1 1.1h1.1l1.1-1.1v-1.1l1.1-1.1h5.5l2.2 1.1 1.1 1.1h3.3l1.1 1.1v2.2l1.1 1.1 1.1 1.1 1.1 1.1h2.2l1.1 1.1h1.1v2.2h1.1l1.1 1.1h2.2l1.1 1.1 1.1 1.1v1.1l1.1 1.1h5.5l3.3-1.1h8.8v-1.5l-1.1-1.1 1.1-1.1h3.3l1.1 1.1 1.1 1.1v1.1l1.1 1.1v1.1l1.1 1.1h1.1v1.1l1.1 1.1h1.1l1.1-1.1v-1.1l1.1-1.1 2.2-1.1h1.1l1.1-2.2v-1.1h-.1v-2.2h1.1l-1.1-1.1h-1.1v-3.3l-2.2-2.2h-2.2v-1.1l1.1-1.1h1.1l-2.2-1.1 2.2-3.3h1.1v1.1h3.3l2.2-1.1h1.1l1.1-1.1 1.1-1.1 1.1 1.1 1.1-1.1 1.1-1.1h1.1l-1.1-1.1 1.1-1.1 1.1-1.1 1.1 1.1 2.2 2.2h2.2l4.4 1.1h3.3l1.1 1.1v-5.5l-2.2-1.1h-1.1v-2.2l-1.1-2.2-1.1-1.1h-3.3l1.1-1.1v-1.1h1.1l1.1 1.1 4.5-2.2 1.1 1.1h1.1l1.1 1.1 2.2 1.1v1.1h-2.2l1.1 1.1 1.1 1.1 1.1 1.1 2.2 1.1h2.2v-1.1h2.2l1.1 1.1h1.1v-1.1h1.1v-1.1l1.1 1.1 3.3 1.1v1.1l1.1 2.2v1.1l2.2-1.1h3.3l1.1 1.1h1.1l1.1 1.1v2.2h3.3l2.2 1.1h1.1l-1.1-2.2 1.1 1.1-1.1-2.2v-1.1l1.1-1.1h-1.1v-1.1h-1.1l-1.1-1.1v-3.3l2.2 1.1h1.1l1.1 1.1h1.1v1.1h2.2l1.1-1.1 1.1 2.2h1.1l1.1 1.1 1.1-1.1 3.3-1.1v-2.2h1.1l1.1-1.1h2.2l1.1-1.1v-1.4h1.1l1.1-1.1v1.1h1.1l1.1-1.1 2.2-1.1 5.6-2.2h2.2v-1.1l2.2-1.1 2.2-1.1h1.1l1.1-1.1v1.1h2.2v1.1l1.1 1.1 2.2 2.2 2.2-1.1v-1.1h1.1l1.1-1.1h1.1v-1.1l1.1-1.1h1.1l2.2-3.3 1.1-1.1v-5.5l2.2-1.1h2.2l1.1-2.2-1.1-1.1v-3.3l-3.3-1.1h1.1l-6.7-4.5-1.1-1.1-1.1-2.2-5.6-2.2h-4.5v-4.8l1.1-1.1v-2.2h3.3l2.2-1.1 2.2-1.1v-3.4h1.1v-1.1l1.1-4.5h-7.8l-2.2-1.1-2.2-1.1h-2l2.2-3.3v-5.5l-3.3-2.2h-1.1l-1.1 2.2v-1.2l-1.1-1.1-1.1 1.1-1.1 1.1v1.1l-1.1-1.1-1.1-1.1 1.1-1.1-2.2-1.1h-1.1l-4.4 1.1-5.6-1.1h-1.1l-2.2 1.1-1.1-1.1h-1.1v-1.1l-1.1-1.1v-2.2h-2.4v-1.1h-1.1v-2.3l-3.3-2.2-1.1-2.2v-2.2h-5.6v-1.1l-1.1 1.1h-3.3l-1.1 1.1h-1.1v2.2h-2.3v1.1h-3.3v-1.1h-3.3l-1.1 1.1-1.1-1.1h-6.6v1.1l-1.1-1.1h-3.3v-1.1h-1.1l-2.2 1.1v1.1l1.1 1.1-1.1 1.1v-2.2h-2.2l-1.1-2.2v-1.1l1.1-1.1h1.1v-1.1h-3.3l-1.1-1.1v-3.4l-1.1-1.1-1.1-1.1v-3.3h-1.1v-2.2h-3.3v-4.4h-2.2v-1.1h1.1v-6.6h1.1l1.1-1.1h1.1l-1.1-1.1h-1.1l-1.1-1.1v-1.1h1.1v-1.1h2.2l2.2-1.1h1.1v-1.1h1.1v-4.4h-1.1l-1.1-1.1v-3.8l1.1-1.1v-2.2l-1.1-1.1-1.1-1.1v-2.2l-1.1-3.3v-1.1l-1.1-1.1-3.3-1.1-1.1-1.1v-2.2l-1.1-1.1-1.1-1.1h-1.1l-1.1-1.1-1.1 1.1h-2.2l-1.1 1.1-2.2 2.2-2.2 2.2-1.1 1.1-1.1-1.1v-1.1l-1.1 1.1-1.1 1.1-2.2 1.1v-2.2l-2.2-3.3-1.1-2.2-2.2-3.3zm-36.7 40.1-2.2-1.1 1.1 1.1z" id="path252" style="fill:#e3a528"/>
  <path class="stroke-ffffff-1-5" d="M-13432.178-26276.168v1.1h-1.1v2.2l-2.2-1.1v1.1l-2.2 1.1v1.1h-3.3l-2.2-1.1-1.1 1.1v1.1l1.1 1.1-1.1 1.1-1.3 1.3v1.1h-2.2v1.1l-1.1-1.1h-2.2l-1.1 1.1-2.2 1.1v1.1h-1.2l-1.1 1.1h-1.1v1.1h-1.1l-1.1 1.1h-3.3v1.1l1.1 1.1v3.3h1.1v1.1l1.1 1.1h1.1v1.1l1.1 1.1 1.1 1.1h2.2l1.1 1.1 4.4 3.3-3.3 1.1v4.5h-5.5v-1.1h-2.2l-1.1 1.1-1.1 1.1h1.1l-1.1 1.1v1.1h-2.2v1.1l4.4 2.2 1.1 1.1h-1.1v3.3l1.1 3.3v1.1h1.1l-1.1 1.1h6.6l-1.1 1.1-1.1 1.1h-1.1l-3.3 2.2-1.1 3.3-1.1 1.1h-1.1v1.1l-1.1 1.1 1.1 2.2h1.1l1.1-1.1h4.4l1.1 3.3h-1.1l-4.4 1.1 1.1 1.1 1.1 2.2 1.1 2.2 1.1 1.1 1.1 1.1 1.1 1.1v1.1l1.1 1.1v3.3h4.4l1.1-1.1h1.1v-1.1h1.1l1.1-2.2 1.1-1.1h2.2l1.1 1.1h1.1l1.1-1.1v-1.1l1.1-1.1 1.1-1.1h2.2l2.2 2.2h1.1l1.1-1.1v-1.1h2.2l1.1 3.3-1.1 2.2 4.5 1.1 2.2 1.1 4.5 2.2h3.3l2.2-2.2 1.1-3.3 1.1-2.2 1.1 1.1 1.1 1.1h2.2l1.1-1.1 1.1-1.1v-2.2h2.2l2.2 1.1 2.2 2.2h4.4l1.1 1.1 1.1 1.1h1.1l1.1-1.1h1.1v-1.1l1.1-1.1h1.1l1.1-1.1 2.2 1.1h1.1l1.1-1.1h1.1l2.2-1.1h1.1l1.1-1.1 1.1-1.1h1.1l1.1 1.1h5.5l1.1 1.1 2.2 1.1h1.1l1.1 1.1h2.2l1.1 2.2 2.2 1.1 3.3 1.1 2.2 1.1 2.2-1.1 1.1-1.1v-2.2l-1.1-1.1 1.1-1.1-1.1-1.1v-1.1l-1.1-2.2v-1.1h-1.1l-1.1-1.1-1.1-1.1v-6.6l-3.3-2.2h1.1v-1.1h-2.2v-6.7l1.1-1.1-1.1-1.1v-2.9l-1.1-2.2-3.3 1.1 1.1 1.1v2.2h-1.1v1.1l-1.1 1.1h-1.1l-1.1 1.1-1.1 1.1h-2.2l-2.2-1.1-1.1-1.1v-1.1h1.1l1.1-1.1 1.1-1.1v-3.3l1.1-1.1v-1.1h2.2v-1.1h-1.1v-2.2h2.2v-2.3h-2.2v-2.2h-2.2v-2.2l-1.1-1.1h1.1v-1.1h-5.6l-1.1-1.1v-7.7l-4.5-3.3v1.1l-2.2-1.1v-1.1l1.1-5.6-1.1-1.1-1.1-1.1-1.1-1.1h-1.1v-1.1l-1.1-1.1h-3.3l-1.1-1.1h-1.4l-1.1-1.1h-4.5l-2.2-1.1-3.3 6.7v2.2l-1.1 2.2-1.1 3.3-1.1 2.2v2.2l-1.1 1.1v1.1l-2.2 4.5h-4.5l-6.7-1.1h-1.1l-5.6 2.2-4.4 1.1v-4.5h-1.1v-3.3h-1.1l-1.1-1.1h2.2v-6.6h1.1l2.2-1.1-2.2-1.1v-3.3h-1.1v1.1l-1.1-1.1-1.1-3.3v-1.1h2.2v-1.1h2.2v-1.1h2.2l-1.1-1.1h-1.1l-1.1 1.1h-1.1l-1.1-1.1-1.1 1.1v-4.5h-1.1z" id="path254" style="fill:#f8e7fe"/>
  <path class="stroke-ffffff-1-5" d="m-13471.078-26435.268-2.2 3.3v4.4l-1.1 3.3v7.8l-2.2 6.7-1.1 6.7-2.2 6.7v2.2h-1.1v2.2l-2.2 4.5v2.2l-2.2 6.7v7.7l-1.1 4.5v4.4l-1.1 4.5v5.5l-1.1 1.1v1.1l-1.1 7.8-1.1 10-1.1 5.6-1.1 2.2-1.1 2.2-1.1 2.2-1.1 3.3 2.2-1.1h1.1l2.2-1.1 1.1 1.1h-1.1v1.1h-2.2l-1.1 1.1h2.2v1.1l-2.2-1.1h-1.4v1.1l-2.2-1.1v2.2l1.1 2.2-1.1 1.1v2.2l-1.1 2.2-1.1 4.5-1.1 3.3-2.2 5.6-4.4 8.9 7.8 3.3 3.3 1.1v-2.2l1.1 1.1 1.1-1.1h2.2l2.2 1.1-1.1 2.2-1.1 1.1v2.2h-1.1v2.2l-1.1 1.1-1.1 1.1-1.1 1.1v5.5l-1.1 1.1v1.1h-1.1v3.3h1.1l1.1 1.1h1.1l1.1-1.1 2.2 1.1h5.5l1.1-1.1 2.2-1.1h1.1v-1.1l1.1 1.1h2.2l1.1-1.1 1.1-1.1 3.3 1.1-1.1 3.3 1.1 1.1 1.1 1.1 1.1-2.2h3.3l1.1-1.1v-1.1h6.6l1.1-1.1h1.1v-1.1h1.1l1.1-1.1h1.1v-1.1l2.2-1.1 1.1-1.1h2.2l1.1 1.1v-1.1h2.2v-.5l1.1-1.1 1.1-1.1-1.1-1.1v-1.1l1.1-1.1 2.2 1.1h3.3v-1.1l2.2-1.1v-1.1l2.2 1.1v-2.2h1.1v-1.1h2.2v4.5l1.1-1.1 1.1 1.1h1.1l1.1-1.1h1.1l1.1 1.1h-2.2v1.1h-1.5v1.1h-2.2v1.1l1.1 3.3 1.1 1.1v-1.1h1.1v3.3l2.2 1.1-2.2 1.1h-1.1v6.6h-2.2l1.1 1.1h1.1v3.3h1.1v4.5l4.4-1.1 5.6-2.2h1.1l6.7 1.1h4.4l3.3-6.7v-2.2l1.1-2.2 1.1-3.3 1.1-2.2v-2.2l3.3-6.7 2.2 1.1h4.5l-2.2-2.2v-1.1l1.1-1.1h-2.2l-1.1-1.1h-1.1l-1.1-1.1h-1.1v-1.1l-1.1-1.1-1.1 1.1h-6.7l-1.1 1.1h-1.1l-1.1 1.1h-1.1v-1.1h-1.1l-1.1-1.1-1.1-1.1-1.1-2.2h-1.1v-1.1h-3.4l-1.1-2.2h-5.5l-2.2 1.1-1.1-1.1v1.1h-1.1v-1.4h1.1v-1.1l-1.1-1.1h-1.1l-1.1 1.1h-2.2v-1.1h1.1v-2.2l-2.2-1.1h-1.1v1.1h-1.1l-1.1-1.1h-1.1v-1.1h2.2l1.1-1.1-3.3-2.2v-1.1l2.2 1.1 1.1 1.1h1.1l1.1-1.1v1.1l1.1 1.1 1.1-1.1v-2.3h1.1l1.1-1.1v-2.2l1.1-1.1 1.1-1.1 1.1-1.1h2.2v-1.1l1.1-1.1v-1.1l2.2-2.2h-2.2l-1.1-1.1v1.1l-2.2-1.1v-3.3l1.1-1.1v-1.3h-1.1l-1.1 1.1-1.1-1.1 2.2-1.1h2.2v-1.1l-1.1-1.1v-2.2l1.1-1.1 1.1 1.1v-1.1l1.1-1.1 1.1-2.2h-1.1v-2.2h-1.1v-1.1l-1.1-1.1v-1.1l-1.1-2.2v-1.1l-2.2-3.3v-1.1l-1.1-1.1v-2.2l-1.1-2.2v-1.1l-1.1-1.1 1.1-1.1-1.1-1.1v-7.1h1.1v-1.1h1.1l1.1-1.1h2.2v1.1l1.1 1.1v-1.1l1.1-1.1h3.3l1.1 1.1 1.1 1.1h1.1l1.1 1.1v1.1h4.4l1.1-1.1 2.2-2.2h3.3v-1.1l1.1-1.1h1.1v-1.1l2.2-1.1v-1.1l1.1-1.1v-3.3l1.1-2.2h3.3l1.1-1.1h1.1l-1.1-1.1h1.1l1.1-1.1 1.1-1.1-1.1-1.1-1.1-1.1v-6.6h-1.1l-1.1-1.1-2.2-1.1h-4.4l-1.1-1.1h-3.3l-1.1 2.2-1.1 1.1v1.1l-1.1-1.1h-3.3l-2.2-2.2-1.1-1.1-1.1-1.1 1.1-2.2h-1.1l-1.1-1.1h-1.1l2.2-16.7-2.2-3.3-3.3-6.7v-1.1l-1.1-1.1-3.3-6.7h-1.2v-2.2l-1.1-1.1h-1.1l-1.1 1.1h-1.1l-1.1-1.1h-1.1l-1.1 1.1h-2.3l-2.2 2.2v1.1l-2.2 3.3h-1.1l-2.2 1.1-1.1 1.1-4.4 2.2-1.1-1.1-3.3-2.2h-1.4l-3.3-2.2-1.1-1.1-1.1-1.1-1.1-2.2v-4.4l1.1-2.2v-1.1h-1.1v1.1h-2.2v-2.2h-5.5zm10 1.1v-1.1h-1.1zm34.5 6.7 1.1 1.1v-2.2h-1.1zm-10.1 135.8v1.1h1.1zm19-24.5v2.2l-1.1 2.2h1.1l1.1-1.1h1.1l1.1-1.1h1.1v-1.1l-2.2 1.1-1.1-1.1zm30 38.9v1.1h1.1zm-89-160.2-2.2 1.1-1.1 1.1h-1.1v1.1h-1.1l-1.1-1.1v-3.3h3.3l3.3-1.1h2.2v1.1zm24.5-16.7-2.2 2.2-1.1 1.1h-3.3l-3.3 4.5v2.2h-2.2l-1.1-1.1-2.2-1.1h-1.1l1.1 1.1 1.1 1.1 1.1 1.1h1.1-2.2v1.1h-3.3 1.1l-1.1 1.1h-1.1l-1.1 1.1h-1.1v-3.3l-1.1-4.5v-3.3l1.1-3.3v-1.1l1.1-3.3 1.1-3.3 1.1-3.3 1.1-1.1 2.2-3.3 2.2-4.5 3.3-3.3v2.2l1.1-1.1 1.1-1.1 1.1-1.1h1.1v1.1-1.1h-1.1v-1.1l-1.1 1.1-2.2 1.1 3.3-6.7 1.1-1.1 2.2-1.1v-1.1h2.2l1.1 1.1 1.1 1.1v2.2h1.1-1.1v1.1l1.1 1.1 1.1 1.1 2.2 3.3v1.1l-1.1 1.1v11.1l-1.1 2.2h-1.1l-1.1 1.1v2.2l-2.2 2.2z" id="path256" style="fill:#fcf799"/>
  <path class="stroke-ffffff-1-5" d="m-13446.678-26162.568-1.1 1.1-2.2 1.1h-1.1l-2.2 3.3h-1.1l-2.2 1.1h-7.7l-2.2 1.1h-1.1l-1.1 1.1v1.1l-1.1 1.1-1.1 1.1-1.1 3.3-1.1 1.1-1.1 2.2-3.3 2.2-2.2 1.1-1.1 1.1-1.1 1.1-4.4 1.1v1.1l-2.2 1.1-1.1 1.1h-1.1l-1.1 1.1-1.1 1.1-8.9 2.2h-2.2l-3.3 1.1h-2.2l-3.3-1.1-1.1-1.1h-1.7l-1.1-1.1h-3.3l-1.1 1.1-2.2 1.1-1.1 1.1v1.1l-1.1 2.2-1.1 1.1-1.1 1.1-1.1 1.1-2.2 1.1h-1.1l-1.1 1.1h-1.1v-1.1h-1.1l-1.1 1.1h-3.3l-1.1 1.1h-2.2l-1.1 2.2h-1.1v-1.1h-2.2l-3.3 1.1-1.1 1.1-1.1 1.1-1.1 2.2v4.4l1.1 1.1 4.4 5.6v2.2l1.1 1.1v1.1l-1.1 2.2-1.1 3.3-1.1 2.2v1.1l2.2 4.5 4.4 12.2 2.2 3.3-2.2 1.1v1.1l1.1 3.3-1.1 3.3v1.1h1.1l1.1 1.1h7.8v1.1l1.1 1.1v3.3l1.1-1.1 3.3 1.1h4.4l1.1-1.1 2.2-1.1h1.1v-2.2l-5.6-7.8-1.1-3.3 1.1-1.1h1.1v-4.4h-1.2l-1.1-1.1 1.1-1.1 7.8-3.3h2.2l1.1-1.1 1.1-1.1h2.2l7.8-1.1 1.1 2.2-2.2 5.6 1.1 6.7 5.6-2.2h3.3l4.4 1.1 2.2 1.1h1.1v-1.1l1.1 1.1 2.2-1.1-1.1-4.5 3.3-1.1h1.1l1.1-3.3 2.2-1.1 1.1-1.1 1.1-2.2 2.2-1.1 1.1-1.1-1.1-1.1h2.2v-1.1l2.2-1.1 1.1 1.1v1.1h2.2l2.2 1.1h1.1v2.2l1.1 1.1 1.1-1.1 1.1 1.1-1.1 2.2v2.2h1.1v1.1h-1.1l-1.1 1.1-1.1 1.1 1.1 4.5v1.1h2.2v1.1h-1.1l-3.3-1.1-1.1-1.1h-1.9v-1.1h-1.1l-2.2 1.1v2.2l1.1 1.1 2.2 1.1h1.1l3.3-1.1h4.4l1.1 1.1h1.1v-1.1h4.4l2.2 2.2v1.1h1.1l1.1 1.1h1.1l4.5-6.7 6.7-4.5v-2.2h1.1v-1.1l-1.1-1.1v-1.1l1.1-1.1v-.4l1.1-1.1 2.2-1.1h1.1l-1.1 1.1 1.1 1.1v1.1h5.5l3.3 10-1.1 2.2-3.3 6.7 6.7 7.8v1.1l1.1 1.1 1.1 1.1v7.8l4.5 1.1 1.1-1.1 3.3-1.1h1.1v-1.1l6.7 4.5-2.2 8.9 1.1 1.1 4.4-1.1 4.5 1.1h5.5l1.1-1.1 1.1-2.2 3.3 1.1 4.5 1.1 2.2 1.1 3.3-3.3 1.1-1.1 3.3-1.1 1.1-1.1 1.1-1.1v-1.1h1.1l4.4 1.1v1.1l1.1 2.2 3.3 2.2 1.1 1.1v6.6l1.1 4.5h1.1l3.3-1.1h1.1l3.3-1.1v-4.5l1.1-5.6 2.2-4.5 1.1-2.2 3.3-3.3 4.4-2.2h1.1l5.6-1.1 2.2-1.1h1.1l1.1-1.1 8.9-2.2 3.3-1.1h1.1l1.1-1.1h1.1l2.2-2.2 3.3-3.3 2.2-1.1-2.2-3.3-2.2-4.5-4.5-7.8v-1.1l-2.2-10-1.1-2.2v-2.2l-1.1-3.3-1.1-10 4.4 1.1 3.3 1.1 2.2 1.1h4.4l2.2-1.1 3.3-1.1 2.2-1.1 2.2-1.1v1.1h1.1l1.1 1.1 2.2 2.2v-1.3h2.2l-1.1-1.1v-4.4l-1.1-2.2-1.1-1.1v-4.5l-1.1-1.1v-1.1l-1.1-1.1-1.1-1.1-1.1-1.1-3.3-1.1v-1.1l-1.1-1.1v-7.9h-1.1v-3.3l-1.1-3.3h-1.1l-1.1-1.1h-2.2l-2.2-1.1h-2.2l-1.1-1.1v-2.2l-1.1-2.2v-2.2h-1.1l-1.1-1.1h-7.7l-3.3 1.1h-4.6l-1.1-1.1v-1.4l-1.1-1.1-1.1-1.1h-2.3l-1.1-1.1h-1.1v-2.2h-1.1l-1.1-1.1h-2.2l-1.1-1.1-1.1-1.1-1.2-1.2v-2.2l-1.1-1.1h-3.3l-1.1-1.1-2.2-1.1h-5.5l-1.1 1.1v1.1l-1.1 1.1h-1.1l-1.1-1.1h-2.2v-1.1l-1.1-1.1h-3.3v1.1l-1.1 2.2-1.1 1.1h-5.9l-1.1-1.1-1.1-1.1v-1.1h-1.1l-1.1 1.1v1.1l-1.1 1.1-1.2 1.1-2.2 3.3v1.1l-1.1 2.2v4.4h-1.1v1.1l-5.6 2.2-2.2 1.1v1.1h-1.1l-2.2-1.1h-2.2l-1.1 1.1-1.1 1.1-1.1-1.1-2.2-1.1-1.1-1.1-1.1 1.1h-10.1l-2.2 1.1-1.1-1.1v-1.1h1.1l1.1-1.1 1.1-1.1-1.1-1.1v-3.2l-3.3-1.1-1.1-1.1-1.1-1.1h-1.1l-1.1 1.1-1.1 1.1h-1.1v-1.1h-1.1v-1.1l-1.1-1.1v-1.1h-1.3l-1.1-1.1-2.2-1.1-1.1-1.1h-1.1v-2.2h-3.3l-1.1-1.1h-3.3l-2.2-1.1h-2.2zm1.1 103.5h-2.2l1.1 1.1zm-1.1-12.3h1.1v1.1l1.1 1.1h1.1v2.2h-1.1l-1.1-1.1h-1.1l1.1-1.1-1.1-1.1zm2.3 0 1.1 1.1h-1.1z" id="path258" style="fill:#c7de79"/>
  <path class="stroke-ffffff-1-5" d="m-13304.278-26150.368-1.1 1.1 1.1 1.1v2.2h-1.1l1.1 1.1h1.1v2.2l1.1 2.2v2.2l1.1 1.1h2.2l2.2 1.1h2.2l1.1 1.1h1.1l1.1 3.3v3.3h1.1v7.7l1.1 1.1v1.1l3.3 1.1 1.1 1.1 1.1 1.1 1.1 1.1v1.1l1.1 1.1v4.4l1.1 1.1 1.1 2.2v4.4l1.1 1.1h-2.2v1.1l-2.2-2.2-1.1-1.1h-1.1v-1.1l-2.2 1.1-2.2 1.1-3.3 1.1-2.2 1.1h-4.4l-2.2-1.1-3.3-1.1-4.4-1.1 1.1 10 1.1 3.3v2.2l1.1 2.2 2.2 10v1.1l4.5 7.8 2.2 4.5 2.2 3.3-2.2 1.1-3.3 3.3-2.2 2.2h-1.1l-1.1 1.1h-1.1l-3.3 1.1-8.9 2.2-1.1 1.1h-1.1l-2.2 1.1-5.6 1.1h-1.1l-4.4 2.2-3.3 3.3-1.1 2.2-2.2 4.5-1.1 5.6v4.5l-3.3 1.1h-1.1l-3.3 1.1 2.2 1.1 8.9 3.3 1.1 1.1v1.1l1.1 2.2 1.1-1.1 1.1 1.1h8.8l1.1-1.1h1.1l1.1 1.1h2.2l1.1 1.1v1.1h1.1l-1.1 1.1h-1.1v1.1h1.1v3.3h1.1v-1.1h2.2v-1.1h2.2v-1.1l2.2-1.1v1.1h1.1v2.2l3.3 2.2-1.1 1.1-1.1 1.1v1.1l-2.2 1.1h-1.1v1.1l-1.1 1.1-1.1 1.1 1.1 1.1h2.2l1.1 1.1v1.1l-1.1 1.1v1.1h-1.1l-1.1-1.1h-2.2v2.2l1.1 1.1v1.1h-1.1v1.1l1.1 2.2h-1.1v1.1h-1.1l-2.2-1.1-1.1 3.3v2.2l-1.1 1.1v1.1h1.1l1.1 1.1v1.1l-1.1 2.2v3.3l-1.1 1.1-1.1 1.1-1.1 2.2h-1.1l-1.1 2.2-1.1 2.2v1.1h2.2l1.1-1.1h1.1l1.1 1.1v1.1l-2.2 1.1v2.2l-2.2 2.2v1.1l-1.1 1.1 1.1 1.1-1.1 1.1h-3.5l-1.1 1.1v2.2l-2.2 2.2v1.1h-1.1l-1.1 1.1h-1.1v1.1h-2.3l1.1 1.1-1.1 1.1v6.6h1.1v2.2h1.1v1.1l1.1 1.1h2.2v1.1h2.2l1.1 1.1v1.1l-1.1 1.1 1.1 3.3v2.2l-2.2 3.3v1.1h2.2l1.1-1.1h1.1l1.1-1.1v1.1l1.1 1.1h1.1l1.1-1.1v-1.1l1.1-1.1 2.2-3.3h2.2v2.2l1.1 2.2 1.1-1.1 2.2 3.3h1.1l1.1-1.1 1.1 1.1 1.1-1.1 1.1-1.1v3.3l1.1-1.1 1.1-1.1v-1.1h2.2l2.2-1.1v3.3l2.2 1.1v-1.1h2.2v1.1l2.2-1.1 1.1-1.1h4.4l1.1 1.1 2.2 1.1h1.1v-1.1h3.3v-2.2l1.1-2.2-3.3-2.2h-1.1l-1.1-1.1v-1.1h-1.1l-1.1-1.1v-2.2l1.1-1.1 1.1 1.1 2.2 1.1 1.1-2.2 1.1-1.1v.9h1.1l-1.1-1.1v-1.1l-1.1-1.1v-2.2l1.1-1.1h2.2l1.1-1.1h1.1v-1.1h1.1v1.1l2.2 1.1v-3.3h1.1v-1.1l1.1-1.1v-2.2l-1.1-1.1v1.1l-1.1-2.2v-2.5l1.1-1.1v-1.1l1.1-1.1v-1.1l-1.1-1.1h-4.4v-2.2l-1.1 1.1-1.1-1.1-3.3-1.1v-3.3l-2.2-1.1 1.1-1.1h1.1v-1.1l1.1-4.5h-6.6l-1.1 1.1h-1.1l-1.1-1.1v-1.1h-1.1l-2.2 1.1h-1.1l-1.1 1.1h-1.1l-1.1 1.1h-1.1l-1.1-1.1 2.2-2.2v-3.3h-1.1l-1.1-1.1v-1.1h-1.1v-1.1h-1.1v-5.7l-1.1-1.1-1.1-2.2h4.4v-1.1l2.2-1.1 1.1-1.1v1.1l2.2 3.3 1.1 2.2v1.1l1.1-1.1h1.1v1.1h1.1v-1.1l1.1-1.1v-1.1l1.1-1.1v-2.2l1.1-1.1v-1.1l1.1-1.1v-1.1l1.1-1.1 2.2-1.1 1.1-1.1 2.2-1.1h1.1l1.1-1.1 1.1-1.1v-1.1l1.1-1.1h2.2l1.1-1.1v-2.2l1.1-1.1h2.2l1.1-1.1h1.1v-1.1h2.2l1.1-1.1h3.3l-1.1-1.1h1.1l1.1-1.1-4.4-3.3h-1.1l6.7-3.3-2.2-2.2-6.7 3.3-1.1 1.1-1.1 1.1h-4.4v-1.1l-1.1-1.1v-7.8l-1.1-1.1 1.1-1.1h2.2l-2.2-4.5 2.2-1.1 1.1-2.2 4.4-4.5v-1.1l1.1-1.1 2.2-3.3 1.1-2.2v-1.6l1.1-1.1v-2.2l1.1-1.1v-1.1h3.3v-1.1l5.6-5.6-1.1-3.3-1.1-2.2v-1.1l1.1-1.1 1.1-1.1h-3.3v-1.1l1.1-6.7v-3.3h1.1l-1.1-2.2 1.1-1.1v-3.3l-1.1-2.2-1.1-2.2 1.1-2.2-1.1-1.1v-3.7l-1.1-2.2-2.2-1.1-2.2-1.1-2.2-6.7-2.2-1.1-1.1-1.1-1.1-1.1-1.1-2.2v-1.1h-.5l-3.3-2.2v-4.4h1.1v-1.1l1.1-3.3v-1.1l1.1-1.1v-1.1l-2.2-1.1h-2.2v-1.1h-2.2l-5.6-2.2-1.1-1.1v-2.5l1.1-1.1-1.1-1.1v-3.3h2.2v-1.1h-1.1v-2.2h-1.1l-3.3-2.2-1.1-1.1h-6.7v-1.1l-1.1 1.1h-1.1l-1.1-1.1v-1.1h-1.1l-1.1-1.1v-1.1l-1.1-1.1v-1.1l-1.1-1.1-1.1-1.1h-1.1z" id="path260" style="fill:#aed6be"/>
  <path class="stroke-ffffff-1-5" d="m-13339.878-26349.568-1.1 1.1-7.8 2.2h-1.1l-1.1 1.1-8.9 7.8v1.1h-6.7v1.1l-1.1 3.3v-1.1l-1.1 2.2v4.4l-2.2 1.1h-1.1l-1.1 1.1-1.1 2.2h-2.3v1.1l-18.9 12.2-3.3 2.2v1.1h-1.1v1.1h-1.8l-7.1 4.5-1.1 1.1-4.5 3.3h-1.1v1.1l2.2 2.2v5.5l-1.1 1.1h1.1l1.1 2.2h-1.1l1.1 1.1 1.1-1.1h1.1l4.5-1.1h2.2l1.1 1.1h4.4l3.3 1.1 2.2 2.2 3.3 1.1 2.2 2.2 10 8.9 1.1 2.2h1.1l2.2 1.1 2.2-1.1 5.6-2.2h3.3l1.1-1.1 3.3-1.1h1.1l1.1-4.5 1.1-1.1v-3.3h1.1v-5.5h-1.1v-.7l-1.1-2.2 1.1-1.1 3.3-3.3 2.2 1.1 3.3-1.1h1.1l1.1-1.1h-1.1l1.1-1.1 1.1-1.1 1.1-1.1 3.3-3.3 8.9-4.5h2.2l1.1 1.1h1.1l4.4-3.3 1.1-2.2 2.2-2.2 1.1-2.2 1.1-1.1 1.1-2.2 3.3-6.7 1.1-2.2v-8.9l-1.1-2.2-5.6-5.6v-1.1h-7.8l-4.4-1.1-10-3.3h-.3l-1.1-2.2zm-61.8 45.6 1.8-1.1-2.2 1.1zm74.1-102.4 1.1 2.2-2.2-1.1v1.1h-1.1l-5.6 1.1h-1.1v1.1l-3.3 5.6-5.6 8.9v1.1l-1.1 3.3v21.1h1.1l1.1 1.1 1.1 1.1 2.2 3.3 3.3 4.5 1.1 1.1h26.6l8.9-2.2 1.1 1.1 1.1 1.1 2.2-1.1h1.1l2.2-1.1v-1l3.3-1.1h1.1l3.3-2.2 1.1-1.1-1.1-2.2h-1.9l-1.1-1.1-1.1-1.1-2.2-1.1h-1.1l-2.2-1.1v1.1h-1.1v-2.2l1.1-1.1 1.1-1.1 2.2-1.1v-2.2l-1.1-1.1v-1.3l-1.1-1.1h-1.1v-1.1l-2.2-4.5-1.1-3.3-2.2-2.2h-1.1l-1.1-1.1-1.1-2.2-3.3-1.1-1.1-1.1h-4.4v-1.1l-1.1-1.1-1.1-1.1-1.1-2.2-1.1 1.1v-1.1l-1.1-2.2-4.4-5.6h-1.1z" id="path262" style="fill:#a29c85"/>
  <path class="zeeland stroke-ffffff-1-5" d="M-13565.678-26122.568v1.1l-2.2 2.2h-1.1l1.1 2.2h1.1l1.1 2.2 1.1 2.2h6.6v-1.1h1.1v2.2l-1.1 1.1h-5.5l-1.1 1.1h-1.1l-2.2-2.2-4.4-1.1h-1.1l-2.2 1.1-1.1 1.1h-1.1l-2.2 1.1-1.1 1.1-1.1-1.1-2.4 1.3-1.1 1.1v2.2h1.1v1.1h2.2l1.1 1.1 1.1 1.1h1.1v2.2l1.1 1.1h1.1l1.1 1.1 1.1 1.1v2.2l1.1 1.1h1.1v1.1h8.8l1.1 1.1h1.1v-1.1l2.2 1.1 2.2 1.1-1.1 1.1v2.2h1.1l4.4 2.2 1.1 1.1v7.8l1.1 4.5h-3.3l-1.1-1.1h-3.3l-1.1 1.1h-1.1l-1.1 1.1h-3.1v-1.1h-1.1l-3.3-2.2h-1.1l-1.1-3.3h-1.1l-2.2-3.3v-1.1l-1.1-1.1 1.1-1.1-1.1-1.1v-2.2h-1.1l-1.1-1.1-2.2-2.2-1.1-1.1h-2.2l-1.1-1.1h-1.1l-2.2-1.1h-1.1l-1.1-1.1-1.1 1.1h-1.1v1.1l-2.2-3.3h1.1l-1.1-1.1v-1.1h-3.3l-1.1 1.1h-8.1v-1.1l-1.1-1.1h-2.2l-2.2 1.1h-1.1l-1.1 1.1-3.3-1.1h-1.1l-1.1-1.1-1.1 1.1-2.2 1.1v1.1l-1.1 1.1v1.1l-1.1 1.1h-1.1l-1.1 1.1h2.2l-2.2 1.1v-1.1l-2.2-2.2-1.1-1.1v-1.1l-1.1-3.3v-1.1h-1.5l-1.1-1.1-2.2-1.1-1.1-1.1-1.1-1.1v-3.3l1.1-1.1h-2.2l-1.1-1.1h-7.7v1.1h-2.2l-1.1 1.1-2.2 1.1-1.1 1.1-2.2 1.1h-1.1l-1.1 1.1-1.1 1.1-2.2 1.1-1.1 1.1h-1.1l-1.1 1.1-1.1 1.1v3.3l1.1 2.2h1.1l1.1 1.1 1.1 1.1 2.2 1.1v1.1h1.1l1.1 1.1 1.1 1.1v1.1l1.1 1.1v1.1l1.1 1.1v1.1l1.1 1.1 1.1 1.1 2.2 1.1v1.1h1.1l1.1 1.1v1.1h4.4v-3.3h1v2.2l1.1 1.1h3.3l1.1-1.1v-1.1h4.5l-2.2-1.1 1.1-1.1 2.2-1.1h1.1v1.1l3.3-2.2v-2.2l1.1 1.1v1.1h1.1l-1.1 1.1v2.2h1.1l-1.1 1.1 1.1 1.1v1.1l-1.1-1.1-1.1 1.1h-1.1l1.1 1.1 1.1 1.1v1.1h1.1v3.3h1.1l1.1 1.1h1.1v-1.1h1.1l2.2 1.1h1.1v1.1l2.2 1.1v1.1h1.4l2.2 2.2h3.3l2.2-1.1h1.1l1.1-1.1h3.3l1.1 1.1 1.1-1.1 1.1-4.5h1.1v-2.2h1.1v-6.6l2.2 1.1 2.2-1.1h1.1l2.2-2.2 1.1 1.1 1.1 1.1 1.1 1.1v1.1h1.1v1.1h2.2l1.1 1.1 1.1 1.1h2.2v3.3l2.2 1.1h1.1l1.1 1.1h1.1l2.2 1.1 2.2 1.1h2.2l1.1 1.1h2.2l3.3-1.1 2.2-1.1h2.2v1.1h2.2l2.2 1.1 1.1 3.3v2.2h3.3l2.2-1.1-1.1-1.1h-.4v-1.1l1.1-3.3-1.1-3.3v-1.1l2.2-1.1-2.2-3.3-4.4-12.2-2.2-4.5v-.8l1.1-2.2 1.1-3.3 1.1-2.2v-1.1l-1.1-1.1v-2.2l-4.4-5.6-1.1-1.1v-4.5l1.1-2.2 1.1-1.1 1.1-1.1 3.3-1.1h-1.1l-2.2-1.1h-4.5l-2.2-1.1-3.3-2.2h-1.1zm-63.4 50.1 1.1-2.2-1.1 1.1zm70.1 18.9v1.1h1.1v1.1h-1.1v1.1h1.1-2.2l-1.1-1.1v-2.2h1.1zm-34.5 0h1.1l1.1-1.1v1.1zm31.1 3.4v2.2h-2.2v-1.1h-1.1 2.2l-1.1-1.1h1.1-1.1l-1.1 1.1v-1.1h1.1-1.1l1.1-1.1h-2.2v-1.1 1.1h-1.1v-1.1h3.3l1.1 1.1z" id="path264"/>
  <path class="zeeland stroke-ffffff-1-5" d="M-13659.078-26064.668v1.1h-2.2l-2.2 1.1h-2.2l-1.1 1.1h-5.5v1.1h-1.3l-1.1 1.1h-2.2l-1.1 1.1h-1.1v1.1l1.1 1.1v4.4l1.1 1.1v2.2l-3.3 3.3-1.1 1.1 1.1 1.1 2.2 2.2h-2.2v1.1l1.1 1.1 1.1 1.1v1.1l-1.1 1.1 1.1 1.1h1.1l1.1 2.2h1.1l1.1 2.6 1.1-1.1 1.1 1.1v2.2h1.1l1.1 1.1h4.4l8.9-1.1-1.1-7.8-1.1-1.1 2.2-1.1 1.1 1.1h1.2v-1.1h2.2v-1.1h1.1l1.1 1.1 1.1 1.1 1.1-1.1-1.1-2.2 2.2-1.1 1.1 1.1 2.2 1.1 1.1 1.1 2.2 1.1h1.1v-1.1h2.2l2.2 2.2h1.1l1.1 1.1v1.1h3.3l1.1 1.1v-1.1l4.4 1.1h1.1l1.1 2.2h1.1v-1.1l1.1 1.1 1.1 1.1h1.1v1.1l-1.1 1.1v7.7l1.1 1.1h1.6v-1.1l1.1 1.1h7.7l2.2-2.2h2.2v2.2h-1.1l-1.1 1.1 1.1 1.1h2.2l2.2-1.1h1.1l-1.1-2.2 2.2-1.1 1.1 2.2h1.1v-1.1h2.2l1.1-1.1v-1.1h2.2l1.1-2.2h1.1l1.1-1.1 2.2-1.1h1.1v1.1h1.1l1.1-1.1v1.1h2.2l1.1-1.1h1.1l1.1-1.1 2.2-2.2 2.2-1.1 2.2-1.1 5.6-4.5 1.1-1.1 11.1-13.4h-1.1v-1.1h-1.1v-2.2l-1.1 1.1v-2.2l-1.1-1.1h-1.8l1.1-1.1h-2.2v1.1l-1.1 1.1v1.1l1.1 1.1h1.1v2.2l-1.1-1.1-1.1 1.1h1.1l-1.1 1.1h1.1v1.1l-1.1-1.1h-2.2l1.1 1.1v1.1l-1.1-2.2-1.1-1.1h-1.1l1.1 1.1 1.1 1.1h-1.1v-1.1h-3.4v1.1h1.1v1.1h-1.1l-2.2-4.5h-1.1l-3.3-2.2v-1.1h-1.1v1.1l-4.4-1.1-1.1-1.1v-1.1l-1.1-1.1v-1.1l-1.1-1.1 1.1-1.1h-1.1l-1.1-1.1v-1.1h-3.5l-1.1-1.1h-2.2l-1.1 2.2v1.1h-1.1v5.5l-1.1 1.1h-2.2l-3.3 1.1-2.2 1.1-1.1 1.1h-1.1v1.1h-2.2v1.1l-1.1 1.1h-4.4l-1.1-1.1h-1.1v1.1l-1.1-1.1v2.2l-1.1-2.2v-.8h-2.5v-1.1h-3.3v3.3l-2.2-1.1v-1.1l1.1-1.1h-6.6v-1.1l-1.1-1.1-1.1-1.1h-1.1v-1.1l-1.1-1.1h-3.3l-2.2-1.1h-1.1l-3.3-1.1h-1.1v-1.2h-1.5l-2.2-1.1h-1.1l-1.1-1.1-1.1-1.1h-1.1l-1.1-1.1h-1.1v-1.1h-4.4zm101.2 15.6-1.1-1.1-1.1 1.1zm-1.1-1.1h3.3l-1.1-1.1h-2.2zm2.2-3.4 1.1 1.1h-1.1zm2.2 0h1.1l-1.1 1.1zm-7.8 7.8h1.1v1.1h-1.1zm-67.8-51.2-1.1-1.1v-1.1h1.1l1.1 1.1v1.1l-1.1 1.1zm5.5-25.6-1.1 1.1v3.3l1.1 1.1 1.1-1.1-1.1-1.1 1.1 1.1-1.1 1.1-2.2-1.1v2.2l-1.1-1.1-1.1 1.1h1.1v1.1h-1.1v-1.1l-1.1 1.1v3.3h-1.1l1.1-2.2v-1.1l-1.1-1.1h-1.1 1.1l1.1-2.2 2.2-1.1v-2.2 1.1h2.2v-1.1zm-3.3 51.2-3.3-2.2-1.1-1.1 1.1-2.2 1.1 1.1 2.2 1.1-1.1 1.1v1.1zm1.1-4.4h-1.1l-2.2-1.1 2.2-1.1h1.1zm31.2-66.8v-1.1h1.1l2.2 1.1h-1.1zm41.1 24.5v-1.1l-1.1-1.1-1.1-1.1v1.1h-1.1l-2.2-2.2 1.1-1.1h-1.1v1.1h-2.2v-1.1h6.6-2.2v1.1h2.2v1.1l1.1 1.1v1.1zm-34.5-26.7-1.1 1.1h-2.2v-1.1h4.4z" id="path266"/>
  <path class="zeeland stroke-ffffff-1-5" d="m-13592.378-26118.068-1.1 1.1h-2.2l-2.2-1.1h-1.1l2.2-1.1v-1.1 1.1l-2.2 1.1h-1.1l1.1-2.2-1.1-1.1v-2.2h-1.1v-2.2l-1.1-2.2-2.2-1.1-1.1 1.1v-1.1l-3.3-1.1v-2.2l-1.1-1.1h-3.3l-1.1 1.1v1.1h1.1l1.1-1.1 1.1 1.1-1.1-1.1-1.1 1.1h-2.2l-1.1 2.2-2.2 1.1h-2.2l-2.2 1.1-1.1 1.1v2.2h1.1v1.1h-1.1l-1.1-1.1h1.1v-2.2l-1.1-1.1h-2.2v-1.2l-1.1-1.1-1.1-2.2v-5.5l1.1-2.2 2.2-2.2 2.2-1.1h2.2l4.4-1.1 1.1-1.1h4.2l3.3 1.1v-2.2l1.1-1.1v-1.1h2.2l-1.1 1.1h1.1l-1.1 1.1v-1.4h-1.1v1.1l-1.1 2.2h7.8l2.2-1.1 1.1 1.1 1.1 1.1v1.1h3.3l2.2-1.1 1.1 1.1h3.3v1.1-1.1l1.1 1.1v2.2l1.1 1.1 2.2 2.2 1.1 2.2v2.2h4.4l2.2 1.1 3.3 2.2h1.1v1.1h1.1l2.2-2.2h5.5l1.1-1.1h1.1v3.3h1.1l-1.1 1.1h-1.1l1.1-1.1-1.1-1.1v-.8h-1.1v1.1l-1.1-1.1-3.3 1.1h-1.1l-1.1 1.1h-1.1v1.1l1.1 1.1v1.1l-1.1 1.1h1.1v-1.1l-1.1 1.1v1.1h-1.1l-1.1 1.1-1.1 2.2h-1.1l-1.1 1.1-1.1-1.1-2.2 1.1-1.1 1.1h-2.2v1.1h-7.5l-2.2-2.2zm-11.1 22.2v-1.1h-1.1 1.1z" id="path268"/>
  <path class="zeeland stroke-ffffff-1-5" d="M-13606.878-26111.368h1.1v1.1h2.3l1.1 1.1v1.1l1.1 2.2 1.1 1.1v1.1h1.1v3.3l-1.1 1.1h-2.2l-1.1 2.2h-2.2l-1.1-1.1-1.1-1.1h-3.3v1.1h-4.4l-1.1-1.1h-2.2l-4.4 1.1-1.1 1.1-1.1 2.2h-1.1l-1.1 2.2v-1.1l-1.1-1.1 1.1-1.1v-2.1l-2.2-2.2h1.1v-1.1l1.1-1.1-1.1 1.1-1.1 1.1-1.1-1.1-1.1-1.1h-1.5l-1.1-1.1h-1.1v-2.2h-1.1v-2.3h1.1-2.2l3.3-1.1 3.3-1.1v-1.1h1.1v1.1h2.2l1.1 1.1h1.1l1.1 1.1h1.1l1.1-1.1h1.1l2.2-1.1 2.2 1.1 1.1-1.1 2.2-1.1h2.2l1.1 1.1 2.2-1.1z" id="path270"/>
  <path class="stroke-ffffff-1-5" d="m-13181.878-26557.668-2.2 1.1-8.9 1.1-1.1 1.1-3.3 1.1h-1.2l-1.1 1.1h-2.2l-2.2 2.2h-3.3l-2.2 1.1-2.2 1.1-1.1-1.1-1.1 1.1h-5.6l-3.3 1.1-4.4 1.1h-2.2l-2.2 1.1h-2.2l-3.3 1.1-3.3 1.1-1.1 1.1v1.1l-2.2 1.1-1.1-1.1-1.1-1.1-5.6-3.3h-1.1l-4.4 2.2v-1.1h-1.1v1.3h-1.1v-1.1l-1.1 1.1 1.1 1.1h1.1l1.1 1.1h1.1l1.1 1.1h1.1v1.1h-3.3v-1.1l-2.2-1.1v-1.1h-2.2l-1.1 2.2h1.1l1.1 1.1h1.1v1.1l-1.1 1.1-1.1-1.1v1.1l1.1 1.1h5.5v1.1h-3.3v1.2h3.3l1.1-1.1v2.2h-1.1l1.1 1.1 1.1-1.1h1.1v1.1l-1.1 1.1h-2.2v1.1l1.1 1.1 1.1-1.1h3.3l1.1 1.1h1.1v7.8h1.1v1.1h-1.1l-1.1 1.1v1.1l-1.1 1.1h-1.1l-1.1 1.1v3.4h1.1l-1.1 1.1h-1.1v1.1l-1.1 1.1v2.2l-1.1 1.1-1.1 1.1-1.1 1.1v1.1h2.2v4.4l-1.1 2.2-1.1 1.1h-1.1l-1.1 1.1v1.1l-1.1 2.2-1.1 1.1v10l1.1 1.1 1.1 1.1 1.1 2.2h8.8l1.1 1.1 2.2 1.1 1.1 1.1v1.1l3.3 1.1 3.3 1.1h1.1l1.1-4.5h1.1v-3.9l2.2-5.6v-1.1l1.1-1.1 1.1-2.2 1.1-1.1v-1.1l1.1-1.1 2.2-1.1 2.2-1.1v-1.1l1.1-1.1 2.2-1.1h3.3l1.1 1.1 1.1-1.1 1.1 1.1h2.2l1.1 3.3 1.1 1.1 1.1-1.1 1.1 3.3v1.1l1.1 1.1 2.2-1.1v2.2l1.1 1.1v1.1h2.2v1.1l1.1 1.1 1.1 1.1 1.1 1.1v1.1h1.1l-1.1 1.1 1.1 1.1v1.1l5.6-2.2h1.1l2.2-1.1h5.5l1.1 1.1h1.1v1.1l4.4 3.3 1.1 2.2 4.5 3.3v1.1l3.3 3.3 3.3 3.3 5.6 5.6 1.1 1.1 2.2 2.2 2.2 2.2 1.1 1.1v1.1l1.1 1.1 1.1 1.1 1.1 2.2 1.1 2.2h1.1v1.1h1.1l2.2 3.3 1.1 2.2 1.1 1.1 1.1 1.1h2.2v2.2l-1.1 1.1-2.2 6.7v1.1h3.3v1.1h1.1l2.2 3.3 1.1 1.1 1.1-1.1v1.1h-1.1v2.2h3.3l-1.1-2.2v-1.1l2.2-3.3 6.7-11.1 4.5-7.8 2.2-8.9 1.1-5.6 1.1-1.1v-1.1l-2.2-10v-14.5l-3.3-2.2v-4.4l1.1-1.1v-3.3l1.1-3.3h1.1l1.1-1.1h2.2l-2.2-1.1-1.1-1.1 1.1-1.1v-5.6l-1.1-3.3v-1.1h-1.1l-3.3-1.1h-.5v-1.1h-4.4v-1.1h-4.4l-1.1-1.1h-1.1l-1.1-1.1-1.1-1.1v-3.3l1.1-1.1-1.1-2.2v-1.1h1.1l1.1-2.2v-1.1l-2.2 1.1-1.1 1.1h-6.8l-2.2-1.1v-1.1h-2.2l-2.2-1.1-2.2-1.1v1.2l-2.2-1.1-2.2-1.1h-1.1v-1.1h1.1l-1.1-1.1-2.2-2.2h-1.1l-1.1-1.1v-5.5l-1.1-1.1v-4.4l-1.1-2.2h-1.1v-3.3l1.1-3.3v-1.1l-3.3-3.3-2.2-1.1-1.1 2.2 1.1 1.1h-3.3v-1.1l1.1 1.1v-1.1l1.1-2.2h-1.1l-2.2-1.1-2.2 2.2-1.1-1.1-2.2-1.1h-3.3zm27.8 32.3 1.1 1.1v-1.1zm40.1 22.2v-2.2l-1.1 1.1z" id="path272" style="fill:#cbc5fc"/>
  <text xml:space="preserve" class="prevent-select" style="font-weight:900;line-height:0%;font-family:Arial;-inkscape-font-specification:&quot;Arial Heavy&quot;;fill:#000;fill-opacity:.018018;fill-rule:evenodd" x="-13325.643" y="-26466.941" id="text276"><tspan x="-13325.643" y="-26466.941" style="font-size:21.3333px;line-height:1.25" id="tspan274"> </tspan></text>
  <text xml:space="preserve" class="prevent-select" style="font-weight:900;line-height:0%;font-family:Arial;-inkscape-font-specification:&quot;Arial Heavy&quot;;fill:#000;fill-opacity:.018018;fill-rule:evenodd;stroke:#000;stroke-width:.531085" x="-13338.398" y="-26459.232" id="text280"><tspan x="-13338.398" y="-26459.232" style="font-size:11.3298px;line-height:1.25;fill:#000;fill-opacity:1;stroke:#000;stroke-width:.531085;stroke-opacity:0" id="tspan278">Friesland</tspan></text>
  <text xml:space="preserve" class="prevent-select" style="font-weight:900;line-height:0%;font-family:Arial;-inkscape-font-specification:&quot;Arial Heavy&quot;;fill:#000;fill-opacity:1;fill-rule:evenodd;stroke:#000;stroke-width:.559051;stroke-opacity:0" x="-13217.736" y="-26412.461" id="text284"><tspan x="-13217.736" y="-26412.461" style="font-size:11.9264px;line-height:1.25;stroke-width:.559051" id="tspan282">Drenthe</tspan></text>
  <text xml:space="preserve" class="prevent-select" style="font-weight:900;line-height:0%;font-family:Arial;-inkscape-font-specification:&quot;Arial Heavy&quot;;fill:#000;fill-opacity:1;fill-rule:evenodd;stroke:#000;stroke-width:.504477;stroke-opacity:0" x="-13203.274" y="-26504.572" id="text288"><tspan x="-13203.274" y="-26504.572" style="font-size:10.7622px;line-height:1.25;stroke-width:.504477" id="tspan286">Groningen</tspan></text>
  <text xml:space="preserve" class="prevent-select" style="font-weight:900;line-height:0%;font-family:Arial;-inkscape-font-specification:&quot;Arial Heavy&quot;;fill:#000;fill-opacity:1;fill-rule:evenodd;stroke:#000;stroke-width:.675221;stroke-opacity:0" x="-13239.344" y="-26293.172" id="text292"><tspan x="-13239.344" y="-26293.172" style="font-size:14.4047px;line-height:1.25;stroke-width:.675221" id="tspan290">Overijssel</tspan></text>
  <text xml:space="preserve" class="prevent-select" style="font-weight:900;line-height:0%;font-family:Arial;-inkscape-font-specification:&quot;Arial Heavy&quot;;fill:#000;fill-opacity:1;fill-rule:evenodd;stroke:#000;stroke-width:.636914;stroke-opacity:0" x="-13305.275" y="-26215.639" id="text296"><tspan x="-13305.275" y="-26215.639" style="font-size:13.5875px;line-height:1.25;stroke-width:.636914" id="tspan294">Gelderland</tspan></text>
  <text xml:space="preserve" class="prevent-select" style="font-weight:900;line-height:0%;font-family:Arial;-inkscape-font-specification:&quot;Arial Heavy&quot;;fill:#000;fill-opacity:1;fill-rule:evenodd;stroke:#000;stroke-width:.648136;stroke-opacity:0" x="-13455.559" y="-26103.191" id="text300"><tspan x="-13455.559" y="-26103.191" style="font-size:13.8269px;line-height:1.25;stroke-width:.648136" id="tspan298">Nordbrabant</tspan></text>
  <text xml:space="preserve" class="prevent-select" style="font-weight:900;line-height:0%;font-family:Arial;-inkscape-font-specification:&quot;Arial Heavy&quot;;fill:#000;fill-opacity:1;fill-rule:evenodd;stroke:#000;stroke-width:.615219;stroke-opacity:0" x="-13330.687" y="-26023.564" id="text304"><tspan x="-13330.687" y="-26023.564" style="font-size:13.1246px;line-height:1.25;stroke-width:.615219" id="tspan302">Limburg</tspan></text>
  <text xml:space="preserve" class="prevent-select" style="font-weight:900;line-height:0%;font-family:Arial;-inkscape-font-specification:&quot;Arial Heavy&quot;;fill:#000;fill-opacity:1;fill-rule:evenodd;stroke:#000;stroke-width:.718104;stroke-opacity:0" x="-13654.814" y="-26076.793" id="text308"><tspan x="-13654.814" y="-26076.793" style="font-size:15.3195px;line-height:1.25;stroke-width:.718104" id="tspan306">Zeeland</tspan></text>
  <text xml:space="preserve" class="prevent-select" style="font-weight:900;line-height:0%;font-family:Arial;-inkscape-font-specification:&quot;Arial Heavy&quot;;fill:#000;fill-opacity:1;fill-rule:evenodd;stroke:#000;stroke-width:.553163;stroke-opacity:0" x="-13521.817" y="-26199.418" id="text314"><tspan x="-13521.817" y="-26199.418" style="font-size:11.8008px;line-height:1.25;stroke-width:.553163" id="tspan310">Süd-</tspan><tspan x="-13521.817" y="-26184.668" style="font-size:11.8008px;line-height:1.25;stroke-width:.553163" id="tspan312">Holland</tspan></text>
  <text xml:space="preserve" class="prevent-select" style="font-weight:900;line-height:0%;font-family:Arial;-inkscape-font-specification:&quot;Arial Heavy&quot;;fill:#000;fill-opacity:1;fill-rule:evenodd;stroke:#000;stroke-width:.544727;stroke-opacity:0" x="-13475.783" y="-26338.344" id="text320"><tspan x="-13475.783" y="-26338.344" style="font-size:11.6208px;line-height:1.25;stroke-width:.544727" id="tspan316">Nord-</tspan><tspan x="-13475.783" y="-26323.816" style="font-size:11.6208px;line-height:1.25;stroke-width:.544727" id="tspan318">Holland</tspan></text>
  <text xml:space="preserve" class="prevent-select" style="font-weight:900;line-height:0%;font-family:Arial;-inkscape-font-specification:&quot;Arial Heavy&quot;;fill:#000;fill-opacity:1;fill-rule:evenodd;stroke:#000;stroke-width:.523262;stroke-opacity:0" x="-13375.287" y="-26312.408" id="text324"><tspan x="-13375.287" y="-26312.408" style="font-size:11.1629px;line-height:1.25;stroke-width:.523262" id="tspan322">Flevoland</tspan></text>
  <text xml:space="preserve" class="prevent-select" style="font-weight:900;line-height:0%;font-family:Arial;-inkscape-font-specification:&quot;Arial Heavy&quot;;display:inline;fill:#000;fill-opacity:1;fill-rule:evenodd;stroke:#000;stroke-width:.560331;stroke-opacity:0" x="-13428.232" y="-26220.373" id="text328"><tspan x="-13428.232" y="-26220.373" style="font-size:11.9537px;line-height:1.25;stroke-width:.560331" id="tspan326">Utrecht</tspan></text>
  <text xml:space="preserve" style="font-weight:900;font-size:21.3333px;font-family:Arial;-inkscape-font-specification:&quot;Arial Heavy&quot;;fill:#000;fill-opacity:1;fill-rule:nonzero;stroke:#f19797;stroke-opacity:0" x="-13510.943" y="-26009.496" id="text332"><tspan x="-13510.943" y="-26009.496" id="tspan330">Belgien</tspan></text>
  <text xml:space="preserve" style="font-weight:900;font-size:21.3333px;font-family:Arial;-inkscape-font-specification:&quot;Arial Heavy&quot;;fill:#000;fill-opacity:1;fill-rule:nonzero;stroke:#f19797;stroke-opacity:0" x="20019.35" y="-21214.344" transform="rotate(-70.27)" id="text336"><tspan x="20019.35" y="-21214.344" id="tspan334">Deutschland</tspan></text>
  <text xml:space="preserve" style="font-weight:900;font-size:21.3333px;font-family:Arial;-inkscape-font-specification:&quot;Arial Heavy&quot;;fill:#005cac;fill-opacity:1;fill-rule:nonzero;stroke:#f19797;stroke-opacity:0" x="-13626.912" y="-26302.676" id="text340"><tspan x="-13626.912" y="-26302.676" id="tspan338">Nordsee</tspan></text>
</svg>