<svg x="0" y="0" xml:space="preserve" width="275.2" height="145.7" version="1.1" id="svg868" xmlns="http://www.w3.org/2000/svg">
    <path id="path677" class="stroke-ffffff-1-5" d="m107.4 0-1.1 1.1-2.2 1.1H103l-2.2 3.3h-1.1l-2.2 1.1h-7.7l-2.2 1.1h-1.1l-1.1 1.1v1.1L84.3 11l-1.1 1.1-1.1 3.3-1.1 1.1-1.1 2.2-3.3 2.2-2.2 1.1-1.1 1.1-1.1 1.1-4.4 1.1v1.1l-2.2 1.1-1.1 1.1h-1.1l-1.1 1.1-1.1 1.1-8.9 2.2h-2.2l-3.3 1.1h-2.2L41.3 33l-1.1-1.1h-1.7l-1.1-1.1h-3.3L33 31.9 30.8 33l-1.1 1.1v1.1l-1.1 2.2-1.1 1.1-1.1 1.1-1.1 1.1-2.2 1.1H22l-1.1 1.1h-1.1v-1.1h-1.1l-1.1 1.1h-3.3L13.2 44H11l-1.1 2.2H8.8v-1.1H6.6l-3.3 1.1-1.1 1.1-1.1 1.1L0 50.6V55l1.1 1.1 4.4 5.6v2.2L6.6 65v1.1l-1.1 2.2-1.1 3.3-1.1 2.2v1.1l2.2 4.5 4.4 12.2 2.2 3.3L9.9 96v1.1l1.1 3.3-1.1 3.3v1.1H11l1.1 1.1h7.8v1.1l1.1 1.1v3.3l1.1-1.1 3.3 1.1h4.4l1.1-1.1 2.2-1.1h1.1V107l-5.6-7.8-1.1-3.3 1.1-1.1h1.1v-4.4h-1.2l-1.1-1.1 1.1-1.1 7.8-3.3h2.2l1.1-1.1 1.1-1.1h2.2l7.8-1.1 1.1 2.2-2.2 5.6 1.1 6.7 5.6-2.2h3.3L64 95l2.2 1.1h1.1V95l1.1 1.1 2.2-1.1-1.1-4.5 3.3-1.1h1.1l1.1-3.3 2.2-1.1 1.1-1.1 1.1-2.2 2.2-1.1 1.1-1.1-1.1-1.1h2.2v-1.1l2.2-1.1 1.1 1.1v1.1h2.2l2.2 1.1h1.1v2.2l1.1 1.1 1.1-1.1 1.1 1.1-1.1 2.2v2.2h1.1v1.1h-1.1l-1.1 1.1-1.1 1.1 1.1 4.5v1.1h2.2v1.1h-1.1l-3.3-1.1-1.1-1.1h-1.9v-1.1h-1.1L85.2 95v2.2l1.1 1.1 2.2 1.1h1.1l3.3-1.1h4.4l1.1 1.1h1.1v-1.1h4.4l2.2 2.2v1.1h1.1l1.1 1.1h1.1l4.5-6.7 6.7-4.5v-2.2h1.1v-1.1l-1.1-1.1V86l1.1-1.1v-.4l1.1-1.1 2.2-1.1h1.1l-1.1 1.1 1.1 1.1v1.1h5.5l3.3 10-1.1 2.2-3.3 6.7 6.7 7.8v1.1l1.1 1.1 1.1 1.1v7.8l4.5 1.1 1.1-1.1 3.3-1.1h1.1v-1.1l6.7 4.5-2.2 8.9 1.1 1.1 4.4-1.1 4.5 1.1h5.5l1.1-1.1 1.1-2.2 3.3 1.1 4.5 1.1 2.2 1.1 3.3-3.3 1.1-1.1 3.3-1.1 1.1-1.1 1.1-1.1v-1.1h1.1l4.4 1.1v1.1l1.1 2.2 3.3 2.2 1.1 1.1v6.6l1.1 4.5h1.1l3.3-1.1h1.1l3.3-1.1V139l1.1-5.6 2.2-4.5 1.1-2.2 3.3-3.3 4.4-2.2h1.1l5.6-1.1 2.2-1.1h1.1l1.1-1.1 8.9-2.2 3.3-1.1h1.1l1.1-1.1h1.1l2.2-2.2 3.3-3.3 2.2-1.1-2.2-3.3-2.2-4.5-4.5-7.8v-1.1l-2.2-10-1.1-2.2v-2.2l-1.1-3.3-1.1-10 4.4 1.1 3.3 1.1 2.2 1.1h4.4l2.2-1.1 3.3-1.1 2.2-1.1 2.2-1.1v1.1h1.1l1.1 1.1 2.2 2.2v-1.3h2.2l-1.1-1.1V59l-1.1-2.2-1.1-1.1v-4.5l-1.1-1.1V49l-1.1-1.1-1.1-1.1-1.1-1.1-3.3-1.1v-1.1l-1.1-1.1v-7.9H262v-3.3l-1.1-3.3h-1.1l-1.1-1.1h-2.2l-2.2-1.1h-2.2l-1.1-1.1v-2.2l-1.1-2.2V18h-1.1l-1.1-1.1H240l-3.3 1.1h-4.6l-1.1-1.1v-1.4l-1.1-1.1-1.1-1.1h-2.3l-1.1-1.1h-1.1V10h-1.1l-1.1-1.1h-2.2l-1.1-1.1-1.1-1.1-1.2-1.2V3.3l-1.1-1.1h-3.3L211 1.1 208.8 0h-5.5l-1.1 1.1v1.1l-1.1 1.1H200l-1.1-1.1h-2.2V1.1L195.6 0h-3.3v1.1l-1.1 2.2-1.1 1.1h-5.9l-1.1-1.1-1.1-1.1V1.1h-1.1l-1.1 1.1v1.1l-1.1 1.1-1.2 1.1-2.2 3.3v1.1l-1.1 2.2v4.4h-1.1v1.1l-5.6 2.2-2.2 1.1V22h-1.1l-2.2-1.1h-2.2l-1.1 1.1-1.1 1.1-1.1-1.1-2.2-1.1-1.1-1.1-1.1 1.1H142l-2.2 1.1-1.1-1.1v-1.1h1.1l1.1-1.1 1.1-1.1-1.1-1.1v-3.2l-3.3-1.1-1.1-1.1-1.1-1.1h-1.1l-1.1 1.1-1.1 1.1H131v-1.1h-1.1V10l-1.1-1.1V7.8h-1.3l-1.1-1.1-2.2-1.1-1.1-1.1H122V2.3h-3.3l-1.1-1.1h-3.3L112.1.1h-2.2zm1.1 103.5h-2.2l1.1 1.1zm-1.1-12.3h1.1v1.1l1.1 1.1h1.1v2.2h-1.1l-1.1-1.1h-1.1l1.1-1.1-1.1-1.1zm2.3 0 1.1 1.1h-1.1z" style="fill:#c7de79"/>
</svg>
