<svg
	x="0" y="0"
	xml:space="preserve"
	width="124.111" height="88.991"
	xmlns="http://www.w3.org/2000/svg"
>
    <path
		id="path267"
		d="M32.95 1.04v1.1h-1.1v2.2l-2.2-1.1v1.1l-2.2 1.1v1.1h-3.3l-2.2-1.1-1.1 1.1v1.1l1.1 1.1-1.1 1.1-1.3 1.3v1.1h-2.2v1.1l-1.1-1.1h-2.2l-1.1 1.1-2.2 1.1v1.1h-1.2l-1.1 1.1h-1.1v1.1h-1.1l-1.1 1.1h-3.3v1.1l1.1 1.1v3.3h1.1v1.1l1.1 1.1h1.1v1.1l1.1 1.1 1.1 1.1h2.2l1.1 1.1 4.4 3.3-3.3 1.1v4.5h-5.5v-1.1h-2.2l-1.1 1.1-1.1 1.1h1.1l-1.1 1.1v1.1H.75v1.1l4.4 2.2 1.1 1.1h-1.1v3.3l1.1 3.3v1.1h1.1l-1.1 1.1h6.6l-1.1 1.1-1.1 1.1h-1.1l-3.3 2.2-1.1 3.3-1.1 1.1h-1.1v1.1l-1.1 1.1 1.1 2.2h1.1l1.1-1.1h4.4l1.1 3.3h-1.1l-4.4 1.1 1.1 1.1 1.1 2.2 1.1 2.2 1.1 1.1 1.1 1.1 1.1 1.1v1.1l1.1 1.1v3.3h4.4l1.1-1.1h1.1v-1.1h1.1l1.1-2.2 1.1-1.1h2.2l1.1 1.1h1.1l1.1-1.1v-1.1l1.1-1.1 1.1-1.1h2.2l2.2 2.2h1.1l1.1-1.1v-1.1h2.2l1.1 3.3-1.1 2.2 4.5 1.1 2.2 1.1 4.5 2.2h3.3l2.2-2.2 1.1-3.3 1.1-2.2 1.1 1.1 1.1 1.1h2.2l1.1-1.1 1.1-1.1v-2.2h2.2l2.2 1.1 2.2 2.2h4.4l1.1 1.1 1.1 1.1h1.1l1.1-1.1h1.1v-1.1l1.1-1.1h1.1l1.1-1.1 2.2 1.1h1.1l1.1-1.1h1.1l2.2-1.1h1.1l1.1-1.1 1.1-1.1h1.1l1.1 1.1h5.5l1.1 1.1 2.2 1.1h1.1l1.1 1.1h2.2l1.1 2.2 2.2 1.1 3.3 1.1 2.2 1.1 2.2-1.1 1.1-1.1v-2.2l-1.1-1.1 1.1-1.1-1.1-1.1v-1.1l-1.1-2.2v-1.1h-1.1l-1.1-1.1-1.1-1.1v-6.6l-3.3-2.2h1.1v-1.1h-2.2v-6.7l1.1-1.1-1.1-1.1v-2.9l-1.1-2.2-3.3 1.1 1.1 1.1v2.2h-1.1v1.1l-1.1 1.1h-1.1l-1.1 1.1-1.1 1.1h-2.2l-2.2-1.1-1.1-1.1v-1.1h1.1l1.1-1.1 1.1-1.1v-3.3l1.1-1.1v-1.1h2.2v-1.1h-1.1v-2.2h2.2v-2.3h-2.2v-2.2h-2.2v-2.2l-1.1-1.1h1.1v-1.1h-5.6l-1.1-1.1v-7.7l-4.5-3.3v1.1l-2.2-1.1v-1.1l1.1-5.6-1.1-1.1-1.1-1.1-1.1-1.1h-1.1v-1.1l-1.1-1.1h-3.3l-1.1-1.1h-1.4l-1.1-1.1h-4.5l-2.2-1.1-3.3 6.7v2.2l-1.1 2.2-1.1 3.3-1.1 2.2v2.2l-1.1 1.1v1.1l-2.2 4.5h-4.5l-6.7-1.1h-1.1l-5.6 2.2-4.4 1.1v-4.5h-1.1v-3.3h-1.1l-1.1-1.1h2.2v-6.6h1.1l2.2-1.1-2.2-1.1v-3.3h-1.1v1.1l-1.1-1.1-1.1-3.3v-1.1h2.2v-1.1h2.2v-1.1h2.2l-1.1-1.1h-1.1l-1.1 1.1h-1.1l-1.1-1.1-1.1 1.1v-4.5h-1.1z"
		style="stroke:#fff;stroke-width:1.5;stroke-miterlimit:10;fill:#f8e7fe"
	/>
</svg>