<svg width="273.523" height="191.437" viewBox="0 0 800" xml:space="preserve" xmlns="http://www.w3.org/2000/svg">
    <path d="m131.41.876-2.2 1.1v1.1l-1.1 3.3-1.1 2.2v2.2l-1.1 2.2v2.2l-1.1-1.1v2.2h-1.1v-2l-1.1 2.2v1.1h1.1v1.1h-1.1l1.1 1.1-1.1 1.1-1.1 1.1-3.4 3.4-2.2 2.2-2.2 1.1v1.1h-1.1l-1.1 1.1h-1.1l-1.1 1.1v1.1h-1.2v1.1h-2.2l-2.2 1.1-1.1 1.1h-1.1l-1.1 1.1-2.2 1.1h-1.1l-1.1 1.1-1.1 1.1v1.1h-2.2v2.2h-1.1v1.1h-1.1v1.1h-1.1v1.1l-2.2 1.1-1.1 1.1-1.1 1.1v1.1l-1.1 2.2v2.2l-1.1 2.2v1.1l-1.1 2.2-1.1 1.1h-5.5l-2.2 2.2-1.1-1.1-1.1 1.1-3.3 1.1h-2.2l-1.1 1.1h-2.2l-1.1 5.6v1.1l2.2 1.1v-.6l4.5 3.3v7.7l1.1 1.1h5.6v1.1h-1.1l1.1 1.1v2.2h2.2v2.2h2.2v2.2h-2.2v2.2h1.1v1.1h-2.2v1.1l-1.1 1.1v3.3l-1.1 1.1-1.1 1.1h-1.1v1.1l1.1 1.1 2.2 1.1h2.2l1.1-1.1 1.1-1.1h1.1l1.1-1.1v-1.1h1.1v-1.9l-1.1-1.1 3.3-1.1 1.1 2.2v3.3l1.1 1.1-1.1 1.1v6.7h2.2v1.1h-1.1l3.3 2.2v6.6l1.1 1.1 1.1 1.1h1.1v1.1l1.1 2.2v1.1l1.1 1.1-1.1 1.1 1.1 1.1v2.2l-1.1 1.1-2.2 1.1-2.2-1.1-3.3-1.1-2.2-1.1-1.1-2.2h-2.2l-1.1-1.1h-1.1l-2.2-1.1-1.1-1.1h-6.2l-1.1-1.1h-1.1l-1.1 1.1-1.1 1.1h-1.1l-2.2 1.1h-1.1l-1.1 1.1h-1.1l-2.2-1.1-1.1 1.1h-1.1l-1.1 1.1v1.1h-1.1l-1.1 1.1h-1.3l-1.1-1.1-1.1-1.1h-4.4l-2.2-2.2-2.2-1.1h-2.2v2.2l-1.1 1.1-1.1 1.1h-2.2l-1.1-1.1-1.1-1.1-1.1 2.2-1.1 3.3-2.2 2.2-1.1 1.1h1.1l-1.1 1.1-1.1 2.2h-1.1v1.1l-1.1 3.3-1.1 1.1v1.1h-4.4v2.2l-1.1 1.1h-3.3v2.2l1.1 1.1v1.1h-1.1l-1.1-1.1-3.3 1.1-1.1-1.1-2.2 1.1-1.1-1.1v2.2l1.1 1.1h-1.1l1.1 1.1h4.4l-1.1 4.5v1.1h-2.2v2.2h1.1l1.1 1.1 2.2 1.1 1.1 1.1h1.1v1.1l1.1 1.1v1.1h1.1v1.1h1.1l1.1-1.1 1.1-1.1h1.1l1.1 1.1 1.1 1.1 3.3 1.1v3.3l1.1 1.1-1.1 1.1-1.1 1.1h-1.1v1.1l1.1 1.1 2.2-1.1h9.9l1.1-1.1 1.1 1.1 2.2 1.1 1.1 1.1 1.1-1.1 1.1-1.1h2.2l2.2 1.1h1.1v-1.1l2.2-1.1 5.6-2.2v-1.1h1.1v-4.4l1.1-2.2v-1.1l2.2-3.3 1.1-1.1 1.1-1.1v-1.1l1.1-1.1h1.1v1.1l1.1 1.1 1.1 1.1h5.5l1.1-1.1 1.1-2.2v-1.1h3.3l1.1 1.1v1.1h2.2l1.1 1.1h1.1l1.1-1.1v-1.1l1.1-1.1h5.5l2.2 1.1 1.1 1.1h3.3l1.1 1.1v2.2l1.1 1.1 1.1 1.1 1.1 1.1h2.2l1.1 1.1h1.1v2.2h1.1l1.1 1.1h2.2l1.1 1.1 1.1 1.1v1.1l1.1 1.1h5.5l3.3-1.1h8.8v-1.5l-1.1-1.1 1.1-1.1h3.3l1.1 1.1 1.1 1.1v1.1l1.1 1.1v1.1l1.1 1.1h1.1v1.1l1.1 1.1h1.1l1.1-1.1v-1.1l1.1-1.1 2.2-1.1h1.1l1.1-2.2v-1.1h-.1v-2.2h1.1l-1.1-1.1h-1.1v-3.3l-2.2-2.2h-2.2v-1.1l1.1-1.1h1.1l-2.2-1.1 2.2-3.3h1.1v1.1h3.3l2.2-1.1h1.1l1.1-1.1 1.1-1.1 1.1 1.1 1.1-1.1 1.1-1.1h1.1l-1.1-1.1 1.1-1.1 1.1-1.1 1.1 1.1 2.2 2.2h2.2l4.4 1.1h3.3l1.1 1.1v-5.5l-2.2-1.1h-1.1v-2.2l-1.1-2.2-1.1-1.1h-3.3l1.1-1.1v-1.1h1.1l1.1 1.1 4.5-2.2 1.1 1.1h1.1l1.1 1.1 2.2 1.1v1.1h-2.2l1.1 1.1 1.1 1.1 1.1 1.1 2.2 1.1h2.2v-1.1h2.2l1.1 1.1h1.1v-1.1h1.1v-1.1l1.1 1.1 3.3 1.1v1.1l1.1 2.2v1.1l2.2-1.1h3.3l1.1 1.1h1.1l1.1 1.1v2.2h3.3l2.2 1.1h1.1l-1.1-2.2 1.1 1.1-1.1-2.2v-1.1l1.1-1.1h-1.1v-1.1h-1.1l-1.1-1.1v-3.3l2.2 1.1h1.1l1.1 1.1h1.1v1.1h2.2l1.1-1.1 1.1 2.2h1.1l1.1 1.1 1.1-1.1 3.3-1.1v-2.2h1.1l1.1-1.1h2.2l1.1-1.1v-1.4h1.1l1.1-1.1v1.1h1.1l1.1-1.1 2.2-1.1 5.6-2.2h2.2v-1.1l2.2-1.1 2.2-1.1h1.1l1.1-1.1v1.1h2.2v1.1l1.1 1.1 2.2 2.2 2.2-1.1v-1.1h1.1l1.1-1.1h1.1v-1.1l1.1-1.1h1.1l2.2-3.3 1.1-1.1v-5.5l2.2-1.1h2.2l1.1-2.2-1.1-1.1v-3.3l-3.3-1.1h1.1l-6.7-4.5-1.1-1.1-1.1-2.2-5.6-2.2h-4.5v-4.8l1.1-1.1v-2.2h3.3l2.2-1.1 2.2-1.1v-3.4h1.1v-1.1l1.1-4.5h-7.8l-2.2-1.1-2.2-1.1h-2l2.2-3.3v-5.5l-3.3-2.2h-1.1l-1.1 2.2v-1.2l-1.1-1.1-1.1 1.1-1.1 1.1v1.1l-1.1-1.1-1.1-1.1 1.1-1.1-2.2-1.1h-1.1l-4.4 1.1-5.6-1.1h-1.1l-2.2 1.1-1.1-1.1h-1.1v-1.1l-1.1-1.1v-2.2h-2.4v-1.1h-1.1v-2.3l-3.3-2.2-1.1-2.2v-2.2h-5.6v-1.1l-1.1 1.1h-3.3l-1.1 1.1h-1.1v2.2h-2.3v1.1h-3.3v-1.1h-3.3l-1.1 1.1-1.1-1.1h-6.6v1.1l-1.1-1.1h-3.3v-1.1h-1.1l-2.2 1.1v1.1l1.1 1.1-1.1 1.1v-2.2h-2.2l-1.1-2.2v-1.1l1.1-1.1h1.1v-1.1h-3.3l-1.1-1.1v-3.4l-1.1-1.1-1.1-1.1v-3.3h-1.1v-2.2h-3.3v-4.4h-2.2v-1.1h1.1v-6.6h1.1l1.1-1.1h1.1l-1.1-1.1h-1.1l-1.1-1.1v-1.1h1.1v-1.1h2.2l2.2-1.1h1.1v-1.1h1.1v-4.4h-1.1l-1.1-1.1v-3.8l1.1-1.1v-2.2l-1.1-1.1-1.1-1.1v-2.2l-1.1-3.3v-1.1l-1.1-1.1-3.3-1.1-1.1-1.1v-2.2l-1.1-1.1-1.1-1.1h-1.1l-1.1-1.1-1.1 1.1h-2.2l-1.1 1.1-2.2 2.2-2.2 2.2-1.1 1.1-1.1-1.1v-1.1l-1.1 1.1-1.1 1.1-2.2 1.1v-2.2l-2.2-3.3-1.1-2.2-2.2-3.3zm-36.7 40.1-2.2-1.1 1.1 1.1z" style="fill:#e3a528;stroke:#fff;stroke-width:1.5;stroke-miterlimit:10"/>
</svg>
