<?xml version="1.0" encoding="UTF-8" standalone="no"?>
<svg
   x="0"
   y="0"
   viewBox="0 0 123.93556 245.21059"
   xml:space="preserve"
   width="123.93556"
   height="245.21059"
   version="1.1"
   id="svg610"
   xmlns="http://www.w3.org/2000/svg"
   xmlns:svg="http://www.w3.org/2000/svg"><defs
   id="defs614" />
    <style
   id="style604">
        .north-holland{fill:#fcf799}.stroke-ffffff-1-5{stroke:#fff;stroke-width:1.5;stroke-miterlimit:10}
    </style>
    <g
   id="g227"
   transform="translate(-189.87511,-112.95)">
        <path
   id="path325"
   class="north-holland stroke-ffffff-1-5"
   d="m 227.5,165.8 -2.2,3.3 v 4.4 l -1.1,3.3 v 7.8 l -2.2,6.7 -1.1,6.7 -2.2,6.7 v 2.2 h -1.1 v 2.2 l -2.2,4.5 v 2.2 l -2.2,6.7 v 7.7 l -1.1,4.5 v 4.4 l -1.1,4.5 v 5.5 l -1.1,1.1 v 1.1 l -1.1,7.8 -1.1,10 -1.1,5.6 -1.1,2.2 -1.1,2.2 -1.1,2.2 -1.1,3.3 2.2,-1.1 h 1.1 l 2.2,-1.1 1.1,1.1 h -1.1 v 1.1 h -2.2 l -1.1,1.1 h 2.2 v 1.1 l -2.2,-1.1 H 203 v 1.1 l -2.2,-1.1 v 2.2 l 1.1,2.2 -1.1,1.1 v 2.2 l -1.1,2.2 -1.1,4.5 -1.1,3.3 -2.2,5.6 -4.4,8.9 7.8,3.3 3.3,1.1 v -2.2 l 1.1,1.1 1.1,-1.1 h 2.2 l 2.2,1.1 -1.1,2.2 -1.1,1.1 v 2.2 h -1.1 v 2.2 l -1.1,1.1 -1.1,1.1 -1.1,1.1 v 5.5 l -1.1,1.1 v 1.1 h -1.1 v 3.3 h 1.1 l 1.1,1.1 h 1.1 l 1.1,-1.1 2.2,1.1 h 5.5 l 1.1,-1.1 2.2,-1.1 h 1.1 V 341 l 1.1,1.1 h 2.2 l 1.1,-1.1 1.1,-1.1 3.3,1.1 -1.1,3.3 1.1,1.1 1.1,1.1 1.1,-2.2 h 3.3 l 1.1,-1.1 v -1.1 h 6.6 l 1.1,-1.1 h 1.1 v -1.1 h 1.1 l 1.1,-1.1 h 1.1 v -1.1 l 2.2,-1.1 1.1,-1.1 h 2.2 l 1.1,1.1 v -1.1 h 2.2 V 335 l 1.1,-1.1 1.1,-1.1 -1.1,-1.1 v -1.1 l 1.1,-1.1 2.2,1.1 h 3.3 v -1.1 l 2.2,-1.1 v -1.1 l 2.2,1.1 v -2.2 h 1.1 v -1.1 h 2.2 v 4.5 l 1.1,-1.1 1.1,1.1 h 1.1 l 1.1,-1.1 h 1.1 l 1.1,1.1 h -2.2 v 1.1 h -1.5 v 1.1 h -2.2 v 1.1 l 1.1,3.3 1.1,1.1 v -1.1 h 1.1 v 3.3 l 2.2,1.1 -2.2,1.1 h -1.1 v 6.6 h -2.2 l 1.1,1.1 h 1.1 v 3.3 h 1.1 v 4.5 l 4.4,-1.1 5.6,-2.2 h 1.1 l 6.7,1.1 h 4.4 l 3.3,-6.7 v -2.2 l 1.1,-2.2 1.1,-3.3 1.1,-2.2 v -2.2 l 3.3,-6.7 2.2,1.1 h 4.5 l -2.2,-2.2 v -1.1 l 1.1,-1.1 h -2.2 l -1.1,-1.1 h -1.1 l -1.1,-1.1 h -1.1 v -1.1 l -1.1,-1.1 -1.1,1.1 h -6.7 l -1.1,1.1 H 292 l -1.1,1.1 h -1.1 V 324 h -1.1 l -1.1,-1.1 -1.1,-1.1 -1.1,-2.2 h -1.1 v -1.1 h -3.4 l -1.1,-2.2 h -5.5 l -2.2,1.1 -1.1,-1.1 v 1.1 h -1.1 V 316 h 1.1 v -1.1 l -1.1,-1.1 h -1.1 l -1.1,1.1 h -2.2 v -1.1 h 1.1 v -2.2 l -2.2,-1.1 h -1.1 v 1.1 h -1.1 l -1.1,-1.1 H 260 v -1.1 h 2.2 l 1.1,-1.1 -3.3,-2.2 V 305 l 2.2,1.1 1.1,1.1 h 1.1 l 1.1,-1.1 v 1.1 l 1.1,1.1 1.1,-1.1 v -2.3 h 1.1 l 1.1,-1.1 v -2.2 l 1.1,-1.1 1.1,-1.1 1.1,-1.1 h 2.2 v -1.1 l 1.1,-1.1 V 295 l 2.2,-2.2 h -2.2 l -1.1,-1.1 v 1.1 l -2.2,-1.1 v -3.3 l 1.1,-1.1 V 286 h -1.1 l -1.1,1.1 -1.1,-1.1 2.2,-1.1 h 2.2 v -1.1 l -1.1,-1.1 v -2.2 l 1.1,-1.1 1.1,1.1 v -1.1 l 1.1,-1.1 1.1,-2.2 h -1.1 v -2.2 h -1.1 v -1.1 l -1.1,-1.1 v -1.1 l -1.1,-2.2 v -1.1 l -2.2,-3.3 v -1.1 l -1.1,-1.1 v -2.2 l -1.1,-2.2 v -1.1 l -1.1,-1.1 1.1,-1.1 -1.1,-1.1 v -7.1 h 1.1 v -1.1 h 1.1 l 1.1,-1.1 h 2.2 v 1.1 l 1.1,1.1 v -1.1 l 1.1,-1.1 h 3.3 l 1.1,1.1 1.1,1.1 h 1.1 l 1.1,1.1 v 1.1 h 4.4 l 1.1,-1.1 2.2,-2.2 h 3.3 v -1.1 l 1.1,-1.1 h 1.1 v -1.1 l 2.2,-1.1 v -1.1 l 1.1,-1.1 v -3.3 l 1.1,-2.2 h 3.3 l 1.1,-1.1 h 1.1 l -1.1,-1.1 h 1.1 l 1.1,-1.1 1.1,-1.1 -1.1,-1.1 -1.1,-1.1 v -6.6 h -1.1 l -1.1,-1.1 -2.2,-1.1 h -4.4 l -1.1,-1.1 h -3.3 l -1.1,2.2 -1.1,1.1 v 1.1 l -1.1,-1.1 h -3.3 l -2.2,-2.2 -1.1,-1.1 -1.1,-1.1 1.1,-2.2 h -1.1 l -1.1,-1.1 h -1.1 l 2.2,-16.7 -2.2,-3.3 -3.3,-6.7 V 184 l -1.1,-1.1 -3.3,-6.7 H 272 V 174 l -1.1,-1.1 h -1.1 l -1.1,1.1 h -1.1 l -1.1,-1.1 h -1.1 l -1.1,1.1 H 262 l -2.2,2.2 v 1.1 l -2.2,3.3 h -1.1 l -2.2,1.1 -1.1,1.1 -4.4,2.2 -1.1,-1.1 -3.3,-2.2 H 243 l -3.3,-2.2 -1.1,-1.1 -1.1,-1.1 -1.1,-2.2 v -4.4 l 1.1,-2.2 v -1.1 h -1.1 v 1.1 h -2.2 v -2.2 h -5.5 z m 10,1.1 v -1.1 h -1.1 z m 34.5,6.7 1.1,1.1 v -2.2 H 272 Z m -10.1,135.8 v 1.1 h 1.1 z m 19,-24.5 v 2.2 l -1.1,2.2 h 1.1 l 1.1,-1.1 h 1.1 l 1.1,-1.1 h 1.1 V 286 l -2.2,1.1 -1.1,-1.1 z m 30,38.9 v 1.1 h 1.1 z" />
        <path
   id="path415"
   class="north-holland stroke-ffffff-1-5"
   d="m 221.9,163.6 -2.2,1.1 -1.1,1.1 h -1.1 v 1.1 h -1.1 l -1.1,-1.1 v -3.3 h 3.3 l 3.3,-1.1 h 2.2 v 1.1 z" />
        <path
   id="path417"
   class="north-holland stroke-ffffff-1-5"
   d="m 246.4,146.9 -2.2,2.2 -1.1,1.1 h -3.3 l -3.3,4.5 v 2.2 h -2.2 l -1.1,-1.1 -2.2,-1.1 h -1.1 l 1.1,1.1 1.1,1.1 1.1,1.1 h 1.1 -2.2 v 1.1 h -3.3 1.1 l -1.1,1.1 h -1.1 l -1.1,1.1 h -1.1 V 158 l -1.1,-4.5 v -3.3 l 1.1,-3.3 v -1.1 l 1.1,-3.3 1.1,-3.3 1.1,-3.3 1.1,-1.1 2.2,-3.3 2.2,-4.5 3.3,-3.3 v 2.2 l 1.1,-1.1 1.1,-1.1 1.1,-1.1 h 1.1 v 1.1 -1.1 h -1.1 v -1.1 l -1.1,1.1 -2.2,1.1 3.3,-6.7 1.1,-1.1 2.2,-1.1 v -1.1 h 2.2 l 1.1,1.1 1.1,1.1 v 2.2 h 1.1 -1.1 v 1.1 l 1.1,1.1 1.1,1.1 2.2,3.3 v 1.1 l -1.1,1.1 V 138 l -1.1,2.2 h -1.1 l -1.1,1.1 v 2.2 l -2.2,2.2 z" />
    </g>
</svg>
