<svg x="0" y="0" xml:space="preserve" width="141.056" height="134.5" version="1.1" id="svg394" xmlns="http://www.w3.org/2000/svg">
   <style id="style376">
      .zeeland{fill:#d1c6dd}
      .stroke-ffffff-1-5{stroke:#fff;stroke-width:1.5;stroke-miterlimit:10}
   </style>
   <g id="g259" transform="translate(-16.24 -452.45)">
      <path id="path619" class="zeeland stroke-ffffff-1-5" d="M132.9 478.5v1.1l-2.2 2.2h-1.1l1.1 2.2h1.1l1.1 2.2 1.1 2.2h6.6v-1.1h1.1v2.2l-1.1 1.1h-5.5l-1.1 1.1h-1.1l-2.2-2.2-4.4-1.1h-1.1l-2.2 1.1-1.1 1.1h-1.1l-2.2 1.1-1.1 1.1-1.1-1.1-2.4 1.3-1.1 1.1v2.2h1.1v1.1h2.2l1.1 1.1 1.1 1.1h1.1v2.2l1.1 1.1h1.1l1.1 1.1 1.1 1.1v2.2l1.1 1.1h1.1v1.1h8.8l1.1 1.1h1.1v-1.1l2.2 1.1 2.2 1.1-1.1 1.1v2.2h1.1l4.4 2.2 1.1 1.1v7.8l1.1 4.5h-3.3l-1.1-1.1h-3.3l-1.1 1.1h-1.1l-1.1 1.1H134v-1.1h-1.1l-3.3-2.2h-1.1l-1.1-3.3h-1.1l-2.2-3.3v-1.1l-1.1-1.1 1.1-1.1-1.1-1.1v-2.2h-1.1l-1.1-1.1-2.2-2.2-1.1-1.1h-2.2l-1.1-1.1h-1.1l-2.2-1.1h-1.1l-1.1-1.1-1.1 1.1h-1.1v1.1l-2.2-3.3h1.1l-1.1-1.1v-1.1H101l-1.1 1.1h-8.1v-1.1l-1.1-1.1h-2.2l-2.2 1.1h-1.1l-1.1 1.1-3.3-1.1h-1.1l-1.1-1.1-1.1 1.1-2.2 1.1v1.1l-1.1 1.1v1.1l-1.1 1.1H72l-1.1 1.1h2.2l-2.2 1.1v-1.1l-2.2-2.2-1.1-1.1v-1.1l-1.1-3.3V502H65l-1.1-1.1-2.2-1.1-1.1-1.1-1.1-1.1v-3.3l1.1-1.1h-2.2l-1.1-1.1h-7.7v1.1h-2.2l-1.1 1.1-2.2 1.1-1.1 1.1-2.2 1.1h-1.1l-1.1 1.1-1.1 1.1-2.2 1.1-1.1 1.1h-1.1l-1.1 1.1-1.1 1.1v3.3l1.1 2.2h1.1l1.1 1.1 1.1 1.1 2.2 1.1v1.1h1.1l1.1 1.1 1.1 1.1v1.1l1.1 1.1v1.1l1.1 1.1v1.1l1.1 1.1 1.1 1.1 2.2 1.1v1.1h1.1l1.1 1.1v1.1H54v-3.3h1v2.2l1.1 1.1h3.3l1.1-1.1v-1.1H65l-2.2-1.1 1.1-1.1 2.2-1.1h1.1v1.1l3.3-2.2v-2.2l1.1 1.1v1.1h1.1l-1.1 1.1v2.2h1.1l-1.1 1.1 1.1 1.1v1.1l-1.1-1.1-1.1 1.1h-1.1l1.1 1.1 1.1 1.1v1.1h1.1v3.3h1.1l1.1 1.1H76V535h1.1l2.2 1.1h1.1v1.1l2.2 1.1v1.1H84l2.2 2.2h3.3l2.2-1.1h1.1l1.1-1.1h3.3l1.1 1.1 1.1-1.1 1.1-4.5h1.1v-2.2h1.1v-6.6l2.2 1.1 2.2-1.1h1.1l2.2-2.2 1.1 1.1 1.1 1.1 1.1 1.1v1.1h1.1v1.1h2.2l1.1 1.1 1.1 1.1h2.2v3.3l2.2 1.1h1.1l1.1 1.1h1.1l2.2 1.1 2.2 1.1h2.2l1.1 1.1h2.2l3.3-1.1 2.2-1.1h2.2v1.1h2.2l2.2 1.1 1.1 3.3v2.2h3.3l2.2-1.1-1.1-1.1h-.4v-1.1l1.1-3.3-1.1-3.3v-1.1l2.2-1.1-2.2-3.3-4.4-12.2-2.2-4.5v-.8l1.1-2.2 1.1-3.3 1.1-2.2v-1.1l-1.1-1.1v-2.2l-4.4-5.6-1.1-1.1v-4.5l1.1-2.2 1.1-1.1 1.1-1.1 3.3-1.1h-1.1l-2.2-1.1h-4.5l-2.2-1.1-3.3-2.2h-1.1zm-63.4 50.1 1.1-2.2-1.1 1.1z"/>
      <path id="path625" class="zeeland stroke-ffffff-1-5" d="M139.6 547.5v1.1h1.1v1.1h-1.1v1.1h1.1-2.2l-1.1-1.1v-2.2h1.1z"/>
      <path id="path627" class="zeeland stroke-ffffff-1-5" d="M105.1 547.5h1.1l1.1-1.1v1.1z"/>
      <path id="path629" class="zeeland stroke-ffffff-1-5" d="M136.2 550.9v2.2H134V552h-1.1 2.2l-1.1-1.1h1.1-1.1l-1.1 1.1v-1.1h1.1-1.1l1.1-1.1h-2.2v-1.1 1.1h-1.1v-1.1h3.3l1.1 1.1z"/>
      <path id="path631" class="zeeland stroke-ffffff-1-5" d="M39.5 536.4v1.1h-2.2l-2.2 1.1h-2.2l-1.1 1.1h-5.5v1.1H25l-1.1 1.1h-2.2l-1.1 1.1h-1.1v1.1l1.1 1.1v4.4l1.1 1.1v2.2l-3.3 3.3-1.1 1.1 1.1 1.1 2.2 2.2h-2.2v1.1l1.1 1.1 1.1 1.1v1.1l-1.1 1.1 1.1 1.1h1.1l1.1 2.2h1.1L25 572l1.1-1.1 1.1 1.1v2.2h1.1l1.1 1.1h4.4l8.9-1.1-1.1-7.8-1.1-1.1 2.2-1.1 1.1 1.1H45v-1.1h2.2v-1.1h1.1l1.1 1.1 1.1 1.1 1.1-1.1-1.1-2.2 2.2-1.1 1.1 1.1 2.2 1.1 1.1 1.1 2.2 1.1h1.1v-1.1h2.2l2.2 2.2h1.1l1.1 1.1v1.1h3.3l1.1 1.1v-1.1l4.4 1.1h1.1l1.1 2.2h1.1v-1.1l1.1 1.1 1.1 1.1h1.1v1.1l-1.1 1.1v7.7l1.1 1.1H84v-1.1l1.1 1.1h7.7l2.2-2.2h2.2v2.2h-1.1l-1.1 1.1 1.1 1.1h2.2l2.2-1.1h1.1l-1.1-2.2 2.2-1.1 1.1 2.2h1.1v-1.1h2.2l1.1-1.1v-1.1h2.2l1.1-2.2h1.1l1.1-1.1 2.2-1.1h1.1v1.1h1.1l1.1-1.1v1.1h2.2l1.1-1.1h1.1l1.1-1.1 2.2-2.2 2.2-1.1 2.2-1.1 5.6-4.5 1.1-1.1 11.1-13.4H148v-1.1h-1.1v-2.2l-1.1 1.1v-2.2l-1.1-1.1h-1.8l1.1-1.1h-2.2v1.1l-1.1 1.1v1.1l1.1 1.1h1.1v2.2l-1.1-1.1-1.1 1.1h1.1l-1.1 1.1h1.1v1.1l-1.1-1.1h-2.2l1.1 1.1v1.1l-1.1-2.2-1.1-1.1h-1.1l1.1 1.1 1.1 1.1h-1.1v-1.1H134v1.1h1.1v1.1H134l-2.2-4.5h-1.1l-3.3-2.2v-1.1h-1.1v1.1l-4.4-1.1-1.1-1.1v-1.1l-1.1-1.1v-1.1l-1.1-1.1 1.1-1.1h-1.1l-1.1-1.1v-1.1H114l-1.1-1.1h-2.2l-1.1 2.2v1.1h-1.1v5.5l-1.1 1.1h-2.2l-3.3 1.1-2.2 1.1-1.1 1.1h-1.1v1.1h-2.2v1.1l-1.1 1.1h-4.4l-1.1-1.1h-1.1v1.1l-1.1-1.1v2.2l-1.1-2.2v-.8h-2.5v-1.1h-3.3v3.3l-2.2-1.1V552l1.1-1.1h-6.6v-1.1l-1.1-1.1-1.1-1.1h-1.1v-1.1l-1.1-1.1h-3.3l-2.2-1.1h-1.1l-3.3-1.1h-1.1V542H55l-2.2-1.1h-1.1l-1.1-1.1-1.1-1.1h-1.1l-1.1-1.1h-1.1v-1.1h-4.4zM140.7 552l-1.1-1.1-1.1 1.1zm-1.1-1.1h3.3l-1.1-1.1h-2.2zm2.2-3.4 1.1 1.1h-1.1zm2.2 0h1.1l-1.1 1.1zm-7.8 7.8h1.1v1.1h-1.1z"/>
      <path id="path659" class="zeeland stroke-ffffff-1-5" d="m68.4 504.1-1.1-1.1v-1.1h1.1l1.1 1.1v1.1l-1.1 1.1z"/>
      <path id="path661" class="zeeland stroke-ffffff-1-5" d="m73.9 478.5-1.1 1.1v3.3l1.1 1.1 1.1-1.1-1.1-1.1 1.1 1.1-1.1 1.1-2.2-1.1v2.2l-1.1-1.1-1.1 1.1h1.1v1.1h-1.1v-1.1l-1.1 1.1v3.3h-1.1l1.1-2.2v-1.1l-1.1-1.1h-1.1 1.1l1.1-2.2 2.2-1.1v-2.2 1.1h2.2v-1.1z"/>
      <path id="path665" class="zeeland stroke-ffffff-1-5" d="m70.6 529.7-3.3-2.2-1.1-1.1 1.1-2.2 1.1 1.1 2.2 1.1-1.1 1.1v1.1z"/>
      <path id="path667" class="zeeland stroke-ffffff-1-5" d="M71.7 525.3h-1.1l-2.2-1.1 2.2-1.1h1.1z"/>
      <path id="path907" class="zeeland stroke-ffffff-1-5" d="M102.9 458.5v-1.1h1.1l2.2 1.1h-1.1z"/>
      <path id="path909" class="zeeland stroke-ffffff-1-5" d="M144 483v-1.1l-1.1-1.1-1.1-1.1v1.1h-1.1l-2.2-2.2 1.1-1.1h-1.1v1.1h-2.2v-1.1h6.6-2.2v1.1h2.2v1.1l1.1 1.1v1.1z"/>
      <path id="path913" class="zeeland stroke-ffffff-1-5" d="m109.5 456.3-1.1 1.1h-2.2v-1.1h4.4z"/>
      <path id="path915" class="zeeland stroke-ffffff-1-5" d="m106.2 483-1.1 1.1h-2.2l-2.2-1.1h-1.1l2.2-1.1v-1.1 1.1l-2.2 1.1h-1.1l1.1-2.2-1.1-1.1v-2.2h-1.1v-2.2l-1.1-2.2-2.2-1.1-1.1 1.1V472l-3.3-1.1v-2.2l-1.1-1.1h-3.3l-1.1 1.1v1.1h1.1l1.1-1.1 1.1 1.1-1.1-1.1-1.1 1.1h-2.2L82 472l-2.2 1.1h-2.2l-2.2 1.1-1.1 1.1v2.2h1.1v1.1h-1.1l-1.1-1.1h1.1v-2.2l-1.1-1.1H71V473l-1.1-1.1-1.1-2.2v-5.5l1.1-2.2 2.2-2.2 2.2-1.1h2.2l4.4-1.1 1.1-1.1h4.2l3.3 1.1v-2.2l1.1-1.1v-1.1h2.2l-1.1 1.1h1.1l-1.1 1.1V454h-1.1v1.1l-1.1 2.2h7.8l2.2-1.1 1.1 1.1 1.1 1.1v1.1h3.3l2.2-1.1 1.1 1.1h3.3v1.1-1.1l1.1 1.1v2.2l1.1 1.1 2.2 2.2 1.1 2.2v2.2h4.4l2.2 1.1 3.3 2.2h1.1v1.1h1.1l2.2-2.2h5.5l1.1-1.1h1.1v3.3h1.1l-1.1 1.1H138l1.1-1.1-1.1-1.1v-.8h-1.1v1.1l-1.1-1.1-3.3 1.1h-1.1l-1.1 1.1h-1.1v1.1l1.1 1.1v1.1l-1.1 1.1h1.1v-1.1l-1.1 1.1v1.1h-1.1l-1.1 1.1-1.1 2.2h-1.1l-1.1 1.1-1.1-1.1-2.2 1.1-1.1 1.1h-2.2v1.1h-7.5l-2.2-2.2z"/>
      <path id="path929" class="zeeland stroke-ffffff-1-5" d="M95.1 505.2v-1.1H94h1.1Z"/>
      <path id="path931" class="zeeland stroke-ffffff-1-5" d="M91.7 489.7h1.1v1.1h2.3l1.1 1.1v1.1l1.1 2.2 1.1 1.1v1.1h1.1v3.3l-1.1 1.1h-2.2l-1.1 2.2h-2.2l-1.1-1.1-1.1-1.1h-3.3v1.1H83l-1.1-1.1h-2.2l-4.4 1.1-1.1 1.1-1.1 2.2H72l-1.1 2.2v-1.1l-1.1-1.1 1.1-1.1V503l-2.2-2.2h1.1v-1.1l1.1-1.1-1.1 1.1-1.1 1.1-1.1-1.1-1.1-1.1H65l-1.1-1.1h-1.1v-2.2h-1.1V493h1.1-2.2l3.3-1.1 3.3-1.1v-1.1h1.1v1.1h2.2l1.1 1.1h1.1l1.1 1.1h1.1l1.1-1.1h1.1l2.2-1.1 2.2 1.1 1.1-1.1 2.2-1.1H87l1.1 1.1 2.2-1.1z"/>
   </g>
</svg>
