<svg x="0" y="0" xml:space="preserve" width="101.566" height="246.4" version="1.1" id="svg1023" xmlns="http://www.w3.org/2000/svg">
    <path id="path783" d="m46.055.79-1.1 1.1 1.1 1.1v2.2h-1.1l1.1 1.1h1.1v2.2l1.1 2.2v2.2l1.1 1.1h2.2l2.2 1.1h2.2l1.1 1.1h1.1l1.1 3.3v3.3h1.1v7.7l1.1 1.1v1.1l3.3 1.1 1.1 1.1 1.1 1.1 1.1 1.1v1.1l1.1 1.1v4.4l1.1 1.1 1.1 2.2v4.4l1.1 1.1h-2.2v1.1l-2.2-2.2-1.1-1.1h-1.1v-1.1l-2.2 1.1-2.2 1.1-3.3 1.1-2.2 1.1h-4.4l-2.2-1.1-3.3-1.1-4.4-1.1 1.1 10 1.1 3.3v2.2l1.1 2.2 2.2 10v1.1l4.5 7.8 2.2 4.5 2.2 3.3-2.2 1.1-3.3 3.3-2.2 2.2h-1.1l-1.1 1.1h-1.1l-3.3 1.1-8.9 2.2-1.1 1.1h-1.1l-2.2 1.1-5.6 1.1h-1.1l-4.4 2.2-3.3 3.3-1.1 2.2-2.2 4.5-1.1 5.6v4.5l-3.3 1.1h-1.1l-3.3 1.1 2.2 1.1 8.9 3.3 1.1 1.1v1.1l1.1 2.2 1.1-1.1 1.1 1.1h8.8l1.1-1.1h1.1l1.1 1.1h2.2l1.1 1.1v1.1h1.1l-1.1 1.1h-1.1v1.1h1.1v3.3h1.1v-1.1h2.2v-1.1h2.2v-1.1l2.2-1.1v1.1h1.1v2.2l3.3 2.2-1.1 1.1-1.1 1.1v1.1l-2.2 1.1h-1.1v1.1l-1.1 1.1-1.1 1.1 1.1 1.1h2.2l1.1 1.1v1.1l-1.1 1.1v1.1h-1.1l-1.1-1.1h-2.2v2.2l1.1 1.1v1.1h-1.1v1.1l1.1 2.2h-1.1v1.1h-1.1l-2.2-1.1-1.1 3.3v2.2l-1.1 1.1v1.1h1.1l1.1 1.1v1.1l-1.1 2.2v3.3l-1.1 1.1-1.1 1.1-1.1 2.2h-1.1l-1.1 2.2-1.1 2.2v1.1h2.2l1.1-1.1h1.1l1.1 1.1v1.1l-2.2 1.1v2.2l-2.2 2.2v1.1l-1.1 1.1 1.1 1.1-1.1 1.1h-3.5l-1.1 1.1v2.2l-2.2 2.2v1.1h-1.1l-1.1 1.1h-1.1v1.1h-2.3l1.1 1.1-1.1 1.1v6.6h1.1v2.2h1.1v1.1l1.1 1.1h2.2v1.1h2.2l1.1 1.1v1.1l-1.1 1.1 1.1 3.3v2.2l-2.2 3.3v1.1h2.2l1.1-1.1h1.1l1.1-1.1v1.1l1.1 1.1h1.1l1.1-1.1v-1.1l1.1-1.1 2.2-3.3h2.2v2.2l1.1 2.2 1.1-1.1 2.2 3.3h1.1l1.1-1.1 1.1 1.1 1.1-1.1 1.1-1.1v3.3l1.1-1.1 1.1-1.1v-1.1h2.2l2.2-1.1v3.3l2.2 1.1v-1.1h2.2v1.1l2.2-1.1 1.1-1.1h4.4l1.1 1.1 2.2 1.1h1.1v-1.1h3.3v-2.2l1.1-2.2-3.3-2.2h-1.1l-1.1-1.1v-1.1h-1.1l-1.1-1.1v-2.2l1.1-1.1 1.1 1.1 2.2 1.1 1.1-2.2 1.1-1.1v.9h1.1l-1.1-1.1v-1.1l-1.1-1.1v-2.2l1.1-1.1h2.2l1.1-1.1h1.1v-1.1h1.1v1.1l2.2 1.1v-3.3h1.1v-1.1l1.1-1.1v-2.2l-1.1-1.1v1.1l-1.1-2.2v-2.5l1.1-1.1v-1.1l1.1-1.1v-1.1l-1.1-1.1h-4.4v-2.2l-1.1 1.1-1.1-1.1-3.3-1.1v-3.3l-2.2-1.1 1.1-1.1h1.1v-1.1l1.1-4.5h-6.6l-1.1 1.1h-1.1l-1.1-1.1v-1.1h-1.1l-2.2 1.1h-1.1l-1.1 1.1h-1.1l-1.1 1.1h-1.1l-1.1-1.1 2.2-2.2v-3.3h-1.1l-1.1-1.1v-1.1h-1.1v-1.1h-1.1v-5.7l-1.1-1.1-1.1-2.2h4.4v-1.1l2.2-1.1 1.1-1.1v1.1l2.2 3.3 1.1 2.2v1.1l1.1-1.1h1.1v1.1h1.1v-1.1l1.1-1.1v-1.1l1.1-1.1v-2.2l1.1-1.1v-1.1l1.1-1.1v-1.1l1.1-1.1 2.2-1.1 1.1-1.1 2.2-1.1h1.1l1.1-1.1 1.1-1.1v-1.1l1.1-1.1h2.2l1.1-1.1v-2.2l1.1-1.1h2.2l1.1-1.1h1.1v-1.1h2.2l1.1-1.1h3.3l-1.1-1.1h1.1l1.1-1.1-4.4-3.3h-1.1l6.7-3.3-2.2-2.2-6.7 3.3-1.1 1.1-1.1 1.1h-4.4v-1.1l-1.1-1.1v-7.8l-1.1-1.1 1.1-1.1h2.2l-2.2-4.5 2.2-1.1 1.1-2.2 4.4-4.5v-1.1l1.1-1.1 2.2-3.3 1.1-2.2v-1.6l1.1-1.1v-2.2l1.1-1.1v-1.1h3.3v-1.1l5.6-5.6-1.1-3.3-1.1-2.2v-1.1l1.1-1.1 1.1-1.1h-3.3v-1.1l1.1-6.7v-3.3h1.1l-1.1-2.2 1.1-1.1v-3.3l-1.1-2.2-1.1-2.2 1.1-2.2-1.1-1.1v-3.7l-1.1-2.2-2.2-1.1-2.2-1.1-2.2-6.7-2.2-1.1-1.1-1.1-1.1-1.1-1.1-2.2v-1.1h-.5l-3.3-2.2v-4.4h1.1v-1.1l1.1-3.3v-1.1l1.1-1.1v-1.1l-2.2-1.1h-2.2v-1.1h-2.2l-5.6-2.2-1.1-1.1v-2.5l1.1-1.1-1.1-1.1v-3.3h2.2v-1.1h-1.1v-2.2h-1.1l-3.3-2.2-1.1-1.1h-6.7v-1.1l-1.1 1.1h-1.1l-1.1-1.1v-1.1h-1.1l-1.1-1.1v-1.1l-1.1-1.1v-1.1l-1.1-1.1-1.1-1.1h-1.1z" style="stroke:#fff;stroke-width:1.5;stroke-miterlimit:10;fill:#aed6be"/>
</svg>
