<svg x="0" y="0" xml:space="preserve" width="132.563" height="144.06" version="1.1" id="svg1378" xmlns="http://www.w3.org/2000/svg">
    <style id="style1370">
        .flevoland{fill:#a29c85}
        .stroke-ffffff-1-5{stroke:#fff;stroke-width:1.5;stroke-miterlimit:10}
    </style>
    <g id="g1376" transform="translate(-282.35 -193.378)">
        <g id="g233">
            <path id="path41" class="flevoland stroke-ffffff-1-5" d="m358.7 251.5-1.1 1.1-7.8 2.2h-1.1l-1.1 1.1-8.9 7.8v1.1H332v1.1l-1.1 3.3v-1.1l-1.1 2.2v4.4l-2.2 1.1h-1.1l-1.1 1.1-1.1 2.2H322v1.1l-18.9 12.2-3.3 2.2v1.1h-1.1v1.1h-1.8l-7.1 4.5-1.1 1.1-4.5 3.3h-1.1v1.1l2.2 2.2v5.5l-1.1 1.1h1.1l1.1 2.2h-1.1l1.1 1.1 1.1-1.1h1.1l4.5-1.1h2.2l1.1 1.1h4.4l3.3 1.1 2.2 2.2 3.3 1.1 2.2 2.2 10 8.9 1.1 2.2h1.1l2.2 1.1 2.2-1.1 5.6-2.2h3.3l1.1-1.1 3.3-1.1h1.1l1.1-4.5 1.1-1.1v-3.3h1.1v-5.5H345v-.7l-1.1-2.2 1.1-1.1 3.3-3.3 2.2 1.1 3.3-1.1h1.1l1.1-1.1h-1.1l1.1-1.1 1.1-1.1 1.1-1.1 3.3-3.3 8.9-4.5h2.2l1.1 1.1h1.1l4.4-3.3 1.1-2.2 2.2-2.2 1.1-2.2 1.1-1.1 1.1-2.2 3.3-6.7 1.1-2.2v-8.9l-1.1-2.2-5.6-5.6v-1.1h-7.8l-4.4-1.1-10-3.3h-.3l-1.1-2.2zm-61.8 45.6 1.8-1.1-2.2 1.1z"/>
            <path id="path151" class="flevoland stroke-ffffff-1-5" d="m371 194.7 1.1 2.2-2.2-1.1v1.1h-1.1l-5.6 1.1h-1.1v1.1l-3.3 5.6-5.6 8.9v1.1l-1.1 3.3v21.1h1.1l1.1 1.1 1.1 1.1 2.2 3.3 3.3 4.5 1.1 1.1h26.6l8.9-2.2 1.1 1.1 1.1 1.1 2.2-1.1h1.1l2.2-1.1v-1l3.3-1.1h1.1l3.3-2.2 1.1-1.1-1.1-2.2H411l-1.1-1.1-1.1-1.1-2.2-1.1h-1.1l-2.2-1.1v1.1h-1.1v-2.2l1.1-1.1 1.1-1.1 2.2-1.1v-2.2l-1.1-1.1V227l-1.1-1.1h-1.1v-1.1l-2.2-4.5-1.1-3.3-2.2-2.2h-1.1l-1.1-1.1-1.1-2.2-3.3-1.1-1.1-1.1h-4.4v-1.1l-1.1-1.1-1.1-1.1-1.1-2.2-1.1 1.1v-1.1l-1.1-2.2-4.4-5.6h-1.1z"/>
        </g>
    </g>
</svg>