<svg viewBox="0 0 228.191 172.503" xml:space="preserve" width="114.096" height="86.251" version="1.1" id="svg1562" xmlns="http://www.w3.org/2000/svg">
    <style id="style1551">
        .friesland{fill:#d0e7c7}
        .stroke-ffffff-1-5{stroke:#fff;stroke-width:1.5;stroke-miterlimit:10}
    </style>
    <g id="g218" transform="translate(-244.55 -32.508)">
        <path id="path55" class="friesland stroke-ffffff-1-5" d="m435.5 57.9-5.6 2.2h-1.1l-2.2-1.1h-3.3v1.1H421l-1.1-1.1-4.5 1.1h-3.3l-1.1 1.1-4.4 1.1h-2.2l-4.5 2.2h-5.5v-1.1l-1.1-1.1v2.2l-2.2 1.1-2.2 1.1-1.1 1.1-2.2 1.1-1.1 1.1-2.2 1.1h-2.2l-3.3 2.2-4.4 2.2-2.2 1.1-5.6 3.3H361l-1.1 1.1-2.2 1.1h-1.1l-1.1 1.1-2.2 1.1-2.2 1.1-1.1 1.1-2.2 2.2-1.1 2.2-1.1 1.1v1.1h-1.1v1.1l-2.2 1.1-1.1 1.1h-1.1l-2.2 2.2-1.1 1.1h-1.1l-1.1 1.1-1.1 2.2H332l-1.1 1.1-1.1 2.2-1.1 3.3-1.1 1.1v1.1h1.1l-1.1 1.1-1.1 1.1-1.1 1.1v1.1h1.1v2.2l-1.1 2.2v6.6l-1.1 1.1v1.1l-2.2 1.1H321l1.1 1.1-1.1 1.1v1.1l-1.1 1.1h1.1l1.1 1.1 1.1 2.2v3.3l1.1 2.2h-1.1l1.1 1.1h-1.1v-1.1H321v2.2h2.2v3.3l1.1-1.1v1.1h-1.1v1.1h1.1l1.1 1.1v3.3l-1.1 1.1v2.2l1.1 3.3v2.2l1.1 1.1v.4l2.2-1.5-2.2 2.2v-.7l-1.1.7v3.3h-1.1l-1.1 1.1 1.1 1.1 1.1 2.2v4.4l-1.1 1.1H322l-2.2 2.2-1.1 1.1-1.1 1.1 1.1 1.1v2.2h2.2v1.1h1.1l2.2 2.2 2.2 2.2h5.5V191l3.3 1.1h2.2l1.1 1.1 4.4 2.2h2.2v1.1h2.2l1.1-1.1h1.1v-1.1l1.1-1.1v-1.1l2.2-1.1 2.2 1.1 1.1-1.1 2.2-1.1h1.1l1.1 1.1v2.2h6.6v1.1h1.1l1.1-1.1v1.1l2.2 1.1-1.1-2.2 3.3 1.1h1.1l4.4 5.6 1.1 2.2v1.1l1.1-1.1 2.2-2.2h1.1v1.1h2.2v1.1h2.2l1.1 1.1h3.3l1.1-1.1h1.1V201h1.1l1.1-1.1v-1.1l1.1-1.1v-1.1l1.1-1.1h2.2v-1.1l2.2 1.1v-1.1l2.2-1.1v2.2l1.1 2.2 1.1 1.1h1.1v1.1l1.1-1.1 3.3-1.1v2.2l2.2-1.1 1.1-1.1h1.1v-1.1l-1.1-2.2h4.4l1.1-1.1 1.1-1.1 3.3-2.2 3.3-2.2 2.2-2.2 4.5-2.2 1.1-1.1 1.1-1.1 3.3-4.5 2.2-1.1v-2.2l2.2-1.1 3.3 1.1h3.3l4.4 4.5 4.5-3.3 3.3-3.3 1.1-1.1 1.1-1.1V168l3.3-5.6-1.1-1.1-1.1-2.2.4-1.1-4.4-6.7-2.2-3.3v-4.4l1.1-3.3-2.2-1.1H459l-3.3-2.2 1.1-2.2-3.3-1.1v-1.1l-1.1-1.1-2.2-1.1-1.1-1.1h-8.8l-1.1-2.2-1.1-1.1-1.1-1.1v-10l1.1-1.1 1.1-2.2v-1.1l1.1-1.1h1.1l1.1-1.1 1.1-2.2v-4.4h-2.2v-1.1l1.1-1.1 1.1-1.1 1.1-1.1v-2.2l1.1-1.1v-1.1h1.1l1.1-1.1h-1.1v-3.9l1.1-1.1h1.1l1.1-1.1v-1.1l1.1-1.1h1.1v-1.1h-1.1v-7.8h-1.1v-1.1h-3.3l-1.1 1.1h-2.2l1.1 1.1v1.1h-1.1v-1.1l-1.1-1.1v-1.1H441l1.1-1.1H441l-1.1-1.1v1.1l-1.1 2.2v-2.2l-2.2-1.1-1.1 1.1v1.1l2.2 2.2v1.1h-1.1v-1.1l-1.1 1.1v-1.1l-1.1-1.1v-4.4l-1.1-1.1V68l1.1-1.1h-1.1v-2.2l-1.1-1.1 1.1-2.2V59Zm6.7 14.4v1.1l1.1 1.1zm-122.4 63.5-3.3 3.3h-2.2l1.1 1.1h1.1l1.1-1.1zm7.8-22.3v-1.1l-1.1 1.1zM435.5 79h1.1v1.1zm-2.2 1.1h1.1l-1.1 1.1zm-109.1 66.8h1.1l-1.1 1.1z"/>
        <path id="path65" class="friesland stroke-ffffff-1-5" d="M418.8 47.8V49l-1.1 1.1h-1.1v-2.2l1.1-1.1h1.1z"/>
        <path id="path71" class="friesland stroke-ffffff-1-5" d="M372.1 46.7h6.6l14.5-1.1 6.7-1.1h3.3l2.2 1.1h1.1v2.2h-9.9l-2.2 1.1-2.2 1.1H391l-4.4 1.1-4.5 1.1h-4.4l-3.3-1.1h-4.5v1.1l-1.1 1.1-1.1 1.1h-2.2l-1.1 1.1h-2.2 1.1l-1.1 1.1-1.1-1.1h-2.2l-1.1-1.1-2.2-1.1-1.1-2.2V50l1.1-1.1 1.1-2.2 1.1-1.1 2.2-2.2h2.2l1.1 1.1h1.1l1.1 1.1h-1.1l-1.1-1.1H360l-1.1 1.1h3.3l4.4 1.1z"/>
        <path id="path99" class="friesland stroke-ffffff-1-5" d="M460 34.5v2.2h-4.4l-2.2 1.1-3.3 1.1L449 40v1.1l-2.2 1.1h-4.4l-3.3 1.1h-5.5l-1.1 2.2v1.1H431v1.1h-2.2V49l-1.1-2.2v-1.1h1.1l1.1-1.1-1.1-1.1V40l1.1-1.1 2.2-1.1v-1.1h-4.4 1.1l1.1-1.1 2.2 1.1h3.3l11.1-1.1h3.3l6.7-1.1 2.2-1.1z"/>
        <path id="path105" class="friesland stroke-ffffff-1-5" d="m302 97.9-1.1-1.1h4.4-1.1v1.1H302v-1.1z"/>
        <path id="path107" class="friesland stroke-ffffff-1-5" d="M328.7 60.1h-4.4l-2.2 1.1H321l-1.1 1.1-2.2 2.2-1.1 1.1h-2.2v1.1h-1.1l-1.1-1.1v1.1h-1.1l-1.1 1.1h-1.1V69l-1.1-1.1h-3.3l-1.1 1.1-1.1 1.1-1.1-1.1-1.1 1.1H299l-1.1 1.1v1.1h-1.1l-2.2 1.1h1.1l-1.1 1.1h-3.3l-1.1-2.2h-1.1v-1.1l1.1-1.1 2.2-3.3 2.2-3.3 2.2-1.1 2.2-1.1 4.5-1.1 6.7-1.1h2.2l6.7-2.2 5.6-2.2 12.2-4.5h3.3l3.3-1.1 1.1 1.1h1.1l1.1 1.1v3.3-2.2l-1.1-1.1v1.1l-1.1 1.1-1.1 1.1h-3.3l-2.2 1.1-1.1-1.1v1.1h1.1l-1.1 1.1h-2.2v-1.1h-1.1l1.1 1.1v1.1H332l-1.1-1.1 1.1 1.1 1.1 1.1h2.2l-1.1 1.1h-4.4z"/>
        <path id="path109" class="friesland stroke-ffffff-1-5" d="m289.8 85.7-1.1 1.1-1.1 1.1h-3.3V89h-1.1v-1.1h1.1-1.1l1.1-1.1 1.1-1.1h2.2z"/>
        <path id="path111" class="friesland stroke-ffffff-1-5" d="M275.3 86.8v1.1l-1.1 1.1-2.2 1.1-6.7 2.2-2.2 1.1v3.3h1.1v-1.1h1.1l-1.1 1.1-1.1 2.2-3.3 2.2-1.1 1.1h-1.1v1.1l-1.1 1.1-2.2 1.1h-6.8l-1.1 1.1v1.1h1.1-2.2v-4.4l6.7-3.3 3.3-3.3 2.2-1.1 2.2-2.2 1.1-1.1 4.5-3.3 2.2-1.1 1.1-1.1 3.3-1.1 2.2-1.1 2.2-1.1h1.1l3.3 1.1v1.1l-1.1 1.1h-2.2z"/>
    </g>
</svg>
