<svg xml:space="preserve" width="189.063" height="177.652" xmlns="http://www.w3.org/2000/svg">
    <path d="m47.513 1.102-3.3 2.2-1.1 1.1-1.1 1.1h-4.4l1.1 2.2v1.1h-1.1l-1.1 1.1-2.2 1.1v-2.2l-3.3 1.1-1.1 1.1v-1.1h-1.1l-1.1-1.1-1.1-2.2v-2.2l-2.2 1.1v1.1l-2.2-1.1v1.1h-2.5l-1.1 1.1v1.1l-1.1 1.1v1.1l-1.1 1.1h-1.1v1.1h-1.1l-1.1 1.1h-3.4l-1.1-1.1h-2.2v-1.1h-2.2v-1.1h-1.1l-2.2 2.2 1.1 2.2 1.1 1.1 1.1 1.1v1.1h4.4l1.1 1.1 3.3 1.1 1.1 2.2 1.1 1.1h1.1l2.2 2.2 1.1 3.3 2.2 4.5v1.1h1.1l1.1 1.1v1.1l1.1 1.1v2.2l-2.2 1.1-1.1 1.1-1.1 1.1v2.2h1.1v-1.1l2.2 1.1h1.1l2.2 1.1 1.1 1.1 1.1 1.1h2.2l1.1 2.2-1.1 1.1-3.3 2.2h-1.1l-3.3 1.1v1.1l-2.2 1.1h-1.1l-2.2 1.1-1.1-1.1-1.1-1.1-8.9 2.2-1.1 1.1v4.4l1.1 1.1v1.1l-4.5-1.1 1.1 1.1h2.2v1.1l1.1 1.1v2.2l1.1 1.1 1.1 1.1v2.2l1.1 1.1v4.4l2.2-1.1 1.1 1.1 2.2 3.3 1.1 2.2 2.2 3.3v2.2l2.2-1.1 1.1-1.1 1.1-1.1v1.1l1.1 1.1 1.1-1.1 2.2-2.2 2.2-2.2 1.1-1.1h2.2l1.1-1.1 1.1 1.1h1.1l1.1 1.1 1.1 1.1v2.2l1.1 1.1 3.3 1.1 1.1 1.1v1.1l1.1 3.3v2.2l1.1 1.1 1.1 1.1v2.2l-1.1 1.1v3.3l1.1 1.1h1.1v4.4h-1.1v1.1h-1.1l-2.2 1.1h-2.2v1.1h-1.1v1.1l1.1 1.1h1.1l1.1 1.1h-1.1l-1.1 1.1h-1.1v6.6h-1.1v1.1h2.2v4.4h3.3v2.2h1.1v3.3l1.1 1.1 1.1 1.1v3.3l1.1 1.1h3.3v1.1h-1.1l-1.1 1.1v1.1l1.1 2.2h2.2v-1.1l2.2-1.1h1.1v1.1h3.3l1.1 1.1v-1.1h6.6l1.1 1.1 1.1-1.1h3.3v1.1h3.3v-1.1h2.2v-2.2h1.1l1.1-1.1h3.3l1.1-1.1v1.1h5.5v2.2l1.1 2.2 3.3 2.2v2.2h1.1v1.1h2.2v2.2l1.1 1.1v1.1h1.1l1.1 1.1 2.2-1.1h1.1l5.6 1.1 4.4-1.1h1.1l2.2 1.1-1.1 1.1 1.1 1.1 1.1 1.1v-1.1l1.1-1.1 1.1-1.1 1.1 1.1v1.1l1.1-2.2h1.1l3.3 2.2v5.5l-.8 5.2h3.3l2.2 1.1 2.2 1.1h20l1.1-1.1 1.1-1.1 1.1-1.1v-1.1l1.1-5.6h1.1v-1.1l3.3-2.2v-1.1l3.3-1.1h3.3l1.1-2.2v-1.1l1.1-1.1v-1.1l1.1-1.1v-3.3l1.1-1.1 2.2-1.1 1.1 1.1h4.4l3.3-2.2v-1.1l-3.3-4.5-1.1-1.1v-2.2h-1.1v-4.4l1.1-3.3v-1.1h1.1v-1.1h1.1v-2.2l1.1-2.2v-1.1l2.2-3.3v-5.6l-2.2-4.5v-2.2h-3.3l-1.1-2.2-1.1-2.2-2.2-2.2v-1.1l-1.1-2.2v-2.7l-1.1-2.2v-1.1h-2.2l-1.1 2.2-1.1 3.3-2.2 1.1v1.1h-1.1l-5.6-1.1-2.2-1.1-3.3-1.1h-2.2l1.1-2.2h-14.4l-1.1-1.1-4.4-2.2-1.1-1.1-2.2-1.1 1.1-8.9-2.2-3.3-2.2-4.5h1.1l2.2 1.1h2.2l1.1-3.3h2.2l2.2 1.1 1.1-1.1-6.7-5.6v-2.2l1.1-4.5v-1.2l-1.1-1.1-1.1-1.1h-1.1v-3.3l1.1-1.1-1.1-1.1h-2.2l-4.4-2.2-2.2-1.1-2.2-1.1-2.2-1.1v1.1h-1.1l-3.3 1.1h-4.5l-1.1 1.1-2.2 2.2-2.2 2.2 1.1 6.7v1.1h-1.1l-1.1-1.1h-3.3l-1.1-1.1-1.1-1.1v1.1l-1.1 1.1-1.1 1.1-1.1-1.1h-1.1v-2.3h-1.1l-1.1 1.1v1.1h-1.1v-1.1h-1.1v1.1h-2.4v1.1h-1.1l-1.1-1.1v-2.2l-1.1-1.1v-1.1h-1.1v-2.2h-1.1l-1.1-1.1h-1.1l-1.1-1.1v-1.1h-1.1v-1.2h1.1v-1.1h-2.2l-1.1 1.1h-3.3v-1.1h-1.1v1.1h-2.4v-1.1h-1.1l-1.1-1.1v-1.1h-3.3v-1.1h-3.3l-1.1 1.1v1.1l-1.1-1.1v-1.1l-1.1 1.1 1.1 1.1-3.3-1.1 1.1-1.1v-1.1l-2.2-1.1v-1.1l-2.2-3.3v-2.2l-1.1-2.2-1.1-2.2-1.1-2.2v-1.1h1.1l1.1-1.1 3.3-1.1 1.1-1.1h1.1v-1.1l2.2-2.2 1.1-1.1 1.1-2.2h-1.2l-1.1-2.2-1.1-1.1-1.1-1.1-2.2-2.2-1.1-1.1-3.3-3.3v-1.1zm7.8 151.4v2.2l1.1-1.1z" style="stroke:#fff;stroke-width:1.5;stroke-miterlimit:10;fill:#d8adc5"/>
</svg>
