<svg version="1.1" id="svg2" x="0" y="0" viewBox="0 0 370637.44 544496.42" xml:space="preserve" width="370637.44" height="544496.44" xmlns="http://www.w3.org/2000/svg">
   <style type="text/css" id="style199">
      .st2{
         fill:#aabdef;
         stroke:#fff;
         stroke-width:1.5;
         stroke-miterlimit:10;
      }
      
      .friesland {
         fill: #d0e7c7;
      }
      
      .groningen{
         fill: #cbc5fc;
      }
      
      .north-holland {
         fill: #fcf799;
      }
      
      .flevoland{
         fill: #a29c85;
      }
      
      .south-holland{
         fill: #dd8473;
      }
      
      .zeeland{
         fill: #d1c6dd;
      }
      
      path{
         transition:.3s ease
      }
      
	   .stroke-ffffff-1-5 {
	   	stroke:#FFFFFF;
	   	stroke-width:1.5;
	   	stroke-miterlimit:10;
	   }
   </style>
    <g id="g208">
        <g id="g204">
            <path id="path449" class="south-holland" d="m190.8 318.3-6.7 14.5-2.2 3.3-1.1 2.2-3.3 5.6-1.1 1.1v1.1l-2.2 3.3-1.1 2.2-3.3 4.5-6.7 8.9-3.3 2.2v1.1l-2.2 2.2h-1.1v2.2h1.1l-1.1 1.1v-1.1h-1.1l-1.1 1.1-1.1 2.2-1.1 1.1-3.3 3.3-2.2 2.2-3.3 4.5-1.1 1.1-2.2 2.2-1.1 1.1v1.1l-2.2 3.3-2.2 1.1-2.2 2.2h-1.1l-1.1-1.1-5.6-1.1-1.1 1.1h-2.2l-1.1 1.1v1.1l-1.1 1.1-1.1 2.2 1.1 1.1 1.1 1.1v1.1l-2.2 2.2-1.1 2.2-2.2 3.3h2.2l1.1 1.1 1.1-1.1 4.4-1.1h1.1l1.1 2.2H124v1.1l-2.2 2.2v1.1l-1.1 1.1v1.1l1.1 1.1 4.4 6.7v2.2l-1.1 1.1 2.2-1.1 1.1 1.1 1.1 1.1 1.1 1.1v1.1h4.4l-1.1 1.1 1.1 1.1h1.1v-1.1H139.4l1.1 1.1 2.2 3.3H146v1.1h2.2l1.1 2.2 1.1 1.1h2.2l-1.1 1.1h-1.1l1.1 2.2 1.1 1.1 3.3 1.1v1.1h2.2l2.2 1.1h2.2v1.1l4.4 1.1 2.2 2.2h1.1l2.2 1.1 3.3 2.2h1.1l1.1 1.1h2.2v1.1h5.5l2.2 1.1h2.2l1.1 1.1h1.1l1.1 1.1h1.1l2.2-1.1h1.1l3.3-1.1h1.1l1.1-1.1h2.2l1.1-2.2 1.1 1.1h1.1l2.2-1.1v1.1l4.4-1.1 1.1-1.1 1.1-1.1 2.2-1.1 3.3-2.2 1.1-2.2 1.1-1.1 1.1-3.3 1.1-1.1 1.1-1.1v-1.1l1.1-1.1h1.1l2.2-1.1H240.6l2.2-1.1h1.1l2.2-3.3h1.1l2.2-1.1 1.1-1.1h4.4l2.2 1.1H260.4l1.1 1.1h5.5v-1.1l1.1-4.5h-4.4l-1.1-1.1h1.1l-1.1-1.1V430l1.1 1.1 2.2-1.1 1.1 1.1 3.3-1.1 1.1 1.1h1.1V430l-1.1-1.1v-2.2H274.7l1.1-1.1V424h4.4v-1.1l1.1-1.1 1.1-3.3v-1.1h1.1l1.1-2.2 1.1-1.1h-1.1l1.1-1.1H282.4l-4.5-2.2-2.2-1.1-4.5-1.1 1.1-2.2-1.1-3.3h.8-1.1v1.1l-1.1 1.1h-1.1l-2.2-2.2h-2.2l-1.1 1.1-1.1 1.1v1.1l-1.1 1.1h-1.1l-1.1-1.1h-2.2l-1.1 1.1-1.1 2.2h-1.1v1.1h-1.1l-1.1 1.1h-4.4V408.6l-1.1-1.1v-1.1l-1.1-1.1-1.5-1.3-1.1-1.1-1.1-2.2-1.1-2.2-1.1-1.1 4.4-1.1h1.1L243 393h-4.4l-1.1 1.1h-1.1l-1.1-2.2 1.1-1.1v-1.1h1.1l1.1-1.1 1.1-3.3 3.3-2.2h1.1l1.1-1.1 1.1-1.1H239.7l1.1-1.1h-1.1v-1.1l-1.1-3.3v-3.3h1.1l-1.1-1.1-4.4-2.2v-1.1h2.2v-1.1l1.1-1.1h-1.1l1.1-1.1 1.1-1.1h2.2v1.1h5.5v-4.5l3.3-1.1-4.4-3.3-1.1-1.1h-2.2l-1.1-1.1-1.1-1.1v-1.1h-1.1l-1.1-1.1v-1.1h-1.1V345l-1.1-1.1v-1.1h-3.4v1.1l-1.1 1.1H227.5l-1.1 2.2-1.1-1.1-1.1-1.1 1.1-3.3-3.3-1.1-1.1 1.1-1.1 1.1h-2.2l-1.1-1.1v1.1h-1.1l-2.2 1.1-1.1 1.1h-5.5l-2.2-1.1-1.4 1.1h-1.1l-1.1-1.1h-1.1V340.6h1.1v-1.1l1.1-1.1v-5.6l1.1-1.1 1.1-1.1 1.1-1.1v-2.2h1.1v-2.2l1.1-1.1 1.1-2.2-2.2-1.1h-2.2l-1.1 1.1-1.1-1.1v2.2l-3.3-1.1zM125.1 434l-1.1 1.1h1.1z"/>
            <path id="path479" class="south-holland" d="m117.3 431.8-2.2 1.1h2.2zm0 1.1L114 434h-2.2l2.2-1.1-3.3 1.1-6.7 2.2-2.2 1.1h-1.1l-3.3 1.1h-1.1l-1.1 2.2v2.2l1.1 3.3v1.1h1.1v1.1h1.1l2.2-1.1v-1.1h-1.1V445H102.9l1.1-1.1H107.3l1.1-1.1 1.1-1.1 2.2 1.1h2.2l2.2 1.1v1.1l1.1 1.1 1.1 2.2h1.1V451.6h-1.1v1.1h1.1l-1.1 1.1v1.1l1.1 2.2h1.1v1.1l1.1 1.1v1.1l1.1 2.2v2.2h2.2l1.1 1.1 1.1-1.1v1.1h6.6l1.1 1.1 3.3 1.1 1.1 2.2 1.1 1.1H143.6v1.1h2.2l1.1 1.1h1.1v2.2l2.2 1.1 1.1 1.1h5.5l2.2-1.1H162.3l3.3-1.1 2.2-1.1 1.1-1.1 1.1-2.2v-1.1h-1.1v-1.1h4.4l2.2-1.1h-1.1v-2.2h-1.1l-1.1 1.1H162.3l-2.2-3.3h-2.2l-1.1-1.1h-1.1l-1.1-1.1v-1.1l-2.2-1.1v-2.2h-1.1l-3.3-3.3-3.3-3.3h-.7v-1.1h-2.2l-1.1-1.1h-1.1l-2.2-2.2-2.2-1.1H134l-4.4-2.2-1.1-1.1-3.3-1.1v-1.1l-1.1-1.1H123v1.1l-1.1-1.1h1.1v-2.2h-1.1v1.1h-1.1v-1.1l-2.2-1.1V434Zm-21.1 15.6-1.1 2.2-1.1 1.1-2.2 1.1h1.1l2.2 1.1 1.1 1.1h1.1V454l-1.1-1.1-1.1-1.1z"/>
            <path id="path547" class="south-holland" d="m160.7 456.3 2.2 1.1 3.3 1.1 2.2 1.1 1.1 1.1h-1.1l-2.2 1.1h-4.4l-1.1-1.1-1.1-1.1h-1.1l-2.2-2.2h-1.1l-1.1-1.1 1.1-1.1h2.2z"/>
        </g>
        <path id="path483" class="south-holland" d="m109.5 448.5 1.1 1.1-1.1-1.1h-2.2l-2.2 1.1-2.2 1.1h-1.1v-1.1l2.2-1.1v-1.1l1.1-1.1 1.1-1.1v1.1h1.1z"/>
        <path id="path911" class="south-holland" d="M112.9 454h1.1l1.1-1.1v2.2l1.1 3.3 2.2 2.2-1.1 1.1h-1.1v-1.1l-1.1-1.1v-1.1l-1.1-2.2-1.1-1.1z"/>
    </g>
    <g id="g218">
        <path id="path55" class="friesland stroke-ffffff-1-5" d="m435.5 57.9-5.6 2.2h-1.1l-2.2-1.1h-3.3v1.1H421l-1.1-1.1-4.5 1.1H412.1l-1.1 1.1-4.4 1.1h-2.2l-4.5 2.2h-5.5v-1.1l-1.1-1.1v2.2l-2.2 1.1-2.2 1.1-1.1 1.1-2.2 1.1-1.1 1.1-2.2 1.1h-2.2l-3.3 2.2-4.4 2.2-2.2 1.1-5.6 3.3H361l-1.1 1.1-2.2 1.1h-1.1l-1.1 1.1-2.2 1.1-2.2 1.1-1.1 1.1-2.2 2.2-1.1 2.2-1.1 1.1v1.1h-1.1v1.1l-2.2 1.1-1.1 1.1h-1.1l-2.2 2.2-1.1 1.1h-1.1l-1.1 1.1-1.1 2.2H332l-1.1 1.1-1.1 2.2-1.1 3.3-1.1 1.1v1.1h1.1l-1.1 1.1-1.1 1.1-1.1 1.1v1.1h1.1v2.2l-1.1 2.2v6.6l-1.1 1.1v1.1l-2.2 1.1H321l1.1 1.1-1.1 1.1v1.1l-1.1 1.1h1.1l1.1 1.1 1.1 2.2V141.5l1.1 2.2h-1.1l1.1 1.1h-1.1v-1.1H321v2.2h2.2V149.2l1.1-1.1v1.1h-1.1v1.1h1.1l1.1 1.1V154.7l-1.1 1.1v2.2l1.1 3.3v2.2l1.1 1.1v.4l2.2-1.5-2.2 2.2v-.7l-1.1.7V169h-1.1l-1.1 1.1 1.1 1.1 1.1 2.2v4.4l-1.1 1.1H322l-2.2 2.2-1.1 1.1-1.1 1.1 1.1 1.1v2.2h2.2v1.1h1.1l2.2 2.2 2.2 2.2h5.5V191l3.3 1.1h2.2l1.1 1.1 4.4 2.2h2.2v1.1h2.2l1.1-1.1h1.1v-1.1l1.1-1.1v-1.1l2.2-1.1 2.2 1.1 1.1-1.1 2.2-1.1h1.1l1.1 1.1v2.2h6.6v1.1h1.1l1.1-1.1v1.1l2.2 1.1-1.1-2.2 3.3 1.1h1.1l4.4 5.6 1.1 2.2v1.1l1.1-1.1 2.2-2.2h1.1v1.1h2.2v1.1h2.2l1.1 1.1H393.5l1.1-1.1h1.1V201h1.1l1.1-1.1v-1.1l1.1-1.1v-1.1l1.1-1.1h2.2v-1.1l2.2 1.1v-1.1l2.2-1.1v2.2l1.1 2.2 1.1 1.1h1.1v1.1l1.1-1.1 3.3-1.1v2.2l2.2-1.1 1.1-1.1h1.1v-1.1l-1.1-2.2h4.4l1.1-1.1 1.1-1.1 3.3-2.2 3.3-2.2 2.2-2.2 4.5-2.2 1.1-1.1 1.1-1.1 3.3-4.5 2.2-1.1v-2.2l2.2-1.1 3.3 1.1h3.3l4.4 4.5 4.5-3.3 3.3-3.3 1.1-1.1 1.1-1.1V168l3.3-5.6-1.1-1.1-1.1-2.2.4-1.1-4.4-6.7-2.2-3.3v-4.4l1.1-3.3-2.2-1.1H459l-3.3-2.2 1.1-2.2-3.3-1.1v-1.1l-1.1-1.1-2.2-1.1-1.1-1.1h-8.8l-1.1-2.2-1.1-1.1-1.1-1.1v-10l1.1-1.1 1.1-2.2v-1.1l1.1-1.1h1.1l1.1-1.1 1.1-2.2v-4.4h-2.2v-1.1l1.1-1.1 1.1-1.1 1.1-1.1v-2.2l1.1-1.1v-1.1h1.1l1.1-1.1h-1.1v-3.9l1.1-1.1h1.1l1.1-1.1v-1.1l1.1-1.1h1.1v-1.1h-1.1V74.6h-1.1v-1.1H446.9l-1.1 1.1h-2.2l1.1 1.1v1.1h-1.1v-1.1l-1.1-1.1v-1.1H441l1.1-1.1H441l-1.1-1.1v1.1l-1.1 2.2v-2.2l-2.2-1.1-1.1 1.1v1.1l2.2 2.2v1.1h-1.1v-1.1l-1.1 1.1v-1.1l-1.1-1.1v-4.4l-1.1-1.1V68l1.1-1.1h-1.1v-2.2l-1.1-1.1 1.1-2.2V59Zm6.7 14.4v1.1l1.1 1.1zm-122.4 63.5-3.3 3.3h-2.2l1.1 1.1h1.1l1.1-1.1zm7.8-22.3v-1.1l-1.1 1.1zM435.5 79h1.1v1.1zm-2.2 1.1h1.1l-1.1 1.1zm-109.1 66.8h1.1l-1.1 1.1z"/>
        <path id="path65" class="friesland stroke-ffffff-1-5" d="M418.8 47.8V49l-1.1 1.1h-1.1v-2.2l1.1-1.1h1.1z"/>
        <path id="path71" class="friesland stroke-ffffff-1-5" d="M372.1 46.7h6.6l14.5-1.1 6.7-1.1h3.3l2.2 1.1h1.1v2.2h-9.9l-2.2 1.1-2.2 1.1H391l-4.4 1.1-4.5 1.1h-4.4l-3.3-1.1h-4.5v1.1l-1.1 1.1-1.1 1.1h-2.2l-1.1 1.1h-2.2 1.1l-1.1 1.1-1.1-1.1h-2.2l-1.1-1.1-2.2-1.1-1.1-2.2V50l1.1-1.1 1.1-2.2 1.1-1.1 2.2-2.2h2.2l1.1 1.1h1.1l1.1 1.1h-1.1l-1.1-1.1H360l-1.1 1.1H362.2l4.4 1.1z"/>
        <path id="path99" class="friesland stroke-ffffff-1-5" d="M460 34.5v2.2h-4.4l-2.2 1.1-3.3 1.1L449 40v1.1l-2.2 1.1h-4.4l-3.3 1.1h-5.5l-1.1 2.2v1.1H431v1.1h-2.2V49l-1.1-2.2v-1.1h1.1l1.1-1.1-1.1-1.1V40l1.1-1.1 2.2-1.1v-1.1h-4.4 1.1l1.1-1.1 2.2 1.1h3.3l11.1-1.1h3.3l6.7-1.1 2.2-1.1z"/>
        <path id="path105" class="friesland stroke-ffffff-1-5" d="m302 97.9-1.1-1.1h4.4-1.1v1.1H302v-1.1z"/>
        <path id="path107" class="friesland stroke-ffffff-1-5" d="M328.7 60.1h-4.4l-2.2 1.1H321l-1.1 1.1-2.2 2.2-1.1 1.1h-2.2v1.1h-1.1l-1.1-1.1v1.1h-1.1l-1.1 1.1h-1.1V69l-1.1-1.1H304.5l-1.1 1.1-1.1 1.1-1.1-1.1-1.1 1.1H299l-1.1 1.1v1.1h-1.1l-2.2 1.1h1.1l-1.1 1.1H291.3l-1.1-2.2h-1.1v-1.1l1.1-1.1 2.2-3.3 2.2-3.3 2.2-1.1 2.2-1.1 4.5-1.1 6.7-1.1h2.2l6.7-2.2 5.6-2.2 12.2-4.5h3.3l3.3-1.1 1.1 1.1h1.1l1.1 1.1V54.6v-2.2l-1.1-1.1v1.1l-1.1 1.1-1.1 1.1H340.2l-2.2 1.1-1.1-1.1v1.1h1.1l-1.1 1.1h-2.2v-1.1h-1.1l1.1 1.1v1.1H332l-1.1-1.1 1.1 1.1 1.1 1.1h2.2l-1.1 1.1h-4.4z"/>
        <path id="path109" class="friesland stroke-ffffff-1-5" d="m289.8 85.7-1.1 1.1-1.1 1.1H284.3V89h-1.1v-1.1h1.1-1.1l1.1-1.1 1.1-1.1h2.2z"/>
        <path id="path111" class="friesland stroke-ffffff-1-5" d="M275.3 86.8v1.1l-1.1 1.1-2.2 1.1-6.7 2.2-2.2 1.1V96.7h1.1v-1.1h1.1l-1.1 1.1-1.1 2.2-3.3 2.2-1.1 1.1h-1.1v1.1l-1.1 1.1-2.2 1.1h-6.8l-1.1 1.1v1.1h1.1-2.2v-4.4l6.7-3.3 3.3-3.3 2.2-1.1 2.2-2.2 1.1-1.1 4.5-3.3 2.2-1.1 1.1-1.1 3.3-1.1 2.2-1.1 2.2-1.1h1.1l3.3 1.1v1.1l-1.1 1.1h-2.2z"/>
    </g>
    <path id="path117" class="stroke-ffffff-1-5" d="m477.8 107.9-2.2 1.1-1.1 1.1v1.1l-2.2 1.1-2.2 1.1-1.1 1.1v1.1l-1.1 1.1-1.1 2.2-1.1 1.1v1.1l-2.2 5.6v4.4h-1.1l-1.1 4.5H460l-3.3-1.1-1.1 2.2 3.3 2.2h3.3l2.2 1.1-1.1 3.3v4.4l2.2 3.3 4.4 6.7 1.1 2.2 1.1 2.2 1.1 1.1-3.3 5.6v1.1l-1.1 1.1-1.1 1.1-3.3 3.3-4.5 3.3-4.4-4.5h-3.3l-3.3-1.1-2.2 1.1v2.2l-2.2 1.1-3.3 4.5-1.1 1.1-1.1 1.1-4.5 2.2-2.2 2.2-3.3 2.2 1.1 2.2v1.1l3.3 3.3 1.1 1.1 2.2 2.2 1.1 1.1 1.1 1.1 1.1 2.2h1.1l-1.1 2.2-1.1 1.1-2.2 2.2v1.1h-1.1l-1.1 1.1-3.3 1.1-1.1 1.1H429v1.1l1.1 2.2 1.1 2.2 1.1 2.2v2.2l2.2 3.3v1.1l2.2 1.1v1.1l-1.1 1.1 3.3 1.1-1.1-1.1 1.1-1.1v1.1l1.1 1.1v-1.1l1.1-1.1H444.4v1.1H447.7v1.1l1.1 1.1h1.1v1.1h2.2v-1.1h1.1v1.1H456.5l1.1-1.1h2.2v1.1h-1.1v1.1h1.1v1.1l1.1 1.1h1.1l1.1 1.1h1.1v2.2h1.1v1.1l1.1 1.1v2.2l1.1 1.1h1.1v-1.1h2.2v.1h1.1v1.1h1.1V247l1.1-1.1h1.1v2.2h1.1l1.1 1.1 1.1-1.1 1.1-1.1v-1.1l1.1 1.1 1.1 1.1H485.1l1.1 1.1h1.1v-1.1l-1.1-6.7 2.2-2.2 2.2-2.2 1.1-1.1h4.5l3.3-1.1h1.1v-1.1l2.2 1.1 2.2 1.1 2.2 1.1 4.5 2.2h2.2l1.1 1.1-1.1 1.1V244.7h1.1l1.1-1.1h1.1l1.1-1.1 1.1-2.2H522.7l1.1-1.1h5.5l1.1 1.1 1.1-1.1h5.5l1.1-1.1 1.1 1.1H542.5l2.2 1.1v1.1h7.7l1.1-1.1h1.1l1.1 1.1 1.1-1.1v1.1h1.1l3.3 1.1h1.1l2.2-2.2V232.5l1.1-11.1v-21.1l3.3-6.7h-3.3v-2.2l-1.1-1.1-2.2-3.3h-1.1v-1.1H559v-1.1l2.2-6.7 1.1-1.1v-2.2h-2.2l-1.1-1.1-1.1-1.1-1.1-2.2-2.2-3.3h-1.1V166h-1.1l-1.1-2.2-1.1-2.2-1.1-1.1-1.1-1.1V158l-1.1-1.1-2.2-2.2-2.2-2.2-1.1-1.1-5.6-5.6-3.3-3.3-3.3-3.3V138l-4.5-3.3-1.1-2.2-4.4-3.3V128h-1.1l-1.1-1.1h-5.5l-2.2 1.1h-1.1l-5.6 2.2v-1.1l-1.1-1.1 1.1-1.1h-1.1v-1.1l-1.1-1.1-1.1-1.1-1.1-1.1v-1.1H496v-1.1l-1.1-1.1v-2.3l-2.2 1.1-1.1-1.1v-1.1l-1.1-3.3-1.1 1.1-1.1-1.1-1.1-3.3H485l-1.1-1.1-1.1 1.1-1.1-1.1H480Zm89 83.5h1.1v-1.1z" style="fill:#dff"/>
    <path id="path129" class="stroke-ffffff-1-5" d="m428.8 191.4-3.3 2.2-1.1 1.1-1.1 1.1h-4.4l1.1 2.2v1.1h-1.1l-1.1 1.1-2.2 1.1v-2.2l-3.3 1.1-1.1 1.1v-1.1h-1.1l-1.1-1.1-1.1-2.2v-2.2l-2.2 1.1v1.1l-2.2-1.1v1.1H401l-1.1 1.1v1.1l-1.1 1.1v1.1l-1.1 1.1h-1.1v1.1h-1.1l-1.1 1.1H391l-1.1-1.1h-2.2v-1.1h-2.2v-1.1h-1.1l-2.2 2.2 1.1 2.2 1.1 1.1 1.1 1.1v1.1h4.4l1.1 1.1 3.3 1.1 1.1 2.2 1.1 1.1h1.1l2.2 2.2 1.1 3.3 2.2 4.5v1.1h1.1l1.1 1.1v1.1l1.1 1.1v2.2l-2.2 1.1-1.1 1.1-1.1 1.1v2.2h1.1v-1.1l2.2 1.1h1.1l2.2 1.1 1.1 1.1 1.1 1.1h2.2l1.1 2.2-1.1 1.1-3.3 2.2h-1.1l-3.3 1.1v1.1l-2.2 1.1H402l-2.2 1.1-1.1-1.1-1.1-1.1-8.9 2.2-1.1 1.1v4.4l1.1 1.1v1.1l-4.5-1.1 1.1 1.1h2.2v1.1l1.1 1.1v2.2l1.1 1.1 1.1 1.1v2.2l1.1 1.1v4.4l2.2-1.1 1.1 1.1 2.2 3.3 1.1 2.2 2.2 3.3v2.2l2.2-1.1 1.1-1.1 1.1-1.1v1.1l1.1 1.1 1.1-1.1 2.2-2.2 2.2-2.2 1.1-1.1h2.2l1.1-1.1 1.1 1.1h1.1l1.1 1.1 1.1 1.1v2.2l1.1 1.1 3.3 1.1 1.1 1.1v1.1l1.1 3.3v2.2l1.1 1.1 1.1 1.1v2.2l-1.1 1.1V298.2l1.1 1.1h1.1v4.4h-1.1v1.1h-1.1l-2.2 1.1h-2.2v1.1h-1.1v1.1l1.1 1.1h1.1l1.1 1.1h-1.1l-1.1 1.1h-1.1V318h-1.1v1.1h2.2v4.4H427.1v2.2h1.1v3.3l1.1 1.1 1.1 1.1V334.5l1.1 1.1H434.8v1.1h-1.1l-1.1 1.1v1.1l1.1 2.2h2.2V340l2.2-1.1h1.1v1.1H442.5l1.1 1.1V340h6.6l1.1 1.1 1.1-1.1H455.7v1.1h3.3V340h2.2v-2.2h1.1l1.1-1.1H466.7l1.1-1.1v1.1h5.5v2.2l1.1 2.2 3.3 2.2v2.2h1.1v1.1h2.2v2.2l1.1 1.1v1.1h1.1l1.1 1.1 2.2-1.1h1.1l5.6 1.1 4.4-1.1h1.1l2.2 1.1-1.1 1.1 1.1 1.1 1.1 1.1v-1.1l1.1-1.1 1.1-1.1 1.1 1.1v1.1l1.1-2.2h1.1l3.3 2.2v5.5l-.8 5.2H513.3l2.2 1.1 2.2 1.1H537.7l1.1-1.1 1.1-1.1 1.1-1.1v-1.1l1.1-5.6h1.1v-1.1l3.3-2.2v-1.1l3.3-1.1h3.3l1.1-2.2v-1.1l1.1-1.1v-1.1l1.1-1.1V341.8l1.1-1.1 2.2-1.1 1.1 1.1h4.4l3.3-2.2v-1.1l-3.3-4.5-1.1-1.1v-2.2H563v-4.4l1.1-3.3v-1.1h1.1v-1.1h1.1v-2.2l1.1-2.2v-1.1l2.2-3.3v-5.6l-2.2-4.5v-2.2H564.1l-1.1-2.2-1.1-2.2-2.2-2.2v-1.1l-1.1-2.2V286l-1.1-2.2v-1.1h-2.2l-1.1 2.2-1.1 3.3-2.2 1.1v1.1h-1.1l-5.6-1.1-2.2-1.1-3.3-1.1h-2.2l1.1-2.2H523.2l-1.1-1.1-4.4-2.2-1.1-1.1-2.2-1.1 1.1-8.9-2.2-3.3-2.2-4.5h1.1l2.2 1.1h2.2l1.1-3.3h2.2l2.2 1.1 1.1-1.1-6.7-5.6v-2.2l1.1-4.5V247l-1.1-1.1-1.1-1.1h-1.1V241.5l1.1-1.1-1.1-1.1h-2.2l-4.4-2.2-2.2-1.1-2.2-1.1-2.2-1.1v1.1H500l-3.3 1.1h-4.5l-1.1 1.1-2.2 2.2-2.2 2.2 1.1 6.7v1.1h-1.1l-1.1-1.1H482.3l-1.1-1.1-1.1-1.1v1.1l-1.1 1.1-1.1 1.1-1.1-1.1h-1.1v-2.3h-1.1l-1.1 1.1v1.1h-1.1V247h-1.1v1.1H468.9v1.1h-1.1l-1.1-1.1v-2.2l-1.1-1.1v-1.1h-1.1v-2.2h-1.1l-1.1-1.1h-1.1l-1.1-1.1v-1.1H459V237h1.1v-1.1h-2.2l-1.1 1.1H453.5v-1.1h-1.1v1.1H450v-1.1h-1.1l-1.1-1.1v-1.1H444.5v-1.1H441.2l-1.1 1.1v1.1l-1.1-1.1v-1.1l-1.1 1.1 1.1 1.1-3.3-1.1 1.1-1.1v-1.1l-2.2-1.1v-1.1l-2.2-3.3v-2.2l-1.1-2.2-1.1-2.2-1.1-2.2v-1.1h1.1l1.1-1.1 3.3-1.1 1.1-1.1h1.1v-1.1l2.2-2.2 1.1-1.1 1.1-2.2H440l-1.1-2.2-1.1-1.1-1.1-1.1-2.2-2.2-1.1-1.1-3.3-3.3v-1.1zm7.8 151.4v2.2l1.1-1.1z" style="fill:#d8adc5"/>
    <path id="path169" class="stroke-ffffff-1-5" d="m394.3 271.5-2.2 1.1v1.1L391 277l-1.1 2.2v2.2l-1.1 2.2v2.2l-1.1-1.1v2.2h-1.1v-2l-1.1 2.2v1.1h1.1v1.1h-1.1l1.1 1.1-1.1 1.1-1.1 1.1-3.4 3.4-2.2 2.2-2.2 1.1v1.1h-1.1l-1.1 1.1h-1.1l-1.1 1.1v1.1H371v1.1h-2.2l-2.2 1.1-1.1 1.1h-1.1l-1.1 1.1-2.2 1.1H360l-1.1 1.1-1.1 1.1v1.1h-2.2v2.2h-1.1v1.1h-1.1v1.1h-1.1v1.1l-2.2 1.1-1.1 1.1-1.1 1.1v1.1l-1.1 2.2v2.2l-1.1 2.2v1.1l-1.1 2.2-1.1 1.1H338l-2.2 2.2-1.1-1.1-1.1 1.1-3.3 1.1h-2.2l-1.1 1.1h-2.2l-1.1 5.6v1.1l2.2 1.1v-.6l4.5 3.3v7.7l1.1 1.1h5.6v1.1H336l1.1 1.1v2.2h2.2v2.2h2.2v2.2h-2.2v2.2h1.1v1.1h-2.2v1.1l-1.1 1.1V374.7l-1.1 1.1-1.1 1.1h-1.1v1.1l1.1 1.1 2.2 1.1h2.2l1.1-1.1 1.1-1.1h1.1l1.1-1.1v-1.1h1.1V373.9l-1.1-1.1 3.3-1.1 1.1 2.2V377.2l1.1 1.1-1.1 1.1V386.1h2.2v1.1h-1.1l3.3 2.2v6.6l1.1 1.1 1.1 1.1h1.1v1.1l1.1 2.2v1.1l1.1 1.1-1.1 1.1 1.1 1.1v2.2l-1.1 1.1-2.2 1.1-2.2-1.1-3.3-1.1-2.2-1.1-1.1-2.2h-2.2l-1.1-1.1h-1.1l-2.2-1.1-1.1-1.1H332l-1.1-1.1h-1.1l-1.1 1.1-1.1 1.1h-1.1l-2.2 1.1h-1.1l-1.1 1.1H321l-2.2-1.1-1.1 1.1h-1.1l-1.1 1.1v1.1h-1.1l-1.1 1.1H312l-1.1-1.1-1.1-1.1h-4.4l-2.2-2.2-2.2-1.1h-2.2v2.2l-1.1 1.1-1.1 1.1h-2.2l-1.1-1.1-1.1-1.1-1.1 2.2-1.1 3.3-2.2 2.2-1.1 1.1h1.1l-1.1 1.1-1.1 2.2h-1.1v1.1l-1.1 3.3-1.1 1.1v1.1h-4.4v2.2l-1.1 1.1H273.5v2.2l1.1 1.1v1.1h-1.1l-1.1-1.1-3.3 1.1-1.1-1.1-2.2 1.1-1.1-1.1v2.2l1.1 1.1h-1.1l1.1 1.1h4.4l-1.1 4.5v1.1h-2.2v2.2h1.1l1.1 1.1 2.2 1.1 1.1 1.1h1.1v1.1l1.1 1.1v1.1h1.1v1.1h1.1l1.1-1.1 1.1-1.1h1.1l1.1 1.1 1.1 1.1 3.3 1.1V454.4l1.1 1.1-1.1 1.1-1.1 1.1h-1.1v1.1l1.1 1.1 2.2-1.1h9.9l1.1-1.1 1.1 1.1 2.2 1.1 1.1 1.1 1.1-1.1 1.1-1.1h2.2l2.2 1.1h1.1v-1.1l2.2-1.1 5.6-2.2v-1.1h1.1V450l1.1-2.2v-1.1l2.2-3.3 1.1-1.1 1.1-1.1v-1.1l1.1-1.1h1.1v1.1l1.1 1.1 1.1 1.1h5.5l1.1-1.1 1.1-2.2v-1.1H339.6l1.1 1.1v1.1h2.2l1.1 1.1h1.1l1.1-1.1V439l1.1-1.1h5.5l2.2 1.1 1.1 1.1H359.4l1.1 1.1v2.2l1.1 1.1 1.1 1.1 1.1 1.1h2.2l1.1 1.1h1.1v2.2h1.1l1.1 1.1h2.2l1.1 1.1 1.1 1.1v1.1l1.1 1.1h5.5l3.3-1.1h8.8v-1.5l-1.1-1.1 1.1-1.1H396.8l1.1 1.1 1.1 1.1v1.1l1.1 1.1v1.1l1.1 1.1h1.1v1.1l1.1 1.1h1.1l1.1-1.1v-1.1l1.1-1.1 2.2-1.1h1.1l1.1-2.2v-1.1h-.1v-2.2h1.1l-1.1-1.1h-1.1V445.2l-2.2-2.2h-2.2v-1.1l1.1-1.1h1.1l-2.2-1.1 2.2-3.3h1.1v1.1H412.1l2.2-1.1h1.1l1.1-1.1 1.1-1.1 1.1 1.1 1.1-1.1 1.1-1.1h1.1l-1.1-1.1 1.1-1.1 1.1-1.1 1.1 1.1 2.2 2.2h2.2l4.4 1.1h3.3l1.1 1.1v-5.5l-2.2-1.1h-1.1v-2.2l-1.1-2.2-1.1-1.1H428.6l1.1-1.1V421h1.1l1.1 1.1 4.5-2.2 1.1 1.1h1.1l1.1 1.1 2.2 1.1v1.1h-2.2l1.1 1.1 1.1 1.1 1.1 1.1 2.2 1.1h2.2v-1.1h2.2l1.1 1.1h1.1v-1.1h1.1v-1.1l1.1 1.1 3.3 1.1v1.1l1.1 2.2v1.1l2.2-1.1H463.9l1.1 1.1h1.1l1.1 1.1v2.2H470.5l2.2 1.1h1.1l-1.1-2.2 1.1 1.1-1.1-2.2v-1.1l1.1-1.1h-1.1v-1.1h-1.1l-1.1-1.1V426.5l2.2 1.1h1.1l1.1 1.1h1.1v1.1h2.2l1.1-1.1 1.1 2.2h1.1l1.1 1.1 1.1-1.1 3.3-1.1v-2.2h1.1l1.1-1.1h2.2l1.1-1.1V424h1.1l1.1-1.1v1.1h1.1l1.1-1.1 2.2-1.1 5.6-2.2h2.2v-1.1l2.2-1.1 2.2-1.1h1.1l1.1-1.1v1.1h2.2v1.1l1.1 1.1 2.2 2.2 2.2-1.1v-1.1h1.1l1.1-1.1h1.1v-1.1l1.1-1.1h1.1l2.2-3.3 1.1-1.1v-5.5l2.2-1.1h2.2l1.1-2.2-1.1-1.1V397.6l-3.3-1.1h1.1l-6.7-4.5-1.1-1.1-1.1-2.2-5.6-2.2h-4.5V381.7l1.1-1.1v-2.2h3.3l2.2-1.1 2.2-1.1v-3.4h1.1v-1.1l1.1-4.5H516.4l-2.2-1.1-2.2-1.1h-2l2.2-3.3v-5.5l-3.3-2.2h-1.1l-1.1 2.2V355l-1.1-1.1-1.1 1.1-1.1 1.1v1.1l-1.1-1.1-1.1-1.1 1.1-1.1-2.2-1.1H499l-4.4 1.1-5.6-1.1h-1.1l-2.2 1.1-1.1-1.1h-1.1v-1.1l-1.1-1.1v-2.2H480v-1.1h-1.1V345l-3.3-2.2-1.1-2.2v-2.2h-5.6v-1.1l-1.1 1.1H464.5l-1.1 1.1h-1.1v2.2H460v1.1h-3.3v-1.1H453.4l-1.1 1.1-1.1-1.1h-6.6v1.1l-1.1-1.1H440.2v-1.1h-1.1l-2.2 1.1v1.1l1.1 1.1-1.1 1.1v-2.2h-2.2l-1.1-2.2v-1.1l1.1-1.1h1.1v-1.1H432.5l-1.1-1.1v-3.4l-1.1-1.1-1.1-1.1v-3.3h-1.1v-2.2H424.8v-4.4h-2.2v-1.1h1.1V313h1.1l1.1-1.1h1.1l-1.1-1.1h-1.1l-1.1-1.1v-1.1h1.1v-1.1h2.2l2.2-1.1h1.1v-1.1h1.1v-4.4h-1.1l-1.1-1.1V296l1.1-1.1v-2.2l-1.1-1.1-1.1-1.1v-2.2L427 285v-1.1l-1.1-1.1-3.3-1.1-1.1-1.1v-2.2l-1.1-1.1-1.1-1.1h-1.1l-1.1-1.1-1.1 1.1h-2.2l-1.1 1.1-2.2 2.2-2.2 2.2-1.1 1.1-1.1-1.1v-1.1l-1.1 1.1-1.1 1.1-2.2 1.1v-2.2l-2.2-3.3-1.1-2.2-2.2-3.3zm-36.7 40.1-2.2-1.1 1.1 1.1z" style="fill:#e3a528"/>
    <path id="path267" class="stroke-ffffff-1-5" d="M266.4 324.9v1.1h-1.1v2.2l-2.2-1.1v1.1l-2.2 1.1v1.1H257.6l-2.2-1.1-1.1 1.1v1.1l1.1 1.1-1.1 1.1-1.3 1.3v1.1h-2.2v1.1l-1.1-1.1h-2.2l-1.1 1.1-2.2 1.1v1.1H243l-1.1 1.1h-1.1v1.1h-1.1l-1.1 1.1H235.3v1.1l1.1 1.1V348.2h1.1v1.1l1.1 1.1h1.1v1.1l1.1 1.1 1.1 1.1h2.2l1.1 1.1 4.4 3.3-3.3 1.1v4.5h-5.5v-1.1h-2.2l-1.1 1.1-1.1 1.1h1.1l-1.1 1.1v1.1h-2.2v1.1l4.4 2.2 1.1 1.1h-1.1v3.3l1.1 3.3v1.1h1.1l-1.1 1.1H246.3l-1.1 1.1-1.1 1.1H243l-3.3 2.2-1.1 3.3-1.1 1.1h-1.1v1.1l-1.1 1.1 1.1 2.2h1.1l1.1-1.1h4.4l1.1 3.3H243l-4.4 1.1 1.1 1.1 1.1 2.2 1.1 2.2 1.1 1.1 1.1 1.1 1.1 1.1v1.1l1.1 1.1V411h4.4l1.1-1.1h1.1v-1.1h1.1l1.1-2.2 1.1-1.1h2.2l1.1 1.1h1.1l1.1-1.1v-1.1l1.1-1.1 1.1-1.1h2.2l2.2 2.2h1.1l1.1-1.1v-1.1h2.2l1.1 3.3-1.1 2.2 4.5 1.1 2.2 1.1 4.5 2.2H287.2l2.2-2.2 1.1-3.3 1.1-2.2 1.1 1.1 1.1 1.1h2.2l1.1-1.1 1.1-1.1v-2.2h2.2l2.2 1.1 2.2 2.2h4.4l1.1 1.1 1.1 1.1h1.1l1.1-1.1h1.1v-1.1l1.1-1.1h1.1l1.1-1.1 2.2 1.1h1.1l1.1-1.1h1.1l2.2-1.1h1.1l1.1-1.1 1.1-1.1h1.1l1.1 1.1h5.5l1.1 1.1 2.2 1.1h1.1l1.1 1.1h2.2l1.1 2.2 2.2 1.1 3.3 1.1 2.2 1.1 2.2-1.1 1.1-1.1v-2.2l-1.1-1.1 1.1-1.1-1.1-1.1v-1.1l-1.1-2.2v-1.1h-1.1l-1.1-1.1-1.1-1.1V389l-3.3-2.2h1.1v-1.1h-2.2V379l1.1-1.1-1.1-1.1V373.9l-1.1-2.2-3.3 1.1 1.1 1.1v2.2h-1.1v1.1l-1.1 1.1H340l-1.1 1.1-1.1 1.1h-2.2l-2.2-1.1-1.1-1.1v-1.1h1.1l1.1-1.1 1.1-1.1V371.7l1.1-1.1v-1.1h2.2v-1.1h-1.1v-2.2h2.2v-2.3h-2.2v-2.2h-2.2v-2.2l-1.1-1.1h1.1v-1.1H330l-1.1-1.1V348.5l-4.5-3.3v1.1l-2.2-1.1v-1.1l1.1-5.6-1.1-1.1-1.1-1.1-1.1-1.1h-1.1v-1.1l-1.1-1.1H314.5l-1.1-1.1H312l-1.1-1.1h-4.5l-2.2-1.1-3.3 6.7v2.2l-1.1 2.2-1.1 3.3-1.1 2.2v2.2l-1.1 1.1v1.1l-2.2 4.5h-4.5l-6.7-1.1H282l-5.6 2.2-4.4 1.1v-4.5h-1.1V349.6h-1.1l-1.1-1.1h2.2V341.9h1.1l2.2-1.1-2.2-1.1V336.4h-1.1v1.1l-1.1-1.1-1.1-3.3V332h2.2v-1.1h2.2v-1.1h2.2l-1.1-1.1h-1.1l-1.1 1.1h-1.1l-1.1-1.1-1.1 1.1v-4.5h-1.1z" style="fill:#f8e7fe"/>
    <g id="g227">
        <path id="path325" class="north-holland stroke-ffffff-1-5" d="m227.5 165.8-2.2 3.3v4.4l-1.1 3.3v7.8l-2.2 6.7-1.1 6.7-2.2 6.7v2.2h-1.1v2.2l-2.2 4.5v2.2l-2.2 6.7v7.7l-1.1 4.5v4.4l-1.1 4.5v5.5l-1.1 1.1v1.1l-1.1 7.8-1.1 10-1.1 5.6-1.1 2.2-1.1 2.2-1.1 2.2-1.1 3.3 2.2-1.1h1.1l2.2-1.1 1.1 1.1h-1.1v1.1h-2.2l-1.1 1.1h2.2v1.1l-2.2-1.1H203v1.1l-2.2-1.1v2.2l1.1 2.2-1.1 1.1v2.2l-1.1 2.2-1.1 4.5-1.1 3.3-2.2 5.6-4.4 8.9 7.8 3.3 3.3 1.1v-2.2l1.1 1.1 1.1-1.1h2.2l2.2 1.1-1.1 2.2-1.1 1.1v2.2h-1.1v2.2l-1.1 1.1-1.1 1.1-1.1 1.1v5.5l-1.1 1.1v1.1h-1.1V343.2h1.1l1.1 1.1h1.1l1.1-1.1 2.2 1.1h5.5l1.1-1.1 2.2-1.1h1.1V341l1.1 1.1h2.2l1.1-1.1 1.1-1.1 3.3 1.1-1.1 3.3 1.1 1.1 1.1 1.1 1.1-2.2H230.6l1.1-1.1v-1.1h6.6l1.1-1.1h1.1v-1.1h1.1l1.1-1.1h1.1v-1.1l2.2-1.1 1.1-1.1h2.2l1.1 1.1v-1.1h2.2v-.5l1.1-1.1 1.1-1.1-1.1-1.1v-1.1l1.1-1.1 2.2 1.1H260.3v-1.1l2.2-1.1v-1.1l2.2 1.1v-2.2h1.1v-1.1h2.2v4.5l1.1-1.1 1.1 1.1h1.1l1.1-1.1h1.1l1.1 1.1h-2.2v1.1h-1.5v1.1h-2.2v1.1l1.1 3.3 1.1 1.1v-1.1h1.1V339.5l2.2 1.1-2.2 1.1h-1.1v6.6h-2.2l1.1 1.1h1.1V352.7h1.1v4.5l4.4-1.1 5.6-2.2h1.1l6.7 1.1h4.4l3.3-6.7v-2.2l1.1-2.2 1.1-3.3 1.1-2.2v-2.2l3.3-6.7 2.2 1.1h4.5l-2.2-2.2v-1.1l1.1-1.1h-2.2l-1.1-1.1h-1.1l-1.1-1.1h-1.1v-1.1l-1.1-1.1-1.1 1.1h-6.7l-1.1 1.1H292l-1.1 1.1h-1.1V324h-1.1l-1.1-1.1-1.1-1.1-1.1-2.2h-1.1v-1.1h-3.4l-1.1-2.2h-5.5l-2.2 1.1-1.1-1.1v1.1h-1.1V316h1.1v-1.1l-1.1-1.1h-1.1l-1.1 1.1h-2.2v-1.1h1.1v-2.2l-2.2-1.1h-1.1v1.1h-1.1l-1.1-1.1H260v-1.1h2.2l1.1-1.1-3.3-2.2V305l2.2 1.1 1.1 1.1h1.1l1.1-1.1v1.1l1.1 1.1 1.1-1.1v-2.3h1.1l1.1-1.1v-2.2l1.1-1.1 1.1-1.1 1.1-1.1h2.2v-1.1l1.1-1.1V295l2.2-2.2h-2.2l-1.1-1.1v1.1l-2.2-1.1V288.4l1.1-1.1V286h-1.1l-1.1 1.1-1.1-1.1 2.2-1.1h2.2v-1.1l-1.1-1.1v-2.2l1.1-1.1 1.1 1.1v-1.1l1.1-1.1 1.1-2.2h-1.1v-2.2h-1.1v-1.1l-1.1-1.1v-1.1l-1.1-2.2v-1.1l-2.2-3.3v-1.1l-1.1-1.1v-2.2l-1.1-2.2v-1.1l-1.1-1.1 1.1-1.1-1.1-1.1v-7.1h1.1v-1.1h1.1l1.1-1.1h2.2v1.1l1.1 1.1v-1.1l1.1-1.1H279.8l1.1 1.1 1.1 1.1h1.1l1.1 1.1v1.1h4.4l1.1-1.1 2.2-2.2H295.2v-1.1l1.1-1.1h1.1v-1.1l2.2-1.1v-1.1l1.1-1.1V234.9l1.1-2.2H305.1l1.1-1.1h1.1l-1.1-1.1h1.1l1.1-1.1 1.1-1.1-1.1-1.1-1.1-1.1v-6.6h-1.1l-1.1-1.1-2.2-1.1h-4.4l-1.1-1.1H294.1l-1.1 2.2-1.1 1.1v1.1l-1.1-1.1H287.5l-2.2-2.2-1.1-1.1-1.1-1.1 1.1-2.2h-1.1l-1.1-1.1h-1.1l2.2-16.7-2.2-3.3-3.3-6.7V184l-1.1-1.1-3.3-6.7H272V174l-1.1-1.1h-1.1l-1.1 1.1h-1.1l-1.1-1.1h-1.1l-1.1 1.1H262l-2.2 2.2v1.1l-2.2 3.3h-1.1l-2.2 1.1-1.1 1.1-4.4 2.2-1.1-1.1-3.3-2.2H243l-3.3-2.2-1.1-1.1-1.1-1.1-1.1-2.2v-4.4l1.1-2.2v-1.1h-1.1v1.1h-2.2v-2.2h-5.5zm10 1.1v-1.1h-1.1zm34.5 6.7 1.1 1.1v-2.2H272Zm-10.1 135.8v1.1h1.1zm19-24.5v2.2l-1.1 2.2h1.1l1.1-1.1h1.1l1.1-1.1h1.1V286l-2.2 1.1-1.1-1.1zm30 38.9v1.1h1.1z"/>
        <path id="path415" class="north-holland stroke-ffffff-1-5" d="m221.9 163.6-2.2 1.1-1.1 1.1h-1.1v1.1h-1.1l-1.1-1.1V162.5H218.6l3.3-1.1h2.2v1.1z"/>
        <path id="path417" class="north-holland stroke-ffffff-1-5" d="m246.4 146.9-2.2 2.2-1.1 1.1H239.8l-3.3 4.5v2.2h-2.2l-1.1-1.1-2.2-1.1h-1.1l1.1 1.1 1.1 1.1 1.1 1.1h1.1-2.2v1.1H228.8h1.1l-1.1 1.1h-1.1l-1.1 1.1h-1.1V158l-1.1-4.5V150.2l1.1-3.3v-1.1l1.1-3.3 1.1-3.3 1.1-3.3 1.1-1.1 2.2-3.3 2.2-4.5 3.3-3.3v2.2l1.1-1.1 1.1-1.1 1.1-1.1h1.1v1.1-1.1h-1.1v-1.1l-1.1 1.1-2.2 1.1 3.3-6.7 1.1-1.1 2.2-1.1v-1.1h2.2l1.1 1.1 1.1 1.1v2.2h1.1-1.1v1.1l1.1 1.1 1.1 1.1 2.2 3.3v1.1l-1.1 1.1V138l-1.1 2.2h-1.1l-1.1 1.1v2.2l-2.2 2.2z"/>
    </g>
    <path id="path677" class="stroke-ffffff-1-5" d="m251.9 438.5-1.1 1.1-2.2 1.1h-1.1l-2.2 3.3h-1.1l-2.2 1.1h-7.7l-2.2 1.1H231l-1.1 1.1v1.1l-1.1 1.1-1.1 1.1-1.1 3.3-1.1 1.1-1.1 2.2-3.3 2.2-2.2 1.1-1.1 1.1-1.1 1.1-4.4 1.1v1.1l-2.2 1.1-1.1 1.1h-1.1l-1.1 1.1-1.1 1.1-8.9 2.2h-2.2l-3.3 1.1h-2.2l-3.3-1.1-1.1-1.1H183l-1.1-1.1H178.6l-1.1 1.1-2.2 1.1-1.1 1.1v1.1l-1.1 2.2-1.1 1.1-1.1 1.1-1.1 1.1-2.2 1.1h-1.1l-1.1 1.1h-1.1v-1.1h-1.1l-1.1 1.1H158.8l-1.1 1.1h-2.2l-1.1 2.2h-1.1v-1.1h-2.2l-3.3 1.1-1.1 1.1-1.1 1.1-1.1 2.2v4.4l1.1 1.1 4.4 5.6v2.2l1.1 1.1v1.1l-1.1 2.2-1.1 3.3-1.1 2.2v1.1l2.2 4.5 4.4 12.2 2.2 3.3-2.2 1.1v1.1l1.1 3.3-1.1 3.3v1.1h1.1l1.1 1.1h7.8v1.1l1.1 1.1v3.3l1.1-1.1 3.3 1.1h4.4l1.1-1.1 2.2-1.1h1.1v-2.2l-5.6-7.8-1.1-3.3 1.1-1.1h1.1v-4.4H173l-1.1-1.1 1.1-1.1 7.8-3.3h2.2l1.1-1.1 1.1-1.1h2.2l7.8-1.1 1.1 2.2-2.2 5.6 1.1 6.7 5.6-2.2H204.1l4.4 1.1 2.2 1.1h1.1v-1.1l1.1 1.1 2.2-1.1-1.1-4.5 3.3-1.1h1.1l1.1-3.3 2.2-1.1 1.1-1.1 1.1-2.2 2.2-1.1 1.1-1.1-1.1-1.1h2.2v-1.1l2.2-1.1 1.1 1.1v1.1h2.2l2.2 1.1h1.1v2.2l1.1 1.1 1.1-1.1 1.1 1.1-1.1 2.2v2.2h1.1v1.1h-1.1l-1.1 1.1-1.1 1.1 1.1 4.5v1.1h2.2v1.1h-1.1l-3.3-1.1-1.1-1.1H233v-1.1h-1.1l-2.2 1.1v2.2l1.1 1.1 2.2 1.1h1.1l3.3-1.1h4.4l1.1 1.1h1.1v-1.1h4.4l2.2 2.2v1.1h1.1l1.1 1.1h1.1l4.5-6.7 6.7-4.5v-2.2h1.1v-1.1l-1.1-1.1v-1.1l1.1-1.1v-.4l1.1-1.1 2.2-1.1h1.1l-1.1 1.1 1.1 1.1v1.1h5.5l3.3 10-1.1 2.2-3.3 6.7 6.7 7.8v1.1l1.1 1.1 1.1 1.1v7.8l4.5 1.1 1.1-1.1 3.3-1.1h1.1v-1.1l6.7 4.5-2.2 8.9 1.1 1.1 4.4-1.1 4.5 1.1h5.5l1.1-1.1 1.1-2.2 3.3 1.1 4.5 1.1 2.2 1.1 3.3-3.3 1.1-1.1 3.3-1.1 1.1-1.1 1.1-1.1v-1.1h1.1l4.4 1.1v1.1l1.1 2.2 3.3 2.2 1.1 1.1V579.7l1.1 4.5h1.1l3.3-1.1h1.1l3.3-1.1v-4.5l1.1-5.6 2.2-4.5 1.1-2.2 3.3-3.3 4.4-2.2h1.1l5.6-1.1 2.2-1.1h1.1l1.1-1.1 8.9-2.2 3.3-1.1h1.1l1.1-1.1h1.1l2.2-2.2 3.3-3.3 2.2-1.1-2.2-3.3-2.2-4.5-4.5-7.8v-1.1l-2.2-10-1.1-2.2v-2.2L390 511l-1.1-10 4.4 1.1 3.3 1.1 2.2 1.1h4.4l2.2-1.1 3.3-1.1 2.2-1.1 2.2-1.1v1.1h1.1l1.1 1.1 2.2 2.2V503h2.2l-1.1-1.1v-4.4l-1.1-2.2-1.1-1.1v-4.5l-1.1-1.1v-1.1l-1.1-1.1-1.1-1.1-1.1-1.1-3.3-1.1V482l-1.1-1.1V473h-1.1V469.7l-1.1-3.3h-1.1l-1.1-1.1H401l-2.2-1.1h-2.2l-1.1-1.1v-2.2l-1.1-2.2v-2.2h-1.1l-1.1-1.1H384.5l-3.3 1.1H376.6l-1.1-1.1V454l-1.1-1.1-1.1-1.1H371l-1.1-1.1h-1.1v-2.2h-1.1l-1.1-1.1h-2.2l-1.1-1.1-1.1-1.1-1.2-1.2v-2.2l-1.1-1.1H356.6l-1.1-1.1-2.2-1.1h-5.5l-1.1 1.1v1.1l-1.1 1.1h-1.1l-1.1-1.1h-2.2v-1.1l-1.1-1.1H336.8v1.1l-1.1 2.2-1.1 1.1h-5.9l-1.1-1.1-1.1-1.1v-1.1h-1.1l-1.1 1.1v1.1l-1.1 1.1-1.2 1.1-2.2 3.3v1.1l-1.1 2.2v4.4h-1.1v1.1l-5.6 2.2-2.2 1.1v1.1h-1.1l-2.2-1.1h-2.2l-1.1 1.1-1.1 1.1-1.1-1.1-2.2-1.1-1.1-1.1-1.1 1.1h-10.1l-2.2 1.1-1.1-1.1v-1.1h1.1l1.1-1.1 1.1-1.1-1.1-1.1v-3.2l-3.3-1.1-1.1-1.1-1.1-1.1h-1.1l-1.1 1.1-1.1 1.1h-1.1v-1.1h-1.1v-1.1l-1.1-1.1v-1.1H272l-1.1-1.1-2.2-1.1-1.1-1.1h-1.1v-2.2H263.2l-1.1-1.1H258.8l-2.2-1.1h-2.2zM253 542h-2.2l1.1 1.1zm-1.1-12.3h1.1v1.1l1.1 1.1h1.1v2.2h-1.1L253 533h-1.1l1.1-1.1-1.1-1.1zm2.3 0 1.1 1.1h-1.1z" style="fill:#c7de79"/>
    <path id="path783" class="stroke-ffffff-1-5" d="m394.3 450.7-1.1 1.1 1.1 1.1v2.2h-1.1l1.1 1.1h1.1v2.2l1.1 2.2v2.2l1.1 1.1h2.2l2.2 1.1h2.2l1.1 1.1h1.1l1.1 3.3V472.7h1.1v7.7l1.1 1.1v1.1l3.3 1.1 1.1 1.1 1.1 1.1 1.1 1.1v1.1l1.1 1.1v4.4l1.1 1.1 1.1 2.2v4.4l1.1 1.1h-2.2v1.1l-2.2-2.2-1.1-1.1h-1.1v-1.1l-2.2 1.1-2.2 1.1-3.3 1.1-2.2 1.1h-4.4l-2.2-1.1-3.3-1.1-4.4-1.1 1.1 10 1.1 3.3v2.2l1.1 2.2 2.2 10v1.1l4.5 7.8 2.2 4.5 2.2 3.3-2.2 1.1-3.3 3.3-2.2 2.2h-1.1l-1.1 1.1h-1.1l-3.3 1.1-8.9 2.2-1.1 1.1h-1.1l-2.2 1.1-5.6 1.1H370l-4.4 2.2-3.3 3.3-1.1 2.2-2.2 4.5-1.1 5.6v4.5l-3.3 1.1h-1.1l-3.3 1.1 2.2 1.1 8.9 3.3 1.1 1.1v1.1l1.1 2.2 1.1-1.1 1.1 1.1h8.8l1.1-1.1h1.1l1.1 1.1h2.2l1.1 1.1v1.1h1.1l-1.1 1.1H380v1.1h1.1V599.9h1.1v-1.1h2.2v-1.1h2.2v-1.1l2.2-1.1v1.1h1.1v2.2l3.3 2.2-1.1 1.1-1.1 1.1v1.1l-2.2 1.1h-1.1v1.1l-1.1 1.1-1.1 1.1 1.1 1.1h2.2l1.1 1.1v1.1l-1.1 1.1v1.1h-1.1l-1.1-1.1h-2.2v2.2l1.1 1.1v1.1h-1.1v1.1l1.1 2.2h-1.1v1.1h-1.1l-2.2-1.1-1.1 3.3v2.2l-1.1 1.1v1.1h1.1l1.1 1.1v1.1l-1.1 2.2V636.2l-1.1 1.1-1.1 1.1-1.1 2.2h-1.1l-1.1 2.2-1.1 2.2v1.1h2.2l1.1-1.1h1.1l1.1 1.1v1.1l-2.2 1.1v2.2l-2.2 2.2v1.1l-1.1 1.1 1.1 1.1-1.1 1.1H369.9l-1.1 1.1v2.2l-2.2 2.2v1.1h-1.1l-1.1 1.1h-1.1v1.1H361l1.1 1.1-1.1 1.1v6.6h1.1v2.2h1.1v1.1l1.1 1.1h2.2v1.1h2.2l1.1 1.1v1.1l-1.1 1.1 1.1 3.3v2.2l-2.2 3.3v1.1h2.2l1.1-1.1h1.1l1.1-1.1v1.1l1.1 1.1h1.1l1.1-1.1v-1.1l1.1-1.1 2.2-3.3h2.2v2.2l1.1 2.2 1.1-1.1 2.2 3.3h1.1l1.1-1.1 1.1 1.1 1.1-1.1 1.1-1.1V694.5l1.1-1.1 1.1-1.1v-1.1h2.2l2.2-1.1V693.4l2.2 1.1v-1.1h2.2v1.1l2.2-1.1 1.1-1.1h4.4l1.1 1.1 2.2 1.1h1.1v-1.1H418.2v-2.2l1.1-2.2-3.3-2.2h-1.1l-1.1-1.1v-1.1h-1.1l-1.1-1.1v-2.2l1.1-1.1 1.1 1.1 2.2 1.1 1.1-2.2 1.1-1.1v.9h1.1l-1.1-1.1v-1.1l-1.1-1.1v-2.2l1.1-1.1h2.2l1.1-1.1h1.1v-1.1h1.1v1.1l2.2 1.1V670.1h1.1V669l1.1-1.1v-2.2l-1.1-1.1v1.1l-1.1-2.2V661l1.1-1.1v-1.1l1.1-1.1v-1.1l-1.1-1.1h-4.4v-2.2l-1.1 1.1-1.1-1.1-3.3-1.1V648.9l-2.2-1.1 1.1-1.1h1.1v-1.1l1.1-4.5h-6.6l-1.1 1.1h-1.1l-1.1-1.1V640h-1.1l-2.2 1.1h-1.1l-1.1 1.1h-1.1l-1.1 1.1h-1.1l-1.1-1.1 2.2-2.2v-3.3h-1.1l-1.1-1.1v-1.1h-1.1v-1.1h-1.1V627.7l-1.1-1.1-1.1-2.2h4.4v-1.1l2.2-1.1 1.1-1.1v1.1l2.2 3.3 1.1 2.2v1.1l1.1-1.1h1.1v1.1h1.1v-1.1l1.1-1.1v-1.1l1.1-1.1v-2.2l1.1-1.1V620l1.1-1.1v-1.1l1.1-1.1 2.2-1.1 1.1-1.1 2.2-1.1h1.1l1.1-1.1 1.1-1.1v-1.1l1.1-1.1h2.2l1.1-1.1v-2.2l1.1-1.1h2.2l1.1-1.1h1.1v-1.1h2.2l1.1-1.1H439.1l-1.1-1.1h1.1l1.1-1.1-4.4-3.3h-1.1l6.7-3.3-2.2-2.2-6.7 3.3-1.1 1.1-1.1 1.1h-4.4v-1.1l-1.1-1.1v-7.8l-1.1-1.1 1.1-1.1h2.2l-2.2-4.5 2.2-1.1 1.1-2.2 4.4-4.5v-1.1l1.1-1.1 2.2-3.3 1.1-2.2V562l1.1-1.1v-2.2l1.1-1.1v-1.1H442.4v-1.1l5.6-5.6-1.1-3.3-1.1-2.2v-1.1l1.1-1.1 1.1-1.1h-3.3v-1.1l1.1-6.7v-3.3h1.1l-1.1-2.2 1.1-1.1v-3.3l-1.1-2.2-1.1-2.2 1.1-2.2-1.1-1.1v-3.7l-1.1-2.2-2.2-1.1-2.2-1.1-2.2-6.7-2.2-1.1-1.1-1.1-1.1-1.1-1.1-2.2v-1.1h-.5l-3.3-2.2v-4.4h1.1v-1.1l1.1-3.3v-1.1l1.1-1.1v-1.1l-2.2-1.1h-2.2v-1.1h-2.2l-5.6-2.2-1.1-1.1v-2.5l1.1-1.1-1.1-1.1V466.4h2.2v-1.1h-1.1v-2.2h-1.1l-3.3-2.2-1.1-1.1H406.6v-1.1l-1.1 1.1h-1.1l-1.1-1.1v-1.1h-1.1l-1.1-1.1v-1.1l-1.1-1.1v-1.1l-1.1-1.1-1.1-1.1h-1.1z" style="fill:#aed6be"/>
    <g id="g236">
        <g id="g233">
            <path id="path41" class="flevoland stroke-ffffff-1-5" d="m358.7 251.5-1.1 1.1-7.8 2.2h-1.1l-1.1 1.1-8.9 7.8v1.1H332v1.1l-1.1 3.3v-1.1l-1.1 2.2v4.4l-2.2 1.1h-1.1l-1.1 1.1-1.1 2.2H322v1.1l-18.9 12.2-3.3 2.2v1.1h-1.1v1.1h-1.8l-7.1 4.5-1.1 1.1-4.5 3.3h-1.1v1.1l2.2 2.2v5.5l-1.1 1.1h1.1l1.1 2.2h-1.1l1.1 1.1 1.1-1.1h1.1l4.5-1.1h2.2l1.1 1.1h4.4l3.3 1.1 2.2 2.2 3.3 1.1 2.2 2.2 10 8.9 1.1 2.2h1.1l2.2 1.1 2.2-1.1 5.6-2.2H337.3l1.1-1.1 3.3-1.1h1.1l1.1-4.5 1.1-1.1v-3.3h1.1v-5.5H345v-.7l-1.1-2.2 1.1-1.1 3.3-3.3 2.2 1.1 3.3-1.1h1.1l1.1-1.1h-1.1l1.1-1.1 1.1-1.1 1.1-1.1 3.3-3.3 8.9-4.5h2.2l1.1 1.1h1.1l4.4-3.3 1.1-2.2 2.2-2.2 1.1-2.2 1.1-1.1 1.1-2.2 3.3-6.7 1.1-2.2v-8.9l-1.1-2.2-5.6-5.6v-1.1H375.7l-4.4-1.1-10-3.3h-.3l-1.1-2.2zm-61.8 45.6 1.8-1.1-2.2 1.1z"/>
            <path id="path151" class="flevoland stroke-ffffff-1-5" d="m371 194.7 1.1 2.2-2.2-1.1v1.1h-1.1l-5.6 1.1h-1.1v1.1l-3.3 5.6-5.6 8.9v1.1l-1.1 3.3v21.1h1.1l1.1 1.1 1.1 1.1 2.2 3.3 3.3 4.5 1.1 1.1h26.6l8.9-2.2 1.1 1.1 1.1 1.1 2.2-1.1h1.1l2.2-1.1v-1l3.3-1.1h1.1l3.3-2.2 1.1-1.1-1.1-2.2H411l-1.1-1.1-1.1-1.1-2.2-1.1h-1.1l-2.2-1.1v1.1h-1.1v-2.2l1.1-1.1 1.1-1.1 2.2-1.1v-2.2l-1.1-1.1V227l-1.1-1.1h-1.1v-1.1l-2.2-4.5-1.1-3.3-2.2-2.2h-1.1l-1.1-1.1-1.1-2.2-3.3-1.1-1.1-1.1h-4.4v-1.1l-1.1-1.1-1.1-1.1-1.1-2.2-1.1 1.1v-1.1l-1.1-2.2-4.4-5.6h-1.1z"/>
        </g>
        <path id="path861" class="st2" d="M307.6 231.5h2.2l7.8 3.3 1.1 1.1 5.6 5.6 2.2 3.3v1.1l5.6 8.9 2.2 5.6v1.1h-1.1l-1.1 1.1-2.2 1.1-1.1 4.5-1.1 2.2h1.1l-1.1 2.2v-2.2l1.1-2.2 1.1-4.5 1.1-1.1 2.2-1.1h1.1v-1.1l-2.2-5.6-7.8-13.4-5.6-5.6-1.1-1.1-6.7-3.3-1.1 2.2H306.5h1.1l1.1-1.1 1.1-1.1h-1.1z"/>
    </g>
    <path id="path869" class="st2" d="M460 34.5h2.2v1.1l-2.2 1.1z"/>
    <g id="g241">
        <path id="path17" class="groningen stroke-ffffff-1-5" d="m516.7 43.4-2.2 1.1-8.9 1.1-1.1 1.1-3.3 1.1H500l-1.1 1.1h-2.2l-2.2 2.2H491.2l-2.2 1.1-2.2 1.1-1.1-1.1-1.1 1.1H479l-3.3 1.1-4.4 1.1h-2.2l-2.2 1.1h-2.2l-3.3 1.1-3.3 1.1-1.1 1.1V61l-2.2 1.1-1.1-1.1-1.1-1.1-5.6-3.3h-1.1l-4.4 2.2v-1.1h-1.1V59h-1.1v-1.1l-1.1 1.1 1.1 1.1h1.1l1.1 1.1h1.1l1.1 1.1h1.1v1.1H441.5v-1.1l-2.2-1.1v-1.1h-2.2l-1.1 2.2h1.1l1.1 1.1h1.1v1.1l-1.1 1.1-1.1-1.1v1.1l1.1 1.1h5.5v1.1H440.4V69H443.7l1.1-1.1v2.2h-1.1l1.1 1.1 1.1-1.1h1.1v1.1l-1.1 1.1h-2.2v1.1l1.1 1.1 1.1-1.1H449.2l1.1 1.1h1.1V82.3h1.1v1.1h-1.1l-1.1 1.1v1.1l-1.1 1.1h-1.1l-1.1 1.1v3.4h1.1l-1.1 1.1h-1.1v1.1l-1.1 1.1v2.2l-1.1 1.1-1.1 1.1-1.1 1.1v1.1h2.2v4.4l-1.1 2.2-1.1 1.1h-1.1l-1.1 1.1v1.1l-1.1 2.2-1.1 1.1v10l1.1 1.1 1.1 1.1 1.1 2.2h8.8l1.1 1.1 2.2 1.1 1.1 1.1v1.1l3.3 1.1 3.3 1.1h1.1l1.1-4.5h1.1v-3.9l2.2-5.6v-1.1l1.1-1.1 1.1-2.2 1.1-1.1v-1.1l1.1-1.1 2.2-1.1 2.2-1.1v-1.1l1.1-1.1 2.2-1.1H481.1l1.1 1.1 1.1-1.1 1.1 1.1h2.2l1.1 3.3 1.1 1.1 1.1-1.1 1.1 3.3v1.1l1.1 1.1 2.2-1.1v2.2l1.1 1.1v1.1h2.2v1.1l1.1 1.1 1.1 1.1 1.1 1.1v1.1h1.1l-1.1 1.1 1.1 1.1v1.1l5.6-2.2h1.1l2.2-1.1h5.5l1.1 1.1h1.1v1.1l4.4 3.3 1.1 2.2 4.5 3.3v1.1l3.3 3.3 3.3 3.3 5.6 5.6 1.1 1.1 2.2 2.2 2.2 2.2 1.1 1.1v1.1l1.1 1.1 1.1 1.1 1.1 2.2 1.1 2.2h1.1v1.1h1.1l2.2 3.3 1.1 2.2 1.1 1.1 1.1 1.1h2.2v2.2l-1.1 1.1-2.2 6.7v1.1h3.3v1.1h1.1l2.2 3.3 1.1 1.1 1.1-1.1v1.1h-1.1v2.2h3.3l-1.1-2.2v-1.1l2.2-3.3 6.7-11.1 4.5-7.8 2.2-8.9 1.1-5.6 1.1-1.1v-1.1l-2.2-10v-14.5l-3.3-2.2v-4.4l1.1-1.1V115.3l1.1-3.3h1.1l1.1-1.1h2.2l-2.2-1.1-1.1-1.1 1.1-1.1V102l-1.1-3.3v-1.1h-1.1l-3.3-1.1h-.5v-1.1h-4.4v-1.1h-4.4l-1.1-1.1H568l-1.1-1.1-1.1-1.1V87.7l1.1-1.1-1.1-2.2v-1.1h1.1l1.1-2.2V80l-2.2 1.1-1.1 1.1H557.9l-2.2-1.1V80h-2.2l-2.2-1.1-2.2-1.1V79l-2.2-1.1-2.2-1.1h-1.1v-1.1h1.1l-1.1-1.1-2.2-2.2h-1.1l-1.1-1.1v-5.5l-1.1-1.1v-4.4l-1.1-2.2h-1.1v-3.3l1.1-3.3v-1.1l-3.3-3.3-2.2-1.1-1.1 2.2 1.1 1.1H528.2v-1.1l1.1 1.1v-1.1l1.1-2.2h-1.1l-2.2-1.1-2.2 2.2-1.1-1.1-2.2-1.1h-3.3zm27.8 32.3 1.1 1.1v-1.1zm40.1 22.2v-2.2l-1.1 1.1z"/>
        <path id="path871" class="groningen stroke-ffffff-1-5" d="M480 24.5v1.1l1.1 1.1 1.1 1.1 1.1 1.1-1.1-1.1h-4.4V30h1.1l-1.1 2.2-1.1-1.1-1.1-3.3-1.1-1.1v-1.1l1.1-2.2H478.9z"/>
    </g>
    <g id="g259">
        <path id="path619" class="zeeland stroke-ffffff-1-5" d="M132.9 478.5v1.1l-2.2 2.2h-1.1l1.1 2.2h1.1l1.1 2.2 1.1 2.2h6.6v-1.1h1.1v2.2l-1.1 1.1h-5.5l-1.1 1.1h-1.1l-2.2-2.2-4.4-1.1h-1.1l-2.2 1.1-1.1 1.1h-1.1l-2.2 1.1-1.1 1.1-1.1-1.1-2.4 1.3-1.1 1.1v2.2h1.1v1.1h2.2l1.1 1.1 1.1 1.1h1.1v2.2l1.1 1.1h1.1l1.1 1.1 1.1 1.1v2.2l1.1 1.1h1.1v1.1h8.8l1.1 1.1h1.1v-1.1l2.2 1.1 2.2 1.1-1.1 1.1v2.2h1.1l4.4 2.2 1.1 1.1V526.1l1.1 4.5H144.8l-1.1-1.1H140.4l-1.1 1.1h-1.1l-1.1 1.1H134v-1.1h-1.1l-3.3-2.2h-1.1l-1.1-3.3h-1.1l-2.2-3.3v-1.1l-1.1-1.1 1.1-1.1-1.1-1.1v-2.2h-1.1l-1.1-1.1-2.2-2.2-1.1-1.1h-2.2l-1.1-1.1h-1.1l-2.2-1.1h-1.1l-1.1-1.1-1.1 1.1h-1.1v1.1l-2.2-3.3h1.1l-1.1-1.1v-1.1H101l-1.1 1.1h-8.1v-1.1l-1.1-1.1h-2.2l-2.2 1.1h-1.1l-1.1 1.1-3.3-1.1h-1.1l-1.1-1.1-1.1 1.1-2.2 1.1v1.1l-1.1 1.1v1.1l-1.1 1.1H72l-1.1 1.1h2.2l-2.2 1.1v-1.1l-2.2-2.2-1.1-1.1v-1.1l-1.1-3.3V502H65l-1.1-1.1-2.2-1.1-1.1-1.1-1.1-1.1V494.3l1.1-1.1h-2.2l-1.1-1.1h-7.7v1.1h-2.2l-1.1 1.1-2.2 1.1-1.1 1.1-2.2 1.1h-1.1l-1.1 1.1-1.1 1.1-2.2 1.1-1.1 1.1h-1.1l-1.1 1.1-1.1 1.1V507.5l1.1 2.2h1.1l1.1 1.1 1.1 1.1 2.2 1.1v1.1h1.1l1.1 1.1 1.1 1.1v1.1l1.1 1.1v1.1l1.1 1.1v1.1l1.1 1.1 1.1 1.1 2.2 1.1v1.1h1.1l1.1 1.1v1.1H54V525.1h1v2.2l1.1 1.1H59.4l1.1-1.1v-1.1H65l-2.2-1.1 1.1-1.1 2.2-1.1h1.1v1.1l3.3-2.2v-2.2l1.1 1.1v1.1h1.1l-1.1 1.1v2.2h1.1l-1.1 1.1 1.1 1.1v1.1l-1.1-1.1-1.1 1.1h-1.1l1.1 1.1 1.1 1.1v1.1h1.1V535h1.1l1.1 1.1H76V535h1.1l2.2 1.1h1.1v1.1l2.2 1.1v1.1H84l2.2 2.2H89.5l2.2-1.1h1.1l1.1-1.1H97.2l1.1 1.1 1.1-1.1 1.1-4.5h1.1v-2.2h1.1v-6.6l2.2 1.1 2.2-1.1h1.1l2.2-2.2 1.1 1.1 1.1 1.1 1.1 1.1v1.1h1.1v1.1h2.2l1.1 1.1 1.1 1.1h2.2V534.9l2.2 1.1h1.1l1.1 1.1h1.1l2.2 1.1 2.2 1.1h2.2l1.1 1.1h2.2l3.3-1.1 2.2-1.1h2.2v1.1h2.2l2.2 1.1 1.1 3.3v2.2h3.3l2.2-1.1-1.1-1.1h-.4v-1.1l1.1-3.3-1.1-3.3v-1.1l2.2-1.1-2.2-3.3-4.4-12.2-2.2-4.5v-.8l1.1-2.2 1.1-3.3 1.1-2.2v-1.1l-1.1-1.1v-2.2l-4.4-5.6-1.1-1.1v-4.5l1.1-2.2 1.1-1.1 1.1-1.1 3.3-1.1h-1.1l-2.2-1.1h-4.5l-2.2-1.1-3.3-2.2h-1.1zm-63.4 50.1 1.1-2.2-1.1 1.1z"/>
        <path id="path625" class="zeeland stroke-ffffff-1-5" d="M139.6 547.5v1.1h1.1v1.1h-1.1v1.1h1.1-2.2l-1.1-1.1v-2.2h1.1z"/>
        <path id="path627" class="zeeland stroke-ffffff-1-5" d="M105.1 547.5h1.1l1.1-1.1v1.1z"/>
        <path id="path629" class="zeeland stroke-ffffff-1-5" d="M136.2 550.9v2.2H134V552h-1.1 2.2l-1.1-1.1h1.1-1.1l-1.1 1.1v-1.1h1.1-1.1l1.1-1.1h-2.2v-1.1 1.1h-1.1v-1.1H134l1.1 1.1z"/>
        <path id="path631" class="zeeland stroke-ffffff-1-5" d="M39.5 536.4v1.1h-2.2l-2.2 1.1h-2.2l-1.1 1.1h-5.5v1.1H25l-1.1 1.1h-2.2l-1.1 1.1h-1.1v1.1l1.1 1.1v4.4l1.1 1.1v2.2l-3.3 3.3-1.1 1.1 1.1 1.1 2.2 2.2h-2.2v1.1l1.1 1.1 1.1 1.1v1.1l-1.1 1.1 1.1 1.1h1.1l1.1 2.2h1.1L25 572l1.1-1.1 1.1 1.1v2.2h1.1l1.1 1.1h4.4l8.9-1.1-1.1-7.8-1.1-1.1 2.2-1.1 1.1 1.1H45v-1.1h2.2v-1.1h1.1l1.1 1.1 1.1 1.1 1.1-1.1-1.1-2.2 2.2-1.1 1.1 1.1 2.2 1.1 1.1 1.1 2.2 1.1h1.1v-1.1h2.2l2.2 2.2h1.1l1.1 1.1v1.1h3.3l1.1 1.1v-1.1l4.4 1.1h1.1l1.1 2.2h1.1v-1.1l1.1 1.1 1.1 1.1h1.1v1.1l-1.1 1.1v7.7l1.1 1.1H84v-1.1l1.1 1.1H92.8l2.2-2.2h2.2v2.2h-1.1l-1.1 1.1 1.1 1.1h2.2l2.2-1.1h1.1l-1.1-2.2 2.2-1.1 1.1 2.2h1.1v-1.1h2.2l1.1-1.1v-1.1h2.2l1.1-2.2h1.1l1.1-1.1 2.2-1.1h1.1v1.1h1.1l1.1-1.1v1.1h2.2l1.1-1.1h1.1l1.1-1.1 2.2-2.2 2.2-1.1 2.2-1.1 5.6-4.5 1.1-1.1 11.1-13.4H148v-1.1h-1.1v-2.2l-1.1 1.1v-2.2l-1.1-1.1h-1.8l1.1-1.1h-2.2v1.1l-1.1 1.1v1.1l1.1 1.1h1.1v2.2l-1.1-1.1-1.1 1.1h1.1l-1.1 1.1h1.1v1.1l-1.1-1.1h-2.2l1.1 1.1v1.1l-1.1-2.2-1.1-1.1h-1.1l1.1 1.1 1.1 1.1h-1.1v-1.1H134v1.1h1.1v1.1H134l-2.2-4.5h-1.1l-3.3-2.2v-1.1h-1.1v1.1l-4.4-1.1-1.1-1.1v-1.1l-1.1-1.1v-1.1l-1.1-1.1 1.1-1.1h-1.1l-1.1-1.1v-1.1H114l-1.1-1.1h-2.2l-1.1 2.2v1.1h-1.1v5.5l-1.1 1.1h-2.2l-3.3 1.1-2.2 1.1-1.1 1.1h-1.1v1.1h-2.2v1.1l-1.1 1.1h-4.4l-1.1-1.1h-1.1v1.1l-1.1-1.1v2.2l-1.1-2.2v-.8h-2.5v-1.1h-3.3v3.3l-2.2-1.1V552l1.1-1.1h-6.6v-1.1l-1.1-1.1-1.1-1.1h-1.1v-1.1l-1.1-1.1h-3.3l-2.2-1.1h-1.1l-3.3-1.1h-1.1V542H55l-2.2-1.1h-1.1l-1.1-1.1-1.1-1.1h-1.1l-1.1-1.1h-1.1v-1.1h-4.4zM140.7 552l-1.1-1.1-1.1 1.1zm-1.1-1.1H142.9l-1.1-1.1h-2.2zm2.2-3.4 1.1 1.1h-1.1zm2.2 0h1.1l-1.1 1.1zm-7.8 7.8h1.1v1.1h-1.1z"/>
        <path id="path659" class="zeeland stroke-ffffff-1-5" d="m68.4 504.1-1.1-1.1v-1.1h1.1l1.1 1.1v1.1l-1.1 1.1v-1.1z"/>
        <path id="path661" class="zeeland stroke-ffffff-1-5" d="m73.9 478.5-1.1 1.1V482.9l1.1 1.1 1.1-1.1-1.1-1.1 1.1 1.1-1.1 1.1-2.2-1.1v2.2l-1.1-1.1-1.1 1.1h1.1v1.1h-1.1v-1.1l-1.1 1.1V489.5h-1.1l1.1-2.2v-1.1l-1.1-1.1h-1.1 1.1l1.1-2.2 2.2-1.1v-2.2 1.1h2.2v-1.1z"/>
        <path id="path665" class="zeeland stroke-ffffff-1-5" d="m70.6 529.7-3.3-2.2-1.1-1.1 1.1-2.2 1.1 1.1 2.2 1.1-1.1 1.1v1.1z"/>
        <path id="path667" class="zeeland stroke-ffffff-1-5" d="M71.7 525.3h-1.1l-2.2-1.1 2.2-1.1h1.1z"/>
        <path id="path907" class="zeeland stroke-ffffff-1-5" d="M102.9 458.5v-1.1h1.1l2.2 1.1h-1.1z"/>
        <path id="path909" class="zeeland stroke-ffffff-1-5" d="M144 483v-1.1l-1.1-1.1-1.1-1.1v1.1h-1.1l-2.2-2.2 1.1-1.1h-1.1v1.1h-2.2v-1.1h6.6-2.2v1.1h2.2v1.1l1.1 1.1v1.1z"/>
        <path id="path913" class="zeeland stroke-ffffff-1-5" d="m109.5 456.3-1.1 1.1h-2.2v-1.1h4.4z"/>
        <path id="path915" class="zeeland stroke-ffffff-1-5" d="m106.2 483-1.1 1.1h-2.2l-2.2-1.1h-1.1l2.2-1.1v-1.1 1.1l-2.2 1.1h-1.1l1.1-2.2-1.1-1.1v-2.2h-1.1v-2.2l-1.1-2.2-2.2-1.1-1.1 1.1V472l-3.3-1.1v-2.2l-1.1-1.1H85.3l-1.1 1.1v1.1h1.1l1.1-1.1 1.1 1.1-1.1-1.1-1.1 1.1h-2.2L82 472l-2.2 1.1h-2.2l-2.2 1.1-1.1 1.1v2.2h1.1v1.1h-1.1l-1.1-1.1h1.1v-2.2l-1.1-1.1H71V473l-1.1-1.1-1.1-2.2v-5.5l1.1-2.2 2.2-2.2 2.2-1.1h2.2l4.4-1.1 1.1-1.1h4.2l3.3 1.1v-2.2l1.1-1.1v-1.1h2.2l-1.1 1.1h1.1l-1.1 1.1V454h-1.1v1.1l-1.1 2.2h7.8l2.2-1.1 1.1 1.1 1.1 1.1v1.1H105l2.2-1.1 1.1 1.1h3.3v1.1-1.1l1.1 1.1v2.2l1.1 1.1 2.2 2.2 1.1 2.2v2.2h4.4l2.2 1.1 3.3 2.2h1.1v1.1h1.1l2.2-2.2h5.5l1.1-1.1h1.1V474.9h1.1l-1.1 1.1H138l1.1-1.1-1.1-1.1v-.8h-1.1v1.1l-1.1-1.1-3.3 1.1h-1.1l-1.1 1.1h-1.1v1.1l1.1 1.1v1.1l-1.1 1.1h1.1v-1.1l-1.1 1.1v1.1h-1.1l-1.1 1.1-1.1 2.2h-1.1l-1.1 1.1-1.1-1.1-2.2 1.1-1.1 1.1h-2.2v1.1h-7.5l-2.2-2.2z"/>
        <path id="path929" class="zeeland stroke-ffffff-1-5" d="M95.1 505.2v-1.1H94h1.1z"/>
        <path id="path931" class="zeeland stroke-ffffff-1-5" d="M91.7 489.7h1.1v1.1h2.3l1.1 1.1v1.1l1.1 2.2 1.1 1.1v1.1h1.1V500.7l-1.1 1.1h-2.2l-1.1 2.2h-2.2l-1.1-1.1-1.1-1.1H87.4v1.1H83l-1.1-1.1h-2.2l-4.4 1.1-1.1 1.1-1.1 2.2H72l-1.1 2.2v-1.1l-1.1-1.1 1.1-1.1V503l-2.2-2.2h1.1v-1.1l1.1-1.1-1.1 1.1-1.1 1.1-1.1-1.1-1.1-1.1H65l-1.1-1.1h-1.1v-2.2h-1.1V493h1.1-2.2l3.3-1.1 3.3-1.1v-1.1h1.1v1.1h2.2l1.1 1.1h1.1l1.1 1.1h1.1l1.1-1.1h1.1l2.2-1.1 2.2 1.1 1.1-1.1 2.2-1.1H87l1.1 1.1 2.2-1.1z"/>
    </g>
    <text xml:space="preserve" style="font-weight:900;line-height:0%;font-family:Arial;-inkscape-font-specification:&quot;Arial Heavy&quot;;fill:#000;fill-opacity:.018018;fill-rule:evenodd" x="372.936" y="134.126" id="text424"><tspan id="tspan422" x="372.936" y="134.126" style="font-size:21.3333px;line-height:1.25"> </tspan></text>
    <text xml:space="preserve" style="font-weight:900;line-height:0%;font-family:Arial;-inkscape-font-specification:&quot;Arial Heavy&quot;;fill:#000;fill-opacity:.018018;fill-rule:evenodd;stroke:#000;stroke-width:.531085" x="360.18" y="141.836" id="text618"><tspan id="tspan616" x="360.18" y="141.836" style="font-size:11.3298px;line-height:1.25;fill:#000;fill-opacity:1;stroke:#000;stroke-width:.531085;stroke-opacity:0">Friesland</tspan></text>
    <text xml:space="preserve" style="font-weight:900;line-height:0%;font-family:Arial;-inkscape-font-specification:&quot;Arial Heavy&quot;;fill:#000;fill-opacity:1;fill-rule:evenodd;stroke:#000;stroke-width:.559051;stroke-opacity:0" x="480.842" y="188.608" id="text3552"><tspan id="tspan3550" x="480.842" y="188.608" style="font-size:11.9264px;line-height:1.25;stroke-width:.559051">Drenthe</tspan></text>
    <text xml:space="preserve" style="font-weight:900;line-height:0%;font-family:Arial;-inkscape-font-specification:&quot;Arial Heavy&quot;;fill:#000;fill-opacity:1;fill-rule:evenodd;stroke:#000;stroke-width:.504477;stroke-opacity:0" x="495.304" y="96.496" id="text5008"><tspan id="tspan5006" x="495.304" y="96.496" style="font-size:10.7622px;line-height:1.25;stroke-width:.504477">Groningen</tspan></text>
    <text xml:space="preserve" style="font-weight:900;line-height:0%;font-family:Arial;-inkscape-font-specification:&quot;Arial Heavy&quot;;fill:#000;fill-opacity:1;fill-rule:evenodd;stroke:#000;stroke-width:.675221;stroke-opacity:0" x="459.234" y="307.896" id="text8642"><tspan id="tspan8640" x="459.234" y="307.896" style="font-size:14.4047px;line-height:1.25;stroke-width:.675221">Overijssel</tspan></text>
    <text xml:space="preserve" style="font-weight:900;line-height:0%;font-family:Arial;-inkscape-font-specification:&quot;Arial Heavy&quot;;fill:#000;fill-opacity:1;fill-rule:evenodd;stroke:#000;stroke-width:.636914;stroke-opacity:0" x="393.303" y="385.43" id="text8646"><tspan id="tspan8644" x="393.303" y="385.43" style="font-size:13.5875px;line-height:1.25;stroke-width:.636914">Gelderland</tspan></text>
    <text xml:space="preserve" style="font-weight:900;line-height:0%;font-family:Arial;-inkscape-font-specification:&quot;Arial Heavy&quot;;fill:#000;fill-opacity:1;fill-rule:evenodd;stroke:#000;stroke-width:.648136;stroke-opacity:0" x="243.02" y="497.876" id="text8650"><tspan id="tspan8648" x="243.02" y="497.876" style="font-size:13.8269px;line-height:1.25;stroke-width:.648136">Nordbrabant</tspan></text>
    <text xml:space="preserve" style="font-weight:900;line-height:0%;font-family:Arial;-inkscape-font-specification:&quot;Arial Heavy&quot;;fill:#000;fill-opacity:1;fill-rule:evenodd;stroke:#000;stroke-width:.615219;stroke-opacity:0" x="367.892" y="577.503" id="text8654"><tspan id="tspan8652" x="367.892" y="577.503" style="font-size:13.1246px;line-height:1.25;stroke-width:.615219">Limburg</tspan></text>
    <text xml:space="preserve" style="font-weight:900;line-height:0%;font-family:Arial;-inkscape-font-specification:&quot;Arial Heavy&quot;;fill:#000;fill-opacity:1;fill-rule:evenodd;stroke:#000;stroke-width:.718104;stroke-opacity:0" x="43.764" y="524.276" id="text8658"><tspan id="tspan8656" x="43.764" y="524.276" style="font-size:15.3195px;line-height:1.25;stroke-width:.718104">Zeeland</tspan></text>
    <text xml:space="preserve" style="font-weight:900;line-height:0%;font-family:Arial;-inkscape-font-specification:&quot;Arial Heavy&quot;;fill:#000;fill-opacity:1;fill-rule:evenodd;stroke:#000;stroke-width:.553163;stroke-opacity:0" x="176.761" y="401.65" id="text8662"><tspan id="tspan8660" x="176.761" y="401.65" style="font-size:11.8008px;line-height:1.25;stroke-width:.553163">Süd-</tspan><tspan x="176.761" y="416.401" id="tspan8664" style="font-size:11.8008px;line-height:1.25;stroke-width:.553163">Holland</tspan></text>
    <text xml:space="preserve" style="font-weight:900;line-height:0%;font-family:Arial;-inkscape-font-specification:&quot;Arial Heavy&quot;;fill:#000;fill-opacity:1;fill-rule:evenodd;stroke:#000;stroke-width:.544727;stroke-opacity:0" x="222.795" y="262.725" id="text8668"><tspan id="tspan8666" x="222.795" y="262.725" style="font-size:11.6208px;line-height:1.25;stroke-width:.544727">Nord-</tspan><tspan x="222.795" y="277.251" id="tspan8670" style="font-size:11.6208px;line-height:1.25;stroke-width:.544727">holland</tspan></text>
    <text xml:space="preserve" style="font-weight:900;line-height:0%;font-family:Arial;-inkscape-font-specification:&quot;Arial Heavy&quot;;fill:#000;fill-opacity:1;fill-rule:evenodd;stroke:#000;stroke-width:.523262;stroke-opacity:0" x="323.291" y="288.661" id="text8674"><tspan id="tspan8672" x="323.291" y="288.661" style="font-size:11.1629px;line-height:1.25;stroke-width:.523262">Flevoland</tspan></text>
    <text xml:space="preserve" style="font-weight:900;line-height:0%;font-family:Arial;-inkscape-font-specification:&quot;Arial Heavy&quot;;fill:#000;fill-opacity:1;fill-rule:evenodd;stroke:#000;stroke-width:.560331;stroke-opacity:0" x="270.346" y="380.695" id="text8931"><tspan id="tspan8929" x="270.346" y="380.695" style="font-size:11.9537px;line-height:1.25;stroke-width:.560331">Utrecht</tspan></text>
</svg>
