<svg
	xml:space="preserve"
	width="142.072" height="143.221"
	xmlns="http://www.w3.org/2000/svg"
>
    <path
		class="s-VRufD7xtf9i0"
		d="m49.767.86-2.2 1.1-1.1 1.1v1.1l-2.2 1.1-2.2 1.1-1.1 1.1v1.1l-1.1 1.1-1.1 2.2-1.1 1.1v1.1l-2.2 5.6v4.4h-1.1l-1.1 4.5h-1.3l-3.3-1.1-1.1 2.2 3.3 2.2h3.3l2.2 1.1-1.1 3.3v4.4l2.2 3.3 4.4 6.7 1.1 2.2 1.1 2.2 1.1 1.1-3.3 5.6v1.1l-1.1 1.1-1.1 1.1-3.3 3.3-4.5 3.3-4.4-4.5h-3.3l-3.3-1.1-2.2 1.1v2.2l-2.2 1.1-3.3 4.5-1.1 1.1-1.1 1.1-4.5 2.2-2.2 2.2-3.3 2.2 1.1 2.2v1.1l3.3 3.3 1.1 1.1 2.2 2.2 1.1 1.1 1.1 1.1 1.1 2.2h1.1l-1.1 2.2-1.1 1.1-2.2 2.2v1.1h-1.1l-1.1 1.1-3.3 1.1-1.1 1.1h-1.1v1.1l1.1 2.2 1.1 2.2 1.1 2.2v2.2l2.2 3.3v1.1l2.2 1.1v1.1l-1.1 1.1 3.3 1.1-1.1-1.1 1.1-1.1v1.1l1.1 1.1v-1.1l1.1-1.1h3.3v1.1h3.3v1.1l1.1 1.1h1.1v1.1h2.2v-1.1h1.1v1.1h3.3l1.1-1.1h2.2v1.1h-1.1v1.1h1.1v1.1l1.1 1.1h1.1l1.1 1.1h1.1v2.2h1.1v1.1l1.1 1.1v2.2l1.1 1.1h1.1v-1.1h2.2v.1h1.1v1.1h1.1v-1.1l1.1-1.1h1.1v2.2h1.1l1.1 1.1 1.1-1.1 1.1-1.1v-1.1l1.1 1.1 1.1 1.1h3.3l1.1 1.1h1.1v-1.1l-1.1-6.7 2.2-2.2 2.2-2.2 1.1-1.1h4.5l3.3-1.1h1.1v-1.1l2.2 1.1 2.2 1.1 2.2 1.1 4.5 2.2h2.2l1.1 1.1-1.1 1.1v3.3h1.1l1.1-1.1h1.1l1.1-1.1 1.1-2.2h3.3l1.1-1.1h5.5l1.1 1.1 1.1-1.1h5.5l1.1-1.1 1.1 1.1h3.3l2.2 1.1v1.1h7.7l1.1-1.1h1.1l1.1 1.1 1.1-1.1v1.1h1.1l3.3 1.1h1.1l2.2-2.2v-7.8l1.1-11.1v-21.1l3.3-6.7h-3.3v-2.2l-1.1-1.1-2.2-3.3h-1.1v-1.1h-2.2v-1.1l2.2-6.7 1.1-1.1v-2.2h-2.2l-1.1-1.1-1.1-1.1-1.1-2.2-2.2-3.3h-1.1v-1.1h-1.1l-1.1-2.2-1.1-2.2-1.1-1.1-1.1-1.1v-1.4l-1.1-1.1-2.2-2.2-2.2-2.2-1.1-1.1-5.6-5.6-3.3-3.3-3.3-3.3v-1.2l-4.5-3.3-1.1-2.2-4.4-3.3v-1.2h-1.1l-1.1-1.1h-5.5l-2.2 1.1h-1.1l-5.6 2.2v-1.1l-1.1-1.1 1.1-1.1h-1.1v-1.1l-1.1-1.1-1.1-1.1-1.1-1.1v-1.1h-2.2v-1.1l-1.1-1.1v-2.3l-2.2 1.1-1.1-1.1v-1.1l-1.1-3.3-1.1 1.1-1.1-1.1-1.1-3.3h-2.2l-1.1-1.1-1.1 1.1-1.1-1.1h-1.7zm89 83.5h1.1v-1.1z"
		style="stroke:#fff;stroke-width:1.5;stroke-miterlimit:10;fill: #DDFFFF;"
	/>
</svg>
