<svg version="1.1" id="svg2" x="0" y="0" viewBox="0 0 193.9 159.7" xml:space="preserve" width="100%" height="100%" xmlns="http://www.w3.org/2000/svg">
    <style id="style159">
        .south-holland{fill:#dd8473}
    </style>
    <g id="g208" transform="translate(-91.8 -318.3)">
        <g id="g204">
            <path id="path449" class="south-holland" d="m190.8 318.3-6.7 14.5-2.2 3.3-1.1 2.2-3.3 5.6-1.1 1.1v1.1l-2.2 3.3-1.1 2.2-3.3 4.5-6.7 8.9-3.3 2.2v1.1l-2.2 2.2h-1.1v2.2h1.1l-1.1 1.1v-1.1h-1.1l-1.1 1.1-1.1 2.2-1.1 1.1-3.3 3.3-2.2 2.2-3.3 4.5-1.1 1.1-2.2 2.2-1.1 1.1v1.1l-2.2 3.3-2.2 1.1-2.2 2.2h-1.1l-1.1-1.1-5.6-1.1-1.1 1.1h-2.2l-1.1 1.1v1.1l-1.1 1.1-1.1 2.2 1.1 1.1 1.1 1.1v1.1l-2.2 2.2-1.1 2.2-2.2 3.3h2.2l1.1 1.1 1.1-1.1 4.4-1.1h1.1l1.1 2.2H124v1.1l-2.2 2.2v1.1l-1.1 1.1v1.1l1.1 1.1 4.4 6.7v2.2l-1.1 1.1 2.2-1.1 1.1 1.1 1.1 1.1 1.1 1.1v1.1h4.4l-1.1 1.1 1.1 1.1h1.1v-1.1h3.3l1.1 1.1 2.2 3.3h3.3v1.1h2.2l1.1 2.2 1.1 1.1h2.2l-1.1 1.1h-1.1l1.1 2.2 1.1 1.1 3.3 1.1v1.1h2.2l2.2 1.1h2.2v1.1l4.4 1.1 2.2 2.2h1.1l2.2 1.1 3.3 2.2h1.1l1.1 1.1h2.2v1.1h5.5l2.2 1.1h2.2l1.1 1.1h1.1l1.1 1.1h1.1l2.2-1.1h1.1l3.3-1.1h1.1l1.1-1.1h2.2l1.1-2.2 1.1 1.1h1.1l2.2-1.1v1.1l4.4-1.1 1.1-1.1 1.1-1.1 2.2-1.1 3.3-2.2 1.1-2.2 1.1-1.1 1.1-3.3 1.1-1.1 1.1-1.1v-1.1l1.1-1.1h1.1l2.2-1.1h7.7l2.2-1.1h1.1l2.2-3.3h1.1l2.2-1.1 1.1-1.1h4.4l2.2 1.1h3.3l1.1 1.1h5.5v-1.1l1.1-4.5h-4.4l-1.1-1.1h1.1l-1.1-1.1V430l1.1 1.1 2.2-1.1 1.1 1.1 3.3-1.1 1.1 1.1h1.1V430l-1.1-1.1v-2.2h3.3l1.1-1.1V424h4.4v-1.1l1.1-1.1 1.1-3.3v-1.1h1.1l1.1-2.2 1.1-1.1h-1.1l1.1-1.1h-3.3l-4.5-2.2-2.2-1.1-4.5-1.1 1.1-2.2-1.1-3.3h.8-1.1v1.1l-1.1 1.1h-1.1l-2.2-2.2h-2.2l-1.1 1.1-1.1 1.1v1.1l-1.1 1.1h-1.1l-1.1-1.1h-2.2l-1.1 1.1-1.1 2.2h-1.1v1.1h-1.1l-1.1 1.1h-4.4v-3.3l-1.1-1.1v-1.1l-1.1-1.1-1.5-1.3-1.1-1.1-1.1-2.2-1.1-2.2-1.1-1.1 4.4-1.1h1.1L243 393h-4.4l-1.1 1.1h-1.1l-1.1-2.2 1.1-1.1v-1.1h1.1l1.1-1.1 1.1-3.3 3.3-2.2h1.1l1.1-1.1 1.1-1.1h-6.6l1.1-1.1h-1.1v-1.1l-1.1-3.3v-3.3h1.1l-1.1-1.1-4.4-2.2v-1.1h2.2v-1.1l1.1-1.1h-1.1l1.1-1.1 1.1-1.1h2.2v1.1h5.5v-4.5l3.3-1.1-4.4-3.3-1.1-1.1h-2.2l-1.1-1.1-1.1-1.1v-1.1h-1.1l-1.1-1.1v-1.1h-1.1V345l-1.1-1.1v-1.1h-3.4v1.1l-1.1 1.1h-3.3l-1.1 2.2-1.1-1.1-1.1-1.1 1.1-3.3-3.3-1.1-1.1 1.1-1.1 1.1h-2.2l-1.1-1.1v1.1h-1.1l-2.2 1.1-1.1 1.1h-5.5l-2.2-1.1-1.4 1.1h-1.1l-1.1-1.1h-1.1v-3.3h1.1v-1.1l1.1-1.1v-5.6l1.1-1.1 1.1-1.1 1.1-1.1v-2.2h1.1v-2.2l1.1-1.1 1.1-2.2-2.2-1.1h-2.2l-1.1 1.1-1.1-1.1v2.2l-3.3-1.1zM125.1 434l-1.1 1.1h1.1z"/>
            <path id="path479" class="south-holland" d="m117.3 431.8-2.2 1.1h2.2zm0 1.1L114 434h-2.2l2.2-1.1-3.3 1.1-6.7 2.2-2.2 1.1h-1.1l-3.3 1.1h-1.1l-1.1 2.2v2.2l1.1 3.3v1.1h1.1v1.1h1.1l2.2-1.1v-1.1h-1.1V445h3.3l1.1-1.1h3.3l1.1-1.1 1.1-1.1 2.2 1.1h2.2l2.2 1.1v1.1l1.1 1.1 1.1 2.2h1.1v3.3h-1.1v1.1h1.1l-1.1 1.1v1.1l1.1 2.2h1.1v1.1l1.1 1.1v1.1l1.1 2.2v2.2h2.2l1.1 1.1 1.1-1.1v1.1h6.6l1.1 1.1 3.3 1.1 1.1 2.2 1.1 1.1h3.3v1.1h2.2l1.1 1.1h1.1v2.2l2.2 1.1 1.1 1.1h5.5l2.2-1.1h3.3l3.3-1.1 2.2-1.1 1.1-1.1 1.1-2.2v-1.1h-1.1v-1.1h4.4l2.2-1.1h-1.1v-2.2h-1.1l-1.1 1.1h-9.9l-2.2-3.3h-2.2l-1.1-1.1h-1.1l-1.1-1.1v-1.1l-2.2-1.1v-2.2h-1.1l-3.3-3.3-3.3-3.3h-.7v-1.1h-2.2l-1.1-1.1h-1.1l-2.2-2.2-2.2-1.1H134l-4.4-2.2-1.1-1.1-3.3-1.1v-1.1l-1.1-1.1H123v1.1l-1.1-1.1h1.1v-2.2h-1.1v1.1h-1.1v-1.1l-2.2-1.1V434Zm-21.1 15.6-1.1 2.2-1.1 1.1-2.2 1.1h1.1l2.2 1.1 1.1 1.1h1.1V454l-1.1-1.1-1.1-1.1z"/>
            <path id="path547" class="south-holland" d="m160.7 456.3 2.2 1.1 3.3 1.1 2.2 1.1 1.1 1.1h-1.1l-2.2 1.1h-4.4l-1.1-1.1-1.1-1.1h-1.1l-2.2-2.2h-1.1l-1.1-1.1 1.1-1.1h2.2z"/>
        </g>
        <path id="path483" class="south-holland" d="m109.5 448.5 1.1 1.1-1.1-1.1h-2.2l-2.2 1.1-2.2 1.1h-1.1v-1.1l2.2-1.1v-1.1l1.1-1.1 1.1-1.1v1.1h1.1z"/>
        <path id="path911" class="south-holland" d="M112.9 454h1.1l1.1-1.1v2.2l1.1 3.3 2.2 2.2-1.1 1.1h-1.1v-1.1l-1.1-1.1v-1.1l-1.1-2.2-1.1-1.1z"/>
    </g>
</svg>
