<svg xml:space="preserve" width="155.591" height="171.1" version="1.1" id="svg1748" xmlns="http://www.w3.org/2000/svg">
    <style>
        .groningen{fill:#cbc5fc}.stroke-ffffff-1-5{stroke:#fff;stroke-width:1.5;stroke-miterlimit:10}
    </style>
    <g id="g1746" transform="translate(-434.786 -22.65)">
        <path id="path17" class="groningen stroke-ffffff-1-5" d="m516.7 43.4-2.2 1.1-8.9 1.1-1.1 1.1-3.3 1.1H500l-1.1 1.1h-2.2l-2.2 2.2h-3.3l-2.2 1.1-2.2 1.1-1.1-1.1-1.1 1.1H479l-3.3 1.1-4.4 1.1h-2.2l-2.2 1.1h-2.2l-3.3 1.1-3.3 1.1-1.1 1.1V61l-2.2 1.1-1.1-1.1-1.1-1.1-5.6-3.3h-1.1l-4.4 2.2v-1.1h-1.1V59h-1.1v-1.1l-1.1 1.1 1.1 1.1h1.1l1.1 1.1h1.1l1.1 1.1h1.1v1.1h-3.3v-1.1l-2.2-1.1v-1.1h-2.2l-1.1 2.2h1.1l1.1 1.1h1.1v1.1l-1.1 1.1-1.1-1.1v1.1l1.1 1.1h5.5v1.1h-3.3V69h3.3l1.1-1.1v2.2h-1.1l1.1 1.1 1.1-1.1h1.1v1.1l-1.1 1.1h-2.2v1.1l1.1 1.1 1.1-1.1h3.3l1.1 1.1h1.1v7.8h1.1v1.1h-1.1l-1.1 1.1v1.1l-1.1 1.1h-1.1l-1.1 1.1v3.4h1.1l-1.1 1.1h-1.1v1.1l-1.1 1.1v2.2l-1.1 1.1-1.1 1.1-1.1 1.1v1.1h2.2v4.4l-1.1 2.2-1.1 1.1h-1.1l-1.1 1.1v1.1l-1.1 2.2-1.1 1.1v10l1.1 1.1 1.1 1.1 1.1 2.2h8.8l1.1 1.1 2.2 1.1 1.1 1.1v1.1l3.3 1.1 3.3 1.1h1.1l1.1-4.5h1.1v-3.9l2.2-5.6v-1.1l1.1-1.1 1.1-2.2 1.1-1.1v-1.1l1.1-1.1 2.2-1.1 2.2-1.1v-1.1l1.1-1.1 2.2-1.1h3.3l1.1 1.1 1.1-1.1 1.1 1.1h2.2l1.1 3.3 1.1 1.1 1.1-1.1 1.1 3.3v1.1l1.1 1.1 2.2-1.1v2.2l1.1 1.1v1.1h2.2v1.1l1.1 1.1 1.1 1.1 1.1 1.1v1.1h1.1l-1.1 1.1 1.1 1.1v1.1l5.6-2.2h1.1l2.2-1.1h5.5l1.1 1.1h1.1v1.1l4.4 3.3 1.1 2.2 4.5 3.3v1.1l3.3 3.3 3.3 3.3 5.6 5.6 1.1 1.1 2.2 2.2 2.2 2.2 1.1 1.1v1.1l1.1 1.1 1.1 1.1 1.1 2.2 1.1 2.2h1.1v1.1h1.1l2.2 3.3 1.1 2.2 1.1 1.1 1.1 1.1h2.2v2.2l-1.1 1.1-2.2 6.7v1.1h3.3v1.1h1.1l2.2 3.3 1.1 1.1 1.1-1.1v1.1h-1.1v2.2h3.3l-1.1-2.2v-1.1l2.2-3.3 6.7-11.1 4.5-7.8 2.2-8.9 1.1-5.6 1.1-1.1v-1.1l-2.2-10v-14.5l-3.3-2.2v-4.4l1.1-1.1v-3.3l1.1-3.3h1.1l1.1-1.1h2.2l-2.2-1.1-1.1-1.1 1.1-1.1V102l-1.1-3.3v-1.1h-1.1l-3.3-1.1h-.5v-1.1h-4.4v-1.1h-4.4l-1.1-1.1H568l-1.1-1.1-1.1-1.1v-3.3l1.1-1.1-1.1-2.2v-1.1h1.1l1.1-2.2V80l-2.2 1.1-1.1 1.1h-6.8l-2.2-1.1V80h-2.2l-2.2-1.1-2.2-1.1V79l-2.2-1.1-2.2-1.1h-1.1v-1.1h1.1l-1.1-1.1-2.2-2.2h-1.1l-1.1-1.1v-5.5l-1.1-1.1v-4.4l-1.1-2.2h-1.1v-3.3l1.1-3.3v-1.1l-3.3-3.3-2.2-1.1-1.1 2.2 1.1 1.1h-3.3v-1.1l1.1 1.1v-1.1l1.1-2.2h-1.1l-2.2-1.1-2.2 2.2-1.1-1.1-2.2-1.1h-3.3zm27.8 32.3 1.1 1.1v-1.1zm40.1 22.2v-2.2l-1.1 1.1z"/>
    </g>
</svg>